<svg xmlns="http://www.w3.org/2000/svg" viewBox="-2 -2 4 4" style="width: 1024px; height: 1024px; background-color: rgb(238, 238, 238); user-select: none;" stroke-width="0.005">
            <g stroke-opacity="1" fill-opacity="1"><line x1="-4" y1="-10" x2="-4" y2="10" stroke-width="0.005" stroke="#DDD"/><line x1="-3.8000000000000003" y1="-10" x2="-3.8000000000000003" y2="10" stroke-width="0.005" stroke="#DDD"/><line x1="-3.6" y1="-10" x2="-3.6" y2="10" stroke-width="0.005" stroke="#DDD"/><line x1="-3.4000000000000004" y1="-10" x2="-3.4000000000000004" y2="10" stroke-width="0.005" stroke="#DDD"/><line x1="-3.2" y1="-10" x2="-3.2" y2="10" stroke-width="0.005" stroke="#DDD"/><line x1="-3" y1="-10" x2="-3" y2="10" stroke-width="0.005" stroke="#DDD"/><line x1="-2.8000000000000003" y1="-10" x2="-2.8000000000000003" y2="10" stroke-width="0.005" stroke="#DDD"/><line x1="-2.6" y1="-10" x2="-2.6" y2="10" stroke-width="0.005" stroke="#DDD"/><line x1="-2.4000000000000004" y1="-10" x2="-2.4000000000000004" y2="10" stroke-width="0.005" stroke="#DDD"/><line x1="-2.2" y1="-10" x2="-2.2" y2="10" stroke-width="0.005" stroke="#DDD"/><line x1="-2" y1="-10" x2="-2" y2="10" stroke-width="0.005" stroke="#DDD"/><line x1="-1.8" y1="-10" x2="-1.8" y2="10" stroke-width="0.005" stroke="#DDD"/><line x1="-1.6" y1="-10" x2="-1.6" y2="10" stroke-width="0.005" stroke="#DDD"/><line x1="-1.4000000000000001" y1="-10" x2="-1.4000000000000001" y2="10" stroke-width="0.005" stroke="#DDD"/><line x1="-1.2000000000000002" y1="-10" x2="-1.2000000000000002" y2="10" stroke-width="0.005" stroke="#DDD"/><line x1="-1" y1="-10" x2="-1" y2="10" stroke-width="0.005" stroke="#DDD"/><line x1="-0.8" y1="-10" x2="-0.8" y2="10" stroke-width="0.005" stroke="#DDD"/><line x1="-0.6000000000000001" y1="-10" x2="-0.6000000000000001" y2="10" stroke-width="0.005" stroke="#DDD"/><line x1="-0.4" y1="-10" x2="-0.4" y2="10" stroke-width="0.005" stroke="#DDD"/><line x1="-0.2" y1="-10" x2="-0.2" y2="10" stroke-width="0.005" stroke="#DDD"/><line x1="0" y1="-10" x2="0" y2="10" stroke-width="0.005" stroke="#DDD"/><line x1="0.2" y1="-10" x2="0.2" y2="10" stroke-width="0.005" stroke="#DDD"/><line x1="0.4" y1="-10" x2="0.4" y2="10" stroke-width="0.005" stroke="#DDD"/><line x1="0.6000000000000001" y1="-10" x2="0.6000000000000001" y2="10" stroke-width="0.005" stroke="#DDD"/><line x1="0.8" y1="-10" x2="0.8" y2="10" stroke-width="0.005" stroke="#DDD"/><line x1="1" y1="-10" x2="1" y2="10" stroke-width="0.005" stroke="#DDD"/><line x1="1.2000000000000002" y1="-10" x2="1.2000000000000002" y2="10" stroke-width="0.005" stroke="#DDD"/><line x1="1.4000000000000001" y1="-10" x2="1.4000000000000001" y2="10" stroke-width="0.005" stroke="#DDD"/><line x1="1.6" y1="-10" x2="1.6" y2="10" stroke-width="0.005" stroke="#DDD"/><line x1="1.8" y1="-10" x2="1.8" y2="10" stroke-width="0.005" stroke="#DDD"/><line x1="2" y1="-10" x2="2" y2="10" stroke-width="0.005" stroke="#DDD"/><line x1="2.2" y1="-10" x2="2.2" y2="10" stroke-width="0.005" stroke="#DDD"/><line x1="2.4000000000000004" y1="-10" x2="2.4000000000000004" y2="10" stroke-width="0.005" stroke="#DDD"/><line x1="2.6" y1="-10" x2="2.6" y2="10" stroke-width="0.005" stroke="#DDD"/><line x1="2.8000000000000003" y1="-10" x2="2.8000000000000003" y2="10" stroke-width="0.005" stroke="#DDD"/><line x1="3" y1="-10" x2="3" y2="10" stroke-width="0.005" stroke="#DDD"/><line x1="3.2" y1="-10" x2="3.2" y2="10" stroke-width="0.005" stroke="#DDD"/><line x1="3.4000000000000004" y1="-10" x2="3.4000000000000004" y2="10" stroke-width="0.005" stroke="#DDD"/><line x1="3.6" y1="-10" x2="3.6" y2="10" stroke-width="0.005" stroke="#DDD"/><line x1="3.8000000000000003" y1="-10" x2="3.8000000000000003" y2="10" stroke-width="0.005" stroke="#DDD"/><line x1="4" y1="-10" x2="4" y2="10" stroke-width="0.005" stroke="#DDD"/><line x1="-10" y1="-4" x2="10" y2="-4" stroke-width="0.005" stroke="#DDD"/><line x1="-10" y1="-3.8000000000000003" x2="10" y2="-3.8000000000000003" stroke-width="0.005" stroke="#DDD"/><line x1="-10" y1="-3.6" x2="10" y2="-3.6" stroke-width="0.005" stroke="#DDD"/><line x1="-10" y1="-3.4000000000000004" x2="10" y2="-3.4000000000000004" stroke-width="0.005" stroke="#DDD"/><line x1="-10" y1="-3.2" x2="10" y2="-3.2" stroke-width="0.005" stroke="#DDD"/><line x1="-10" y1="-3" x2="10" y2="-3" stroke-width="0.005" stroke="#DDD"/><line x1="-10" y1="-2.8000000000000003" x2="10" y2="-2.8000000000000003" stroke-width="0.005" stroke="#DDD"/><line x1="-10" y1="-2.6" x2="10" y2="-2.6" stroke-width="0.005" stroke="#DDD"/><line x1="-10" y1="-2.4000000000000004" x2="10" y2="-2.4000000000000004" stroke-width="0.005" stroke="#DDD"/><line x1="-10" y1="-2.2" x2="10" y2="-2.2" stroke-width="0.005" stroke="#DDD"/><line x1="-10" y1="-2" x2="10" y2="-2" stroke-width="0.005" stroke="#DDD"/><line x1="-10" y1="-1.8" x2="10" y2="-1.8" stroke-width="0.005" stroke="#DDD"/><line x1="-10" y1="-1.6" x2="10" y2="-1.6" stroke-width="0.005" stroke="#DDD"/><line x1="-10" y1="-1.4000000000000001" x2="10" y2="-1.4000000000000001" stroke-width="0.005" stroke="#DDD"/><line x1="-10" y1="-1.2000000000000002" x2="10" y2="-1.2000000000000002" stroke-width="0.005" stroke="#DDD"/><line x1="-10" y1="-1" x2="10" y2="-1" stroke-width="0.005" stroke="#DDD"/><line x1="-10" y1="-0.8" x2="10" y2="-0.8" stroke-width="0.005" stroke="#DDD"/><line x1="-10" y1="-0.6000000000000001" x2="10" y2="-0.6000000000000001" stroke-width="0.005" stroke="#DDD"/><line x1="-10" y1="-0.4" x2="10" y2="-0.4" stroke-width="0.005" stroke="#DDD"/><line x1="-10" y1="-0.2" x2="10" y2="-0.2" stroke-width="0.005" stroke="#DDD"/><line x1="-10" y1="0" x2="10" y2="0" stroke-width="0.005" stroke="#DDD"/><line x1="-10" y1="0.2" x2="10" y2="0.2" stroke-width="0.005" stroke="#DDD"/><line x1="-10" y1="0.4" x2="10" y2="0.4" stroke-width="0.005" stroke="#DDD"/><line x1="-10" y1="0.6000000000000001" x2="10" y2="0.6000000000000001" stroke-width="0.005" stroke="#DDD"/><line x1="-10" y1="0.8" x2="10" y2="0.8" stroke-width="0.005" stroke="#DDD"/><line x1="-10" y1="1" x2="10" y2="1" stroke-width="0.005" stroke="#DDD"/><line x1="-10" y1="1.2000000000000002" x2="10" y2="1.2000000000000002" stroke-width="0.005" stroke="#DDD"/><line x1="-10" y1="1.4000000000000001" x2="10" y2="1.4000000000000001" stroke-width="0.005" stroke="#DDD"/><line x1="-10" y1="1.6" x2="10" y2="1.6" stroke-width="0.005" stroke="#DDD"/><line x1="-10" y1="1.8" x2="10" y2="1.8" stroke-width="0.005" stroke="#DDD"/><line x1="-10" y1="2" x2="10" y2="2" stroke-width="0.005" stroke="#DDD"/><line x1="-10" y1="2.2" x2="10" y2="2.2" stroke-width="0.005" stroke="#DDD"/><line x1="-10" y1="2.4000000000000004" x2="10" y2="2.4000000000000004" stroke-width="0.005" stroke="#DDD"/><line x1="-10" y1="2.6" x2="10" y2="2.6" stroke-width="0.005" stroke="#DDD"/><line x1="-10" y1="2.8000000000000003" x2="10" y2="2.8000000000000003" stroke-width="0.005" stroke="#DDD"/><line x1="-10" y1="3" x2="10" y2="3" stroke-width="0.005" stroke="#DDD"/><line x1="-10" y1="3.2" x2="10" y2="3.2" stroke-width="0.005" stroke="#DDD"/><line x1="-10" y1="3.4000000000000004" x2="10" y2="3.4000000000000004" stroke-width="0.005" stroke="#DDD"/><line x1="-10" y1="3.6" x2="10" y2="3.6" stroke-width="0.005" stroke="#DDD"/><line x1="-10" y1="3.8000000000000003" x2="10" y2="3.8000000000000003" stroke-width="0.005" stroke="#DDD"/><line x1="-10" y1="4" x2="10" y2="4" stroke-width="0.005" stroke="#DDD"/><line x1="-10" y1="-10" x2="-10" y2="10" stroke-width="0.005" stroke="#AAA"/><line x1="-9" y1="-10" x2="-9" y2="10" stroke-width="0.005" stroke="#AAA"/><line x1="-8" y1="-10" x2="-8" y2="10" stroke-width="0.005" stroke="#AAA"/><line x1="-7" y1="-10" x2="-7" y2="10" stroke-width="0.005" stroke="#AAA"/><line x1="-6" y1="-10" x2="-6" y2="10" stroke-width="0.005" stroke="#AAA"/><line x1="-5" y1="-10" x2="-5" y2="10" stroke-width="0.005" stroke="#AAA"/><line x1="-4" y1="-10" x2="-4" y2="10" stroke-width="0.005" stroke="#AAA"/><line x1="-3" y1="-10" x2="-3" y2="10" stroke-width="0.005" stroke="#AAA"/><line x1="-2" y1="-10" x2="-2" y2="10" stroke-width="0.005" stroke="#AAA"/><line x1="-1" y1="-10" x2="-1" y2="10" stroke-width="0.005" stroke="#AAA"/><line x1="0" y1="-10" x2="0" y2="10" stroke-width="0.005" stroke="#AAA"/><line x1="1" y1="-10" x2="1" y2="10" stroke-width="0.005" stroke="#AAA"/><line x1="2" y1="-10" x2="2" y2="10" stroke-width="0.005" stroke="#AAA"/><line x1="3" y1="-10" x2="3" y2="10" stroke-width="0.005" stroke="#AAA"/><line x1="4" y1="-10" x2="4" y2="10" stroke-width="0.005" stroke="#AAA"/><line x1="5" y1="-10" x2="5" y2="10" stroke-width="0.005" stroke="#AAA"/><line x1="6" y1="-10" x2="6" y2="10" stroke-width="0.005" stroke="#AAA"/><line x1="7" y1="-10" x2="7" y2="10" stroke-width="0.005" stroke="#AAA"/><line x1="8" y1="-10" x2="8" y2="10" stroke-width="0.005" stroke="#AAA"/><line x1="9" y1="-10" x2="9" y2="10" stroke-width="0.005" stroke="#AAA"/><line x1="10" y1="-10" x2="10" y2="10" stroke-width="0.005" stroke="#AAA"/><line x1="-10" y1="-10" x2="10" y2="-10" stroke-width="0.005" stroke="#AAA"/><line x1="-10" y1="-9" x2="10" y2="-9" stroke-width="0.005" stroke="#AAA"/><line x1="-10" y1="-8" x2="10" y2="-8" stroke-width="0.005" stroke="#AAA"/><line x1="-10" y1="-7" x2="10" y2="-7" stroke-width="0.005" stroke="#AAA"/><line x1="-10" y1="-6" x2="10" y2="-6" stroke-width="0.005" stroke="#AAA"/><line x1="-10" y1="-5" x2="10" y2="-5" stroke-width="0.005" stroke="#AAA"/><line x1="-10" y1="-4" x2="10" y2="-4" stroke-width="0.005" stroke="#AAA"/><line x1="-10" y1="-3" x2="10" y2="-3" stroke-width="0.005" stroke="#AAA"/><line x1="-10" y1="-2" x2="10" y2="-2" stroke-width="0.005" stroke="#AAA"/><line x1="-10" y1="-1" x2="10" y2="-1" stroke-width="0.005" stroke="#AAA"/><line x1="-10" y1="0" x2="10" y2="0" stroke-width="0.005" stroke="#AAA"/><line x1="-10" y1="1" x2="10" y2="1" stroke-width="0.005" stroke="#AAA"/><line x1="-10" y1="2" x2="10" y2="2" stroke-width="0.005" stroke="#AAA"/><line x1="-10" y1="3" x2="10" y2="3" stroke-width="0.005" stroke="#AAA"/><line x1="-10" y1="4" x2="10" y2="4" stroke-width="0.005" stroke="#AAA"/><line x1="-10" y1="5" x2="10" y2="5" stroke-width="0.005" stroke="#AAA"/><line x1="-10" y1="6" x2="10" y2="6" stroke-width="0.005" stroke="#AAA"/><line x1="-10" y1="7" x2="10" y2="7" stroke-width="0.005" stroke="#AAA"/><line x1="-10" y1="8" x2="10" y2="8" stroke-width="0.005" stroke="#AAA"/><line x1="-10" y1="9" x2="10" y2="9" stroke-width="0.005" stroke="#AAA"/><line x1="-10" y1="10" x2="10" y2="10" stroke-width="0.005" stroke="#AAA"/><line x1="-50" y1="-10" x2="-50" y2="10" stroke-width="0.005" stroke="#444"/><line x1="-45" y1="-10" x2="-45" y2="10" stroke-width="0.005" stroke="#444"/><line x1="-40" y1="-10" x2="-40" y2="10" stroke-width="0.005" stroke="#444"/><line x1="-35" y1="-10" x2="-35" y2="10" stroke-width="0.005" stroke="#444"/><line x1="-30" y1="-10" x2="-30" y2="10" stroke-width="0.005" stroke="#444"/><line x1="-25" y1="-10" x2="-25" y2="10" stroke-width="0.005" stroke="#444"/><line x1="-20" y1="-10" x2="-20" y2="10" stroke-width="0.005" stroke="#444"/><line x1="-15" y1="-10" x2="-15" y2="10" stroke-width="0.005" stroke="#444"/><line x1="-10" y1="-10" x2="-10" y2="10" stroke-width="0.005" stroke="#444"/><line x1="-5" y1="-10" x2="-5" y2="10" stroke-width="0.005" stroke="#444"/><line x1="0" y1="-10" x2="0" y2="10" stroke-width="0.005" stroke="#444"/><line x1="5" y1="-10" x2="5" y2="10" stroke-width="0.005" stroke="#444"/><line x1="10" y1="-10" x2="10" y2="10" stroke-width="0.005" stroke="#444"/><line x1="15" y1="-10" x2="15" y2="10" stroke-width="0.005" stroke="#444"/><line x1="20" y1="-10" x2="20" y2="10" stroke-width="0.005" stroke="#444"/><line x1="25" y1="-10" x2="25" y2="10" stroke-width="0.005" stroke="#444"/><line x1="30" y1="-10" x2="30" y2="10" stroke-width="0.005" stroke="#444"/><line x1="35" y1="-10" x2="35" y2="10" stroke-width="0.005" stroke="#444"/><line x1="40" y1="-10" x2="40" y2="10" stroke-width="0.005" stroke="#444"/><line x1="45" y1="-10" x2="45" y2="10" stroke-width="0.005" stroke="#444"/><line x1="50" y1="-10" x2="50" y2="10" stroke-width="0.005" stroke="#444"/><line x1="-10" y1="-50" x2="10" y2="-50" stroke-width="0.005" stroke="#444"/><line x1="-10" y1="-45" x2="10" y2="-45" stroke-width="0.005" stroke="#444"/><line x1="-10" y1="-40" x2="10" y2="-40" stroke-width="0.005" stroke="#444"/><line x1="-10" y1="-35" x2="10" y2="-35" stroke-width="0.005" stroke="#444"/><line x1="-10" y1="-30" x2="10" y2="-30" stroke-width="0.005" stroke="#444"/><line x1="-10" y1="-25" x2="10" y2="-25" stroke-width="0.005" stroke="#444"/><line x1="-10" y1="-20" x2="10" y2="-20" stroke-width="0.005" stroke="#444"/><line x1="-10" y1="-15" x2="10" y2="-15" stroke-width="0.005" stroke="#444"/><line x1="-10" y1="-10" x2="10" y2="-10" stroke-width="0.005" stroke="#444"/><line x1="-10" y1="-5" x2="10" y2="-5" stroke-width="0.005" stroke="#444"/><line x1="-10" y1="0" x2="10" y2="0" stroke-width="0.005" stroke="#444"/><line x1="-10" y1="5" x2="10" y2="5" stroke-width="0.005" stroke="#444"/><line x1="-10" y1="10" x2="10" y2="10" stroke-width="0.005" stroke="#444"/><line x1="-10" y1="15" x2="10" y2="15" stroke-width="0.005" stroke="#444"/><line x1="-10" y1="20" x2="10" y2="20" stroke-width="0.005" stroke="#444"/><line x1="-10" y1="25" x2="10" y2="25" stroke-width="0.005" stroke="#444"/><line x1="-10" y1="30" x2="10" y2="30" stroke-width="0.005" stroke="#444"/><line x1="-10" y1="35" x2="10" y2="35" stroke-width="0.005" stroke="#444"/><line x1="-10" y1="40" x2="10" y2="40" stroke-width="0.005" stroke="#444"/><line x1="-10" y1="45" x2="10" y2="45" stroke-width="0.005" stroke="#444"/><line x1="-10" y1="50" x2="10" y2="50" stroke-width="0.005" stroke="#444"/></g>
            <text x="-2" y="-1.85" font-family="Verdana" font-size="0.1" style="pointer-events:none" fill="#444" transform="rotate(0,-2,-1.85)"> 2D CGA - drag p1,p2,p3 </text>,<text x="-2" y="-1.71" font-family="Verdana" font-size="0.1" style="pointer-events:none" fill="#444" transform="rotate(0,-2,-1.71)">  </text>,,<circle  cx="0.25" cy="-0.375" r="1.1524430571616109" fill="none" stroke="#ff8888" stroke-dasharray="none"/>,<text x="0.25" y="-0.375" font-family="Verdana" font-size="0.1" style="pointer-events:none" fill="#ff8888" transform="rotate(0,0.25,-0.375)"> C </text>,<circle  cx="1" cy="1" r="0.8999999682108556" fill="none" stroke="#ff8888" stroke-dasharray="none"/>,<text x="1" y="1" font-family="Verdana" font-size="0.1" style="pointer-events:none" fill="#ff8888" transform="rotate(0,1,1)"> D </text>,,<line style="pointer-events:none" x1="-10" y1="0" x2="10" y2="0" stroke="#44aa44" transform="rotate(-180,0,0)"/>,<text x="0" y="0" font-family="Verdana" font-size="0.1" style="pointer-events:none" fill="#44aa44" transform="rotate(-180,0,0)"> X </text>,<line style="pointer-events:none" x1="-9.399999976158142" y1="-0.30000001192092896" x2="10.600000023841858" y2="-0.30000001192092896" stroke="#44aa44" transform="rotate(-116.56505117707799,0.6000000238418579,-0.30000001192092896)"/>,<text x="0.6000000238418579" y="-0.30000001192092896" font-family="Verdana" font-size="0.1" style="pointer-events:none" fill="#44aa44" transform="rotate(-116.56505117707799,0.6000000238418579,-0.30000001192092896)"> Y </text>,<circle  cx="0.75" cy="0" r="0.03" fill="#44aa44"/>,,<circle  cx="1.3397247791290283" cy="0" r="0.03" fill="#4444ff" stroke-width="0.01" stroke="none" stroke-dasharray="none"/><circle  cx="-0.8397247791290283" cy="0" r="0.03" fill="#4444ff" stroke-width="0.01" stroke="none" stroke-dasharray="none"/>,<text x="-0.8397247791290283" y="0" font-family="Verdana" font-size="0.1" style="pointer-events:none" fill="#4444ff" transform="rotate(0,-0.8397247791290283,0)"> pp1 </text>,<circle  cx="1.2788217663764954" cy="0.1442790925502777" r="0.03" fill="#4444ff" stroke-width="0.01" stroke="none" stroke-dasharray="none"/><circle  cx="0.12958580255508423" cy="0.771135002374649" r="0.03" fill="#4444ff" stroke-width="0.01" stroke="none" stroke-dasharray="none"/>,<text x="0.12958580255508423" y="0.771135002374649" font-family="Verdana" font-size="0.1" style="pointer-events:none" fill="#4444ff" transform="rotate(0,0.12958580255508423,0.771135002374649)"> pp2 </text>,<circle  cx="0.8101281821727753" cy="0.12025654315948486" r="0.03" fill="#4444ff" stroke-width="0.01" stroke="none" stroke-dasharray="none"/><circle  cx="1.5898716747760773" cy="1.679743766784668" r="0.03" fill="#4444ff" stroke-width="0.01" stroke="none" stroke-dasharray="none"/>,<text x="1.5898716747760773" y="1.679743766784668" font-family="Verdana" font-size="0.1" style="pointer-events:none" fill="#4444ff" transform="rotate(0,1.5898716747760773,1.679743766784668)"> pp3 </text>,,<circle  cx="-0.5" cy="0.5" r="0.03" fill="#666666"/>,<text x="-0.5" y="0.5" font-family="Verdana" font-size="0.1" style="pointer-events:none" fill="#666666" transform="rotate(0,-0.5,0.5)"> p1 </text>,<circle  cx="1" cy="0.5" r="0.03" fill="#666666"/>,<text x="1" y="0.5" font-family="Verdana" font-size="0.1" style="pointer-events:none" fill="#666666" transform="rotate(0,1,0.5)"> p2 </text>,<circle  cx="0" cy="-1.5" r="0.03" fill="#666666"/>,<text x="0" y="-1.5" font-family="Verdana" font-size="0.1" style="pointer-events:none" fill="#666666" transform="rotate(0,0,-1.5)"> p3 </text></svg>