<svg xmlns="http://www.w3.org/2000/svg" viewBox="-2 -2 4 4" style="width: 1024px; height: 1024px; background-color: rgb(238, 238, 238); user-select: none;" stroke-width="0.02">
            <g stroke-opacity="1" fill-opacity="1"><line x1="1.25" y1="1.25" x2="0.8333333333333334" y2="0.8333333333333334" stroke="black" stroke-width="0.005"/><line x1="1.125" y1="1.25" x2="0.75" y2="0.8333333333333334" stroke="black" stroke-width="0.0005"/><text text-anchor="middle" font-size="0.04" fill="black" x="1.125" y="1.3">0.9</text><line x1="1" y1="1.25" x2="0.6666666666666666" y2="0.8333333333333334" stroke="black" stroke-width="0.0005"/><text text-anchor="middle" font-size="0.04" fill="black" x="1" y="1.3">0.8</text><line x1="0.875" y1="1.25" x2="0.5833333333333334" y2="0.8333333333333334" stroke="black" stroke-width="0.0005"/><text text-anchor="middle" font-size="0.04" fill="black" x="0.875" y="1.3">0.7</text><line x1="0.75" y1="1.25" x2="0.5" y2="0.8333333333333334" stroke="black" stroke-width="0.0005"/><text text-anchor="middle" font-size="0.04" fill="black" x="0.75" y="1.3">0.6</text><line x1="0.625" y1="1.25" x2="0.4166666666666667" y2="0.8333333333333334" stroke="black" stroke-width="0.002"/><text text-anchor="middle" font-size="0.04" fill="black" x="0.625" y="1.3">0.5</text><line x1="0.5" y1="1.25" x2="0.3333333333333333" y2="0.8333333333333334" stroke="black" stroke-width="0.0005"/><text text-anchor="middle" font-size="0.04" fill="black" x="0.5" y="1.3">0.4</text><line x1="0.375" y1="1.25" x2="0.25" y2="0.8333333333333334" stroke="black" stroke-width="0.0005"/><text text-anchor="middle" font-size="0.04" fill="black" x="0.375" y="1.3">0.3</text><line x1="0.25" y1="1.25" x2="0.16666666666666666" y2="0.8333333333333334" stroke="black" stroke-width="0.0005"/><text text-anchor="middle" font-size="0.04" fill="black" x="0.25" y="1.3">0.2</text><line x1="0.125" y1="1.25" x2="0.08333333333333333" y2="0.8333333333333334" stroke="black" stroke-width="0.0005"/><text text-anchor="middle" font-size="0.04" fill="black" x="0.125" y="1.3">0.1</text><line x1="0" y1="1.25" x2="0" y2="0.8333333333333334" stroke="black" stroke-width="0.005"/><text text-anchor="middle" font-size="0.04" fill="black" x="0" y="1.3">0.0</text><line x1="-0.125" y1="1.25" x2="-0.08333333333333333" y2="0.8333333333333334" stroke="black" stroke-width="0.0005"/><text text-anchor="middle" font-size="0.04" fill="black" x="-0.125" y="1.3">-0.1</text><line x1="-0.25" y1="1.25" x2="-0.16666666666666666" y2="0.8333333333333334" stroke="black" stroke-width="0.0005"/><text text-anchor="middle" font-size="0.04" fill="black" x="-0.25" y="1.3">-0.2</text><line x1="-0.375" y1="1.25" x2="-0.25" y2="0.8333333333333334" stroke="black" stroke-width="0.0005"/><text text-anchor="middle" font-size="0.04" fill="black" x="-0.375" y="1.3">-0.3</text><line x1="-0.5" y1="1.25" x2="-0.3333333333333333" y2="0.8333333333333334" stroke="black" stroke-width="0.0005"/><text text-anchor="middle" font-size="0.04" fill="black" x="-0.5" y="1.3">-0.4</text><line x1="-0.625" y1="1.25" x2="-0.4166666666666667" y2="0.8333333333333334" stroke="black" stroke-width="0.002"/><text text-anchor="middle" font-size="0.04" fill="black" x="-0.625" y="1.3">-0.5</text><line x1="-0.75" y1="1.25" x2="-0.5" y2="0.8333333333333334" stroke="black" stroke-width="0.0005"/><text text-anchor="middle" font-size="0.04" fill="black" x="-0.75" y="1.3">-0.6</text><line x1="-0.875" y1="1.25" x2="-0.5833333333333334" y2="0.8333333333333334" stroke="black" stroke-width="0.0005"/><text text-anchor="middle" font-size="0.04" fill="black" x="-0.875" y="1.3">-0.7</text><line x1="-1" y1="1.25" x2="-0.6666666666666666" y2="0.8333333333333334" stroke="black" stroke-width="0.0005"/><text text-anchor="middle" font-size="0.04" fill="black" x="-1" y="1.3">-0.8</text><line x1="-1.125" y1="1.25" x2="-0.75" y2="0.8333333333333334" stroke="black" stroke-width="0.0005"/><text text-anchor="middle" font-size="0.04" fill="black" x="-1.125" y="1.3">-0.9</text><line x1="-1.25" y1="1.25" x2="-0.8333333333333334" y2="0.8333333333333334" stroke="black" stroke-width="0.005"/></g><g stroke-opacity="1" fill-opacity="1"><line x1="1.25" y1="1.25" x2="-1.25" y2="1.25" stroke="black" stroke-width="0.005"/><line x1="1.2195122234882314" y1="1.2195122234882314" x2="-1.2195122234882314" y2="1.2195122234882314" stroke="black" stroke-width="0.0005"/><text text-anchor="middle" font-size="0.04" fill="black" x="-1.2195122234882314" y="1.2695122234882315">0.9</text><line x1="1.1904762445393628" y1="1.1904762445393628" x2="-1.1904762445393628" y2="1.1904762445393628" stroke="black" stroke-width="0.0005"/><text text-anchor="middle" font-size="0.04" fill="black" x="-1.1904762445393628" y="1.240476244539363">0.8</text><line x1="1.162790646096578" y1="1.162790646096578" x2="-1.162790646096578" y2="1.162790646096578" stroke="black" stroke-width="0.0005"/><text text-anchor="middle" font-size="0.04" fill="black" x="-1.162790646096578" y="1.212790646096578">0.7</text><line x1="1.1363636117336184" y1="1.1363636117336184" x2="-1.1363636117336184" y2="1.1363636117336184" stroke="black" stroke-width="0.0005"/><text text-anchor="middle" font-size="0.04" fill="black" x="-1.1363636117336184" y="1.1863636117336185">0.6</text><line x1="1.1111111111111112" y1="1.1111111111111112" x2="-1.1111111111111112" y2="1.1111111111111112" stroke="black" stroke-width="0.002"/><text text-anchor="middle" font-size="0.04" fill="black" x="-1.1111111111111112" y="1.1611111111111112">0.5</text><line x1="1.0869565442739682" y1="1.0869565442739682" x2="-1.0869565442739682" y2="1.0869565442739682" stroke="black" stroke-width="0.0005"/><text text-anchor="middle" font-size="0.04" fill="black" x="-1.0869565442739682" y="1.1369565442739682">0.4</text><line x1="1.0638298304062632" y1="1.0638298304062632" x2="-1.0638298304062632" y2="1.0638298304062632" stroke="black" stroke-width="0.0005"/><text text-anchor="middle" font-size="0.04" fill="black" x="-1.0638298304062632" y="1.1138298304062633">0.3</text><line x1="1.041666625274554" y1="1.041666625274554" x2="-1.041666625274554" y2="1.041666625274554" stroke="black" stroke-width="0.0005"/><text text-anchor="middle" font-size="0.04" fill="black" x="-1.041666625274554" y="1.091666625274554">0.2</text><line x1="1.0204081434053665" y1="1.0204081434053665" x2="-1.0204081434053665" y2="1.0204081434053665" stroke="black" stroke-width="0.0005"/><text text-anchor="middle" font-size="0.04" fill="black" x="-1.0204081434053665" y="1.0704081434053665">0.1</text><line x1="1" y1="1" x2="-1" y2="1" stroke="black" stroke-width="0.005"/><text text-anchor="middle" font-size="0.04" fill="black" x="-1" y="1.05">0.0</text><line x1="0.9803921751955851" y1="0.9803921751955851" x2="-0.9803921751955851" y2="0.9803921751955851" stroke="black" stroke-width="0.0005"/><text text-anchor="middle" font-size="0.04" fill="black" x="-0.9803921751955851" y="1.0303921751955851">-0.1</text><line x1="0.9615384968074834" y1="0.9615384968074834" x2="-0.9615384968074834" y2="0.9615384968074834" stroke="black" stroke-width="0.0005"/><text text-anchor="middle" font-size="0.04" fill="black" x="-0.9615384968074834" y="1.0115384968074834">-0.2</text><line x1="0.9433961924644257" y1="0.9433961924644257" x2="-0.9433961924644257" y2="0.9433961924644257" stroke="black" stroke-width="0.0005"/><text text-anchor="middle" font-size="0.04" fill="black" x="-0.9433961924644257" y="0.9933961924644258">-0.3</text><line x1="0.925925909573486" y1="0.925925909573486" x2="-0.925925909573486" y2="0.925925909573486" stroke="black" stroke-width="0.0005"/><text text-anchor="middle" font-size="0.04" fill="black" x="-0.925925909573486" y="0.975925909573486">-0.4</text><line x1="0.9090909090909091" y1="0.9090909090909091" x2="-0.9090909090909091" y2="0.9090909090909091" stroke="black" stroke-width="0.002"/><text text-anchor="middle" font-size="0.04" fill="black" x="-0.9090909090909091" y="0.9590909090909091">-0.5</text><line x1="0.8928571580624096" y1="0.8928571580624096" x2="-0.8928571580624096" y2="0.8928571580624096" stroke="black" stroke-width="0.0005"/><text text-anchor="middle" font-size="0.04" fill="black" x="-0.8928571580624096" y="0.9428571580624097">-0.6</text><line x1="0.8771930118089981" y1="0.8771930118089981" x2="-0.8771930118089981" y2="0.8771930118089981" stroke="black" stroke-width="0.0005"/><text text-anchor="middle" font-size="0.04" fill="black" x="-0.8771930118089981" y="0.9271930118089982">-0.7</text><line x1="0.8620689371678274" y1="0.8620689371678274" x2="-0.8620689371678274" y2="0.8620689371678274" stroke="black" stroke-width="0.0005"/><text text-anchor="middle" font-size="0.04" fill="black" x="-0.8620689371678274" y="0.9120689371678274">-0.8</text><line x1="0.8474576134203634" y1="0.8474576134203634" x2="-0.8474576134203634" y2="0.8474576134203634" stroke="black" stroke-width="0.0005"/><text text-anchor="middle" font-size="0.04" fill="black" x="-0.8474576134203634" y="0.8974576134203635">-0.9</text><line x1="0.8333333333333334" y1="0.8333333333333334" x2="-0.8333333333333334" y2="0.8333333333333334" stroke="black" stroke-width="0.005"/></g><g stroke-opacity="0" fill-opacity="0"><line x1="1.25" y1="1.25" x2="1.25" y2="-1.25" stroke="black" stroke-width="0.005"/><line x1="1.2195122234882314" y1="1.2195122234882314" x2="1.2195122234882314" y2="-1.2195122234882314" stroke="black" stroke-width="0.0005"/><line x1="1.1904762445393628" y1="1.1904762445393628" x2="1.1904762445393628" y2="-1.1904762445393628" stroke="black" stroke-width="0.0005"/><line x1="1.162790646096578" y1="1.162790646096578" x2="1.162790646096578" y2="-1.162790646096578" stroke="black" stroke-width="0.0005"/><line x1="1.1363636117336184" y1="1.1363636117336184" x2="1.1363636117336184" y2="-1.1363636117336184" stroke="black" stroke-width="0.0005"/><line x1="1.1111111111111112" y1="1.1111111111111112" x2="1.1111111111111112" y2="-1.1111111111111112" stroke="black" stroke-width="0.002"/><line x1="1.0869565442739682" y1="1.0869565442739682" x2="1.0869565442739682" y2="-1.0869565442739682" stroke="black" stroke-width="0.0005"/><line x1="1.0638298304062632" y1="1.0638298304062632" x2="1.0638298304062632" y2="-1.0638298304062632" stroke="black" stroke-width="0.0005"/><line x1="1.041666625274554" y1="1.041666625274554" x2="1.041666625274554" y2="-1.041666625274554" stroke="black" stroke-width="0.0005"/><line x1="1.0204081434053665" y1="1.0204081434053665" x2="1.0204081434053665" y2="-1.0204081434053665" stroke="black" stroke-width="0.0005"/><line x1="1" y1="1" x2="1" y2="-1" stroke="black" stroke-width="0.005"/><line x1="0.9803921751955851" y1="0.9803921751955851" x2="0.9803921751955851" y2="-0.9803921751955851" stroke="black" stroke-width="0.0005"/><line x1="0.9615384968074834" y1="0.9615384968074834" x2="0.9615384968074834" y2="-0.9615384968074834" stroke="black" stroke-width="0.0005"/><line x1="0.9433961924644257" y1="0.9433961924644257" x2="0.9433961924644257" y2="-0.9433961924644257" stroke="black" stroke-width="0.0005"/><line x1="0.925925909573486" y1="0.925925909573486" x2="0.925925909573486" y2="-0.925925909573486" stroke="black" stroke-width="0.0005"/><line x1="0.9090909090909091" y1="0.9090909090909091" x2="0.9090909090909091" y2="-0.9090909090909091" stroke="black" stroke-width="0.002"/><line x1="0.8928571580624096" y1="0.8928571580624096" x2="0.8928571580624096" y2="-0.8928571580624096" stroke="black" stroke-width="0.0005"/><line x1="0.8771930118089981" y1="0.8771930118089981" x2="0.8771930118089981" y2="-0.8771930118089981" stroke="black" stroke-width="0.0005"/><line x1="0.8620689371678274" y1="0.8620689371678274" x2="0.8620689371678274" y2="-0.8620689371678274" stroke="black" stroke-width="0.0005"/><line x1="0.8474576134203634" y1="0.8474576134203634" x2="0.8474576134203634" y2="-0.8474576134203634" stroke="black" stroke-width="0.0005"/><line x1="0.8333333333333334" y1="0.8333333333333334" x2="0.8333333333333334" y2="-0.8333333333333334" stroke="black" stroke-width="0.005"/></g><g stroke-opacity="0" fill-opacity="0"><line x1="1.25" y1="1.25" x2="0.8333333333333334" y2="0.8333333333333334" stroke="black" stroke-width="0.005"/><line x1="1.25" y1="1.125" x2="0.8333333333333334" y2="0.75" stroke="black" stroke-width="0.0005"/><text text-anchor="middle" font-size="0.04" fill="black" x="1.3" y="1.125">-0.9</text><line x1="1.25" y1="1" x2="0.8333333333333334" y2="0.6666666666666666" stroke="black" stroke-width="0.0005"/><text text-anchor="middle" font-size="0.04" fill="black" x="1.3" y="1">-0.8</text><line x1="1.25" y1="0.875" x2="0.8333333333333334" y2="0.5833333333333334" stroke="black" stroke-width="0.0005"/><text text-anchor="middle" font-size="0.04" fill="black" x="1.3" y="0.875">-0.7</text><line x1="1.25" y1="0.75" x2="0.8333333333333334" y2="0.5" stroke="black" stroke-width="0.0005"/><text text-anchor="middle" font-size="0.04" fill="black" x="1.3" y="0.75">-0.6</text><line x1="1.25" y1="0.625" x2="0.8333333333333334" y2="0.4166666666666667" stroke="black" stroke-width="0.002"/><text text-anchor="middle" font-size="0.04" fill="black" x="1.3" y="0.625">-0.5</text><line x1="1.25" y1="0.5" x2="0.8333333333333334" y2="0.3333333333333333" stroke="black" stroke-width="0.0005"/><text text-anchor="middle" font-size="0.04" fill="black" x="1.3" y="0.5">-0.4</text><line x1="1.25" y1="0.375" x2="0.8333333333333334" y2="0.25" stroke="black" stroke-width="0.0005"/><text text-anchor="middle" font-size="0.04" fill="black" x="1.3" y="0.375">-0.3</text><line x1="1.25" y1="0.25" x2="0.8333333333333334" y2="0.16666666666666666" stroke="black" stroke-width="0.0005"/><text text-anchor="middle" font-size="0.04" fill="black" x="1.3" y="0.25">-0.2</text><line x1="1.25" y1="0.125" x2="0.8333333333333334" y2="0.08333333333333333" stroke="black" stroke-width="0.0005"/><text text-anchor="middle" font-size="0.04" fill="black" x="1.3" y="0.125">-0.1</text><line x1="1.25" y1="0" x2="0.8333333333333334" y2="0" stroke="black" stroke-width="0.005"/><text text-anchor="middle" font-size="0.04" fill="black" x="1.3" y="0">0.0</text><line x1="1.25" y1="-0.125" x2="0.8333333333333334" y2="-0.08333333333333333" stroke="black" stroke-width="0.0005"/><text text-anchor="middle" font-size="0.04" fill="black" x="1.3" y="-0.125">0.1</text><line x1="1.25" y1="-0.25" x2="0.8333333333333334" y2="-0.16666666666666666" stroke="black" stroke-width="0.0005"/><text text-anchor="middle" font-size="0.04" fill="black" x="1.3" y="-0.25">0.2</text><line x1="1.25" y1="-0.375" x2="0.8333333333333334" y2="-0.25" stroke="black" stroke-width="0.0005"/><text text-anchor="middle" font-size="0.04" fill="black" x="1.3" y="-0.375">0.3</text><line x1="1.25" y1="-0.5" x2="0.8333333333333334" y2="-0.3333333333333333" stroke="black" stroke-width="0.0005"/><text text-anchor="middle" font-size="0.04" fill="black" x="1.3" y="-0.5">0.4</text><line x1="1.25" y1="-0.625" x2="0.8333333333333334" y2="-0.4166666666666667" stroke="black" stroke-width="0.002"/><text text-anchor="middle" font-size="0.04" fill="black" x="1.3" y="-0.625">0.5</text><line x1="1.25" y1="-0.75" x2="0.8333333333333334" y2="-0.5" stroke="black" stroke-width="0.0005"/><text text-anchor="middle" font-size="0.04" fill="black" x="1.3" y="-0.75">0.6</text><line x1="1.25" y1="-0.875" x2="0.8333333333333334" y2="-0.5833333333333334" stroke="black" stroke-width="0.0005"/><text text-anchor="middle" font-size="0.04" fill="black" x="1.3" y="-0.875">0.7</text><line x1="1.25" y1="-1" x2="0.8333333333333334" y2="-0.6666666666666666" stroke="black" stroke-width="0.0005"/><text text-anchor="middle" font-size="0.04" fill="black" x="1.3" y="-1">0.8</text><line x1="1.25" y1="-1.125" x2="0.8333333333333334" y2="-0.75" stroke="black" stroke-width="0.0005"/><text text-anchor="middle" font-size="0.04" fill="black" x="1.3" y="-1.125">0.9</text><line x1="1.25" y1="-1.25" x2="0.8333333333333334" y2="-0.8333333333333334" stroke="black" stroke-width="0.005"/></g><g stroke-opacity="1" fill-opacity="1"><line x1="0.8333333333333334" y1="0.8333333333333334" x2="-0.8333333333333334" y2="0.8333333333333334" stroke="black" stroke-width="0.005"/><line x1="0.8333333333333334" y1="0.75" x2="-0.8333333333333334" y2="0.75" stroke="black" stroke-width="0.0005"/><text text-anchor="middle" font-size="0.04" fill="black" x="-0.8833333333333334" y="0.75">-0.9</text><line x1="0.8333333333333334" y1="0.6666666666666666" x2="-0.8333333333333334" y2="0.6666666666666666" stroke="black" stroke-width="0.0005"/><text text-anchor="middle" font-size="0.04" fill="black" x="-0.8833333333333334" y="0.6666666666666666">-0.8</text><line x1="0.8333333333333334" y1="0.5833333333333334" x2="-0.8333333333333334" y2="0.5833333333333334" stroke="black" stroke-width="0.0005"/><text text-anchor="middle" font-size="0.04" fill="black" x="-0.8833333333333334" y="0.5833333333333334">-0.7</text><line x1="0.8333333333333334" y1="0.5" x2="-0.8333333333333334" y2="0.5" stroke="black" stroke-width="0.0005"/><text text-anchor="middle" font-size="0.04" fill="black" x="-0.8833333333333334" y="0.5">-0.6</text><line x1="0.8333333333333334" y1="0.4166666666666667" x2="-0.8333333333333334" y2="0.4166666666666667" stroke="black" stroke-width="0.002"/><text text-anchor="middle" font-size="0.04" fill="black" x="-0.8833333333333334" y="0.4166666666666667">-0.5</text><line x1="0.8333333333333334" y1="0.3333333333333333" x2="-0.8333333333333334" y2="0.3333333333333333" stroke="black" stroke-width="0.0005"/><text text-anchor="middle" font-size="0.04" fill="black" x="-0.8833333333333334" y="0.3333333333333333">-0.4</text><line x1="0.8333333333333334" y1="0.25" x2="-0.8333333333333334" y2="0.25" stroke="black" stroke-width="0.0005"/><text text-anchor="middle" font-size="0.04" fill="black" x="-0.8833333333333334" y="0.25">-0.3</text><line x1="0.8333333333333334" y1="0.16666666666666666" x2="-0.8333333333333334" y2="0.16666666666666666" stroke="black" stroke-width="0.0005"/><text text-anchor="middle" font-size="0.04" fill="black" x="-0.8833333333333334" y="0.16666666666666666">-0.2</text><line x1="0.8333333333333334" y1="0.08333333333333333" x2="-0.8333333333333334" y2="0.08333333333333333" stroke="black" stroke-width="0.0005"/><text text-anchor="middle" font-size="0.04" fill="black" x="-0.8833333333333334" y="0.08333333333333333">-0.1</text><line x1="0.8333333333333334" y1="0" x2="-0.8333333333333334" y2="0" stroke="black" stroke-width="0.005"/><text text-anchor="middle" font-size="0.04" fill="black" x="-0.8833333333333334" y="0">0.0</text><line x1="0.8333333333333334" y1="-0.08333333333333333" x2="-0.8333333333333334" y2="-0.08333333333333333" stroke="black" stroke-width="0.0005"/><text text-anchor="middle" font-size="0.04" fill="black" x="-0.8833333333333334" y="-0.08333333333333333">0.1</text><line x1="0.8333333333333334" y1="-0.16666666666666666" x2="-0.8333333333333334" y2="-0.16666666666666666" stroke="black" stroke-width="0.0005"/><text text-anchor="middle" font-size="0.04" fill="black" x="-0.8833333333333334" y="-0.16666666666666666">0.2</text><line x1="0.8333333333333334" y1="-0.25" x2="-0.8333333333333334" y2="-0.25" stroke="black" stroke-width="0.0005"/><text text-anchor="middle" font-size="0.04" fill="black" x="-0.8833333333333334" y="-0.25">0.3</text><line x1="0.8333333333333334" y1="-0.3333333333333333" x2="-0.8333333333333334" y2="-0.3333333333333333" stroke="black" stroke-width="0.0005"/><text text-anchor="middle" font-size="0.04" fill="black" x="-0.8833333333333334" y="-0.3333333333333333">0.4</text><line x1="0.8333333333333334" y1="-0.4166666666666667" x2="-0.8333333333333334" y2="-0.4166666666666667" stroke="black" stroke-width="0.002"/><text text-anchor="middle" font-size="0.04" fill="black" x="-0.8833333333333334" y="-0.4166666666666667">0.5</text><line x1="0.8333333333333334" y1="-0.5" x2="-0.8333333333333334" y2="-0.5" stroke="black" stroke-width="0.0005"/><text text-anchor="middle" font-size="0.04" fill="black" x="-0.8833333333333334" y="-0.5">0.6</text><line x1="0.8333333333333334" y1="-0.5833333333333334" x2="-0.8333333333333334" y2="-0.5833333333333334" stroke="black" stroke-width="0.0005"/><text text-anchor="middle" font-size="0.04" fill="black" x="-0.8833333333333334" y="-0.5833333333333334">0.7</text><line x1="0.8333333333333334" y1="-0.6666666666666666" x2="-0.8333333333333334" y2="-0.6666666666666666" stroke="black" stroke-width="0.0005"/><text text-anchor="middle" font-size="0.04" fill="black" x="-0.8833333333333334" y="-0.6666666666666666">0.8</text><line x1="0.8333333333333334" y1="-0.75" x2="-0.8333333333333334" y2="-0.75" stroke="black" stroke-width="0.0005"/><text text-anchor="middle" font-size="0.04" fill="black" x="-0.8833333333333334" y="-0.75">0.9</text><line x1="0.8333333333333334" y1="-0.8333333333333334" x2="-0.8333333333333334" y2="-0.8333333333333334" stroke="black" stroke-width="0.005"/></g><g stroke-opacity="1" fill-opacity="1"><line x1="0.8333333333333334" y1="0.8333333333333334" x2="0.8333333333333334" y2="-0.8333333333333334" stroke="black" stroke-width="0.005"/><line x1="0.75" y1="0.8333333333333334" x2="0.75" y2="-0.8333333333333334" stroke="black" stroke-width="0.0005"/><line x1="0.6666666666666666" y1="0.8333333333333334" x2="0.6666666666666666" y2="-0.8333333333333334" stroke="black" stroke-width="0.0005"/><line x1="0.5833333333333334" y1="0.8333333333333334" x2="0.5833333333333334" y2="-0.8333333333333334" stroke="black" stroke-width="0.0005"/><line x1="0.5" y1="0.8333333333333334" x2="0.5" y2="-0.8333333333333334" stroke="black" stroke-width="0.0005"/><line x1="0.4166666666666667" y1="0.8333333333333334" x2="0.4166666666666667" y2="-0.8333333333333334" stroke="black" stroke-width="0.002"/><line x1="0.3333333333333333" y1="0.8333333333333334" x2="0.3333333333333333" y2="-0.8333333333333334" stroke="black" stroke-width="0.0005"/><line x1="0.25" y1="0.8333333333333334" x2="0.25" y2="-0.8333333333333334" stroke="black" stroke-width="0.0005"/><line x1="0.16666666666666666" y1="0.8333333333333334" x2="0.16666666666666666" y2="-0.8333333333333334" stroke="black" stroke-width="0.0005"/><line x1="0.08333333333333333" y1="0.8333333333333334" x2="0.08333333333333333" y2="-0.8333333333333334" stroke="black" stroke-width="0.0005"/><line x1="0" y1="0.8333333333333334" x2="0" y2="-0.8333333333333334" stroke="black" stroke-width="0.005"/><line x1="-0.08333333333333333" y1="0.8333333333333334" x2="-0.08333333333333333" y2="-0.8333333333333334" stroke="black" stroke-width="0.0005"/><line x1="-0.16666666666666666" y1="0.8333333333333334" x2="-0.16666666666666666" y2="-0.8333333333333334" stroke="black" stroke-width="0.0005"/><line x1="-0.25" y1="0.8333333333333334" x2="-0.25" y2="-0.8333333333333334" stroke="black" stroke-width="0.0005"/><line x1="-0.3333333333333333" y1="0.8333333333333334" x2="-0.3333333333333333" y2="-0.8333333333333334" stroke="black" stroke-width="0.0005"/><line x1="-0.4166666666666667" y1="0.8333333333333334" x2="-0.4166666666666667" y2="-0.8333333333333334" stroke="black" stroke-width="0.002"/><line x1="-0.5" y1="0.8333333333333334" x2="-0.5" y2="-0.8333333333333334" stroke="black" stroke-width="0.0005"/><line x1="-0.5833333333333334" y1="0.8333333333333334" x2="-0.5833333333333334" y2="-0.8333333333333334" stroke="black" stroke-width="0.0005"/><line x1="-0.6666666666666666" y1="0.8333333333333334" x2="-0.6666666666666666" y2="-0.8333333333333334" stroke="black" stroke-width="0.0005"/><line x1="-0.75" y1="0.8333333333333334" x2="-0.75" y2="-0.8333333333333334" stroke="black" stroke-width="0.0005"/><line x1="-0.8333333333333334" y1="0.8333333333333334" x2="-0.8333333333333334" y2="-0.8333333333333334" stroke="black" stroke-width="0.005"/></g>
            <text x="-2" y="-1.85" font-family="Verdana" font-size="0.1" style="pointer-events:none" fill="#444" transform="rotate(0,0,0)"> Spider Workshop - Inverse Kinematics - Constraints </text>,<line style="pointer-events:none" x1="0" y1="0.5" x2="0.45177431106567384" y2="0.28575706481933594" stroke="#444"/>,<line style="pointer-events:none" x1="0.45177431106567384" y1="0.28575706481933594" x2="0.8984586715698242" y2="0.5104191303253174" stroke="#444"/>,<line style="pointer-events:none" x1="0.8984586715698242" y1="0.5104191303253174" x2="1" y2="1" stroke="#444"/>,,<circle  cx="0" cy="0.5" r="0.03" fill="#ff0000"/>,<text x="-0.1" y="0.45" font-family="Verdana" font-size="0.1" style="pointer-events:none" fill="#ff0000" transform="rotate(0,0,0)"> B </text>,<circle  cx="1" cy="1" r="0.03" fill="#ff0000"/>,<text x="0.9" y="0.95" font-family="Verdana" font-size="0.1" style="pointer-events:none" fill="#ff0000" transform="rotate(0,0,0)"> T </text></svg>