<svg xmlns="http://www.w3.org/2000/svg" viewBox="-2 -2 4 4" style="width: 1024px; height: 1024px; background-color: rgb(238, 238, 238); user-select: none;" stroke-width="0.02">
            <g stroke-opacity="1" fill-opacity="1"><line x1="1.25" y1="1.25" x2="0.8333333333333334" y2="0.8333333333333334" stroke="black" stroke-width="0.005"/><line x1="1.125" y1="1.25" x2="0.75" y2="0.8333333333333334" stroke="black" stroke-width="0.0005"/><text text-anchor="middle" font-size="0.04" fill="black" x="1.125" y="1.3">0.9</text><line x1="1" y1="1.25" x2="0.6666666666666666" y2="0.8333333333333334" stroke="black" stroke-width="0.0005"/><text text-anchor="middle" font-size="0.04" fill="black" x="1" y="1.3">0.8</text><line x1="0.875" y1="1.25" x2="0.5833333333333334" y2="0.8333333333333334" stroke="black" stroke-width="0.0005"/><text text-anchor="middle" font-size="0.04" fill="black" x="0.875" y="1.3">0.7</text><line x1="0.75" y1="1.25" x2="0.5" y2="0.8333333333333334" stroke="black" stroke-width="0.0005"/><text text-anchor="middle" font-size="0.04" fill="black" x="0.75" y="1.3">0.6</text><line x1="0.625" y1="1.25" x2="0.4166666666666667" y2="0.8333333333333334" stroke="black" stroke-width="0.002"/><text text-anchor="middle" font-size="0.04" fill="black" x="0.625" y="1.3">0.5</text><line x1="0.5" y1="1.25" x2="0.3333333333333333" y2="0.8333333333333334" stroke="black" stroke-width="0.0005"/><text text-anchor="middle" font-size="0.04" fill="black" x="0.5" y="1.3">0.4</text><line x1="0.375" y1="1.25" x2="0.25" y2="0.8333333333333334" stroke="black" stroke-width="0.0005"/><text text-anchor="middle" font-size="0.04" fill="black" x="0.375" y="1.3">0.3</text><line x1="0.25" y1="1.25" x2="0.16666666666666666" y2="0.8333333333333334" stroke="black" stroke-width="0.0005"/><text text-anchor="middle" font-size="0.04" fill="black" x="0.25" y="1.3">0.2</text><line x1="0.125" y1="1.25" x2="0.08333333333333333" y2="0.8333333333333334" stroke="black" stroke-width="0.0005"/><text text-anchor="middle" font-size="0.04" fill="black" x="0.125" y="1.3">0.1</text><line x1="0" y1="1.25" x2="0" y2="0.8333333333333334" stroke="black" stroke-width="0.005"/><text text-anchor="middle" font-size="0.04" fill="black" x="0" y="1.3">0.0</text><line x1="-0.125" y1="1.25" x2="-0.08333333333333333" y2="0.8333333333333334" stroke="black" stroke-width="0.0005"/><text text-anchor="middle" font-size="0.04" fill="black" x="-0.125" y="1.3">-0.1</text><line x1="-0.25" y1="1.25" x2="-0.16666666666666666" y2="0.8333333333333334" stroke="black" stroke-width="0.0005"/><text text-anchor="middle" font-size="0.04" fill="black" x="-0.25" y="1.3">-0.2</text><line x1="-0.375" y1="1.25" x2="-0.25" y2="0.8333333333333334" stroke="black" stroke-width="0.0005"/><text text-anchor="middle" font-size="0.04" fill="black" x="-0.375" y="1.3">-0.3</text><line x1="-0.5" y1="1.25" x2="-0.3333333333333333" y2="0.8333333333333334" stroke="black" stroke-width="0.0005"/><text text-anchor="middle" font-size="0.04" fill="black" x="-0.5" y="1.3">-0.4</text><line x1="-0.625" y1="1.25" x2="-0.4166666666666667" y2="0.8333333333333334" stroke="black" stroke-width="0.002"/><text text-anchor="middle" font-size="0.04" fill="black" x="-0.625" y="1.3">-0.5</text><line x1="-0.75" y1="1.25" x2="-0.5" y2="0.8333333333333334" stroke="black" stroke-width="0.0005"/><text text-anchor="middle" font-size="0.04" fill="black" x="-0.75" y="1.3">-0.6</text><line x1="-0.875" y1="1.25" x2="-0.5833333333333334" y2="0.8333333333333334" stroke="black" stroke-width="0.0005"/><text text-anchor="middle" font-size="0.04" fill="black" x="-0.875" y="1.3">-0.7</text><line x1="-1" y1="1.25" x2="-0.6666666666666666" y2="0.8333333333333334" stroke="black" stroke-width="0.0005"/><text text-anchor="middle" font-size="0.04" fill="black" x="-1" y="1.3">-0.8</text><line x1="-1.125" y1="1.25" x2="-0.75" y2="0.8333333333333334" stroke="black" stroke-width="0.0005"/><text text-anchor="middle" font-size="0.04" fill="black" x="-1.125" y="1.3">-0.9</text><line x1="-1.25" y1="1.25" x2="-0.8333333333333334" y2="0.8333333333333334" stroke="black" stroke-width="0.005"/></g><g stroke-opacity="1" fill-opacity="1"><line x1="1.25" y1="1.25" x2="-1.25" y2="1.25" stroke="black" stroke-width="0.005"/><line x1="1.2195122234882314" y1="1.2195122234882314" x2="-1.2195122234882314" y2="1.2195122234882314" stroke="black" stroke-width="0.0005"/><text text-anchor="middle" font-size="0.04" fill="black" x="-1.2195122234882314" y="1.2695122234882315">0.9</text><line x1="1.1904762445393628" y1="1.1904762445393628" x2="-1.1904762445393628" y2="1.1904762445393628" stroke="black" stroke-width="0.0005"/><text text-anchor="middle" font-size="0.04" fill="black" x="-1.1904762445393628" y="1.240476244539363">0.8</text><line x1="1.162790646096578" y1="1.162790646096578" x2="-1.162790646096578" y2="1.162790646096578" stroke="black" stroke-width="0.0005"/><text text-anchor="middle" font-size="0.04" fill="black" x="-1.162790646096578" y="1.212790646096578">0.7</text><line x1="1.1363636117336184" y1="1.1363636117336184" x2="-1.1363636117336184" y2="1.1363636117336184" stroke="black" stroke-width="0.0005"/><text text-anchor="middle" font-size="0.04" fill="black" x="-1.1363636117336184" y="1.1863636117336185">0.6</text><line x1="1.1111111111111112" y1="1.1111111111111112" x2="-1.1111111111111112" y2="1.1111111111111112" stroke="black" stroke-width="0.002"/><text text-anchor="middle" font-size="0.04" fill="black" x="-1.1111111111111112" y="1.1611111111111112">0.5</text><line x1="1.0869565442739682" y1="1.0869565442739682" x2="-1.0869565442739682" y2="1.0869565442739682" stroke="black" stroke-width="0.0005"/><text text-anchor="middle" font-size="0.04" fill="black" x="-1.0869565442739682" y="1.1369565442739682">0.4</text><line x1="1.0638298304062632" y1="1.0638298304062632" x2="-1.0638298304062632" y2="1.0638298304062632" stroke="black" stroke-width="0.0005"/><text text-anchor="middle" font-size="0.04" fill="black" x="-1.0638298304062632" y="1.1138298304062633">0.3</text><line x1="1.041666625274554" y1="1.041666625274554" x2="-1.041666625274554" y2="1.041666625274554" stroke="black" stroke-width="0.0005"/><text text-anchor="middle" font-size="0.04" fill="black" x="-1.041666625274554" y="1.091666625274554">0.2</text><line x1="1.0204081434053665" y1="1.0204081434053665" x2="-1.0204081434053665" y2="1.0204081434053665" stroke="black" stroke-width="0.0005"/><text text-anchor="middle" font-size="0.04" fill="black" x="-1.0204081434053665" y="1.0704081434053665">0.1</text><line x1="1" y1="1" x2="-1" y2="1" stroke="black" stroke-width="0.005"/><text text-anchor="middle" font-size="0.04" fill="black" x="-1" y="1.05">0.0</text><line x1="0.9803921751955851" y1="0.9803921751955851" x2="-0.9803921751955851" y2="0.9803921751955851" stroke="black" stroke-width="0.0005"/><text text-anchor="middle" font-size="0.04" fill="black" x="-0.9803921751955851" y="1.0303921751955851">-0.1</text><line x1="0.9615384968074834" y1="0.9615384968074834" x2="-0.9615384968074834" y2="0.9615384968074834" stroke="black" stroke-width="0.0005"/><text text-anchor="middle" font-size="0.04" fill="black" x="-0.9615384968074834" y="1.0115384968074834">-0.2</text><line x1="0.9433961924644257" y1="0.9433961924644257" x2="-0.9433961924644257" y2="0.9433961924644257" stroke="black" stroke-width="0.0005"/><text text-anchor="middle" font-size="0.04" fill="black" x="-0.9433961924644257" y="0.9933961924644258">-0.3</text><line x1="0.925925909573486" y1="0.925925909573486" x2="-0.925925909573486" y2="0.925925909573486" stroke="black" stroke-width="0.0005"/><text text-anchor="middle" font-size="0.04" fill="black" x="-0.925925909573486" y="0.975925909573486">-0.4</text><line x1="0.9090909090909091" y1="0.9090909090909091" x2="-0.9090909090909091" y2="0.9090909090909091" stroke="black" stroke-width="0.002"/><text text-anchor="middle" font-size="0.04" fill="black" x="-0.9090909090909091" y="0.9590909090909091">-0.5</text><line x1="0.8928571580624096" y1="0.8928571580624096" x2="-0.8928571580624096" y2="0.8928571580624096" stroke="black" stroke-width="0.0005"/><text text-anchor="middle" font-size="0.04" fill="black" x="-0.8928571580624096" y="0.9428571580624097">-0.6</text><line x1="0.8771930118089981" y1="0.8771930118089981" x2="-0.8771930118089981" y2="0.8771930118089981" stroke="black" stroke-width="0.0005"/><text text-anchor="middle" font-size="0.04" fill="black" x="-0.8771930118089981" y="0.9271930118089982">-0.7</text><line x1="0.8620689371678274" y1="0.8620689371678274" x2="-0.8620689371678274" y2="0.8620689371678274" stroke="black" stroke-width="0.0005"/><text text-anchor="middle" font-size="0.04" fill="black" x="-0.8620689371678274" y="0.9120689371678274">-0.8</text><line x1="0.8474576134203634" y1="0.8474576134203634" x2="-0.8474576134203634" y2="0.8474576134203634" stroke="black" stroke-width="0.0005"/><text text-anchor="middle" font-size="0.04" fill="black" x="-0.8474576134203634" y="0.8974576134203635">-0.9</text><line x1="0.8333333333333334" y1="0.8333333333333334" x2="-0.8333333333333334" y2="0.8333333333333334" stroke="black" stroke-width="0.005"/></g><g stroke-opacity="0" fill-opacity="0"><line x1="1.25" y1="1.25" x2="1.25" y2="-1.25" stroke="black" stroke-width="0.005"/><line x1="1.2195122234882314" y1="1.2195122234882314" x2="1.2195122234882314" y2="-1.2195122234882314" stroke="black" stroke-width="0.0005"/><line x1="1.1904762445393628" y1="1.1904762445393628" x2="1.1904762445393628" y2="-1.1904762445393628" stroke="black" stroke-width="0.0005"/><line x1="1.162790646096578" y1="1.162790646096578" x2="1.162790646096578" y2="-1.162790646096578" stroke="black" stroke-width="0.0005"/><line x1="1.1363636117336184" y1="1.1363636117336184" x2="1.1363636117336184" y2="-1.1363636117336184" stroke="black" stroke-width="0.0005"/><line x1="1.1111111111111112" y1="1.1111111111111112" x2="1.1111111111111112" y2="-1.1111111111111112" stroke="black" stroke-width="0.002"/><line x1="1.0869565442739682" y1="1.0869565442739682" x2="1.0869565442739682" y2="-1.0869565442739682" stroke="black" stroke-width="0.0005"/><line x1="1.0638298304062632" y1="1.0638298304062632" x2="1.0638298304062632" y2="-1.0638298304062632" stroke="black" stroke-width="0.0005"/><line x1="1.041666625274554" y1="1.041666625274554" x2="1.041666625274554" y2="-1.041666625274554" stroke="black" stroke-width="0.0005"/><line x1="1.0204081434053665" y1="1.0204081434053665" x2="1.0204081434053665" y2="-1.0204081434053665" stroke="black" stroke-width="0.0005"/><line x1="1" y1="1" x2="1" y2="-1" stroke="black" stroke-width="0.005"/><line x1="0.9803921751955851" y1="0.9803921751955851" x2="0.9803921751955851" y2="-0.9803921751955851" stroke="black" stroke-width="0.0005"/><line x1="0.9615384968074834" y1="0.9615384968074834" x2="0.9615384968074834" y2="-0.9615384968074834" stroke="black" stroke-width="0.0005"/><line x1="0.9433961924644257" y1="0.9433961924644257" x2="0.9433961924644257" y2="-0.9433961924644257" stroke="black" stroke-width="0.0005"/><line x1="0.925925909573486" y1="0.925925909573486" x2="0.925925909573486" y2="-0.925925909573486" stroke="black" stroke-width="0.0005"/><line x1="0.9090909090909091" y1="0.9090909090909091" x2="0.9090909090909091" y2="-0.9090909090909091" stroke="black" stroke-width="0.002"/><line x1="0.8928571580624096" y1="0.8928571580624096" x2="0.8928571580624096" y2="-0.8928571580624096" stroke="black" stroke-width="0.0005"/><line x1="0.8771930118089981" y1="0.8771930118089981" x2="0.8771930118089981" y2="-0.8771930118089981" stroke="black" stroke-width="0.0005"/><line x1="0.8620689371678274" y1="0.8620689371678274" x2="0.8620689371678274" y2="-0.8620689371678274" stroke="black" stroke-width="0.0005"/><line x1="0.8474576134203634" y1="0.8474576134203634" x2="0.8474576134203634" y2="-0.8474576134203634" stroke="black" stroke-width="0.0005"/><line x1="0.8333333333333334" y1="0.8333333333333334" x2="0.8333333333333334" y2="-0.8333333333333334" stroke="black" stroke-width="0.005"/></g><g stroke-opacity="0" fill-opacity="0"><line x1="1.25" y1="1.25" x2="0.8333333333333334" y2="0.8333333333333334" stroke="black" stroke-width="0.005"/><line x1="1.25" y1="1.125" x2="0.8333333333333334" y2="0.75" stroke="black" stroke-width="0.0005"/><text text-anchor="middle" font-size="0.04" fill="black" x="1.3" y="1.125">-0.9</text><line x1="1.25" y1="1" x2="0.8333333333333334" y2="0.6666666666666666" stroke="black" stroke-width="0.0005"/><text text-anchor="middle" font-size="0.04" fill="black" x="1.3" y="1">-0.8</text><line x1="1.25" y1="0.875" x2="0.8333333333333334" y2="0.5833333333333334" stroke="black" stroke-width="0.0005"/><text text-anchor="middle" font-size="0.04" fill="black" x="1.3" y="0.875">-0.7</text><line x1="1.25" y1="0.75" x2="0.8333333333333334" y2="0.5" stroke="black" stroke-width="0.0005"/><text text-anchor="middle" font-size="0.04" fill="black" x="1.3" y="0.75">-0.6</text><line x1="1.25" y1="0.625" x2="0.8333333333333334" y2="0.4166666666666667" stroke="black" stroke-width="0.002"/><text text-anchor="middle" font-size="0.04" fill="black" x="1.3" y="0.625">-0.5</text><line x1="1.25" y1="0.5" x2="0.8333333333333334" y2="0.3333333333333333" stroke="black" stroke-width="0.0005"/><text text-anchor="middle" font-size="0.04" fill="black" x="1.3" y="0.5">-0.4</text><line x1="1.25" y1="0.375" x2="0.8333333333333334" y2="0.25" stroke="black" stroke-width="0.0005"/><text text-anchor="middle" font-size="0.04" fill="black" x="1.3" y="0.375">-0.3</text><line x1="1.25" y1="0.25" x2="0.8333333333333334" y2="0.16666666666666666" stroke="black" stroke-width="0.0005"/><text text-anchor="middle" font-size="0.04" fill="black" x="1.3" y="0.25">-0.2</text><line x1="1.25" y1="0.125" x2="0.8333333333333334" y2="0.08333333333333333" stroke="black" stroke-width="0.0005"/><text text-anchor="middle" font-size="0.04" fill="black" x="1.3" y="0.125">-0.1</text><line x1="1.25" y1="0" x2="0.8333333333333334" y2="0" stroke="black" stroke-width="0.005"/><text text-anchor="middle" font-size="0.04" fill="black" x="1.3" y="0">0.0</text><line x1="1.25" y1="-0.125" x2="0.8333333333333334" y2="-0.08333333333333333" stroke="black" stroke-width="0.0005"/><text text-anchor="middle" font-size="0.04" fill="black" x="1.3" y="-0.125">0.1</text><line x1="1.25" y1="-0.25" x2="0.8333333333333334" y2="-0.16666666666666666" stroke="black" stroke-width="0.0005"/><text text-anchor="middle" font-size="0.04" fill="black" x="1.3" y="-0.25">0.2</text><line x1="1.25" y1="-0.375" x2="0.8333333333333334" y2="-0.25" stroke="black" stroke-width="0.0005"/><text text-anchor="middle" font-size="0.04" fill="black" x="1.3" y="-0.375">0.3</text><line x1="1.25" y1="-0.5" x2="0.8333333333333334" y2="-0.3333333333333333" stroke="black" stroke-width="0.0005"/><text text-anchor="middle" font-size="0.04" fill="black" x="1.3" y="-0.5">0.4</text><line x1="1.25" y1="-0.625" x2="0.8333333333333334" y2="-0.4166666666666667" stroke="black" stroke-width="0.002"/><text text-anchor="middle" font-size="0.04" fill="black" x="1.3" y="-0.625">0.5</text><line x1="1.25" y1="-0.75" x2="0.8333333333333334" y2="-0.5" stroke="black" stroke-width="0.0005"/><text text-anchor="middle" font-size="0.04" fill="black" x="1.3" y="-0.75">0.6</text><line x1="1.25" y1="-0.875" x2="0.8333333333333334" y2="-0.5833333333333334" stroke="black" stroke-width="0.0005"/><text text-anchor="middle" font-size="0.04" fill="black" x="1.3" y="-0.875">0.7</text><line x1="1.25" y1="-1" x2="0.8333333333333334" y2="-0.6666666666666666" stroke="black" stroke-width="0.0005"/><text text-anchor="middle" font-size="0.04" fill="black" x="1.3" y="-1">0.8</text><line x1="1.25" y1="-1.125" x2="0.8333333333333334" y2="-0.75" stroke="black" stroke-width="0.0005"/><text text-anchor="middle" font-size="0.04" fill="black" x="1.3" y="-1.125">0.9</text><line x1="1.25" y1="-1.25" x2="0.8333333333333334" y2="-0.8333333333333334" stroke="black" stroke-width="0.005"/></g><g stroke-opacity="1" fill-opacity="1"><line x1="0.8333333333333334" y1="0.8333333333333334" x2="-0.8333333333333334" y2="0.8333333333333334" stroke="black" stroke-width="0.005"/><line x1="0.8333333333333334" y1="0.75" x2="-0.8333333333333334" y2="0.75" stroke="black" stroke-width="0.0005"/><text text-anchor="middle" font-size="0.04" fill="black" x="-0.8833333333333334" y="0.75">-0.9</text><line x1="0.8333333333333334" y1="0.6666666666666666" x2="-0.8333333333333334" y2="0.6666666666666666" stroke="black" stroke-width="0.0005"/><text text-anchor="middle" font-size="0.04" fill="black" x="-0.8833333333333334" y="0.6666666666666666">-0.8</text><line x1="0.8333333333333334" y1="0.5833333333333334" x2="-0.8333333333333334" y2="0.5833333333333334" stroke="black" stroke-width="0.0005"/><text text-anchor="middle" font-size="0.04" fill="black" x="-0.8833333333333334" y="0.5833333333333334">-0.7</text><line x1="0.8333333333333334" y1="0.5" x2="-0.8333333333333334" y2="0.5" stroke="black" stroke-width="0.0005"/><text text-anchor="middle" font-size="0.04" fill="black" x="-0.8833333333333334" y="0.5">-0.6</text><line x1="0.8333333333333334" y1="0.4166666666666667" x2="-0.8333333333333334" y2="0.4166666666666667" stroke="black" stroke-width="0.002"/><text text-anchor="middle" font-size="0.04" fill="black" x="-0.8833333333333334" y="0.4166666666666667">-0.5</text><line x1="0.8333333333333334" y1="0.3333333333333333" x2="-0.8333333333333334" y2="0.3333333333333333" stroke="black" stroke-width="0.0005"/><text text-anchor="middle" font-size="0.04" fill="black" x="-0.8833333333333334" y="0.3333333333333333">-0.4</text><line x1="0.8333333333333334" y1="0.25" x2="-0.8333333333333334" y2="0.25" stroke="black" stroke-width="0.0005"/><text text-anchor="middle" font-size="0.04" fill="black" x="-0.8833333333333334" y="0.25">-0.3</text><line x1="0.8333333333333334" y1="0.16666666666666666" x2="-0.8333333333333334" y2="0.16666666666666666" stroke="black" stroke-width="0.0005"/><text text-anchor="middle" font-size="0.04" fill="black" x="-0.8833333333333334" y="0.16666666666666666">-0.2</text><line x1="0.8333333333333334" y1="0.08333333333333333" x2="-0.8333333333333334" y2="0.08333333333333333" stroke="black" stroke-width="0.0005"/><text text-anchor="middle" font-size="0.04" fill="black" x="-0.8833333333333334" y="0.08333333333333333">-0.1</text><line x1="0.8333333333333334" y1="0" x2="-0.8333333333333334" y2="0" stroke="black" stroke-width="0.005"/><text text-anchor="middle" font-size="0.04" fill="black" x="-0.8833333333333334" y="0">0.0</text><line x1="0.8333333333333334" y1="-0.08333333333333333" x2="-0.8333333333333334" y2="-0.08333333333333333" stroke="black" stroke-width="0.0005"/><text text-anchor="middle" font-size="0.04" fill="black" x="-0.8833333333333334" y="-0.08333333333333333">0.1</text><line x1="0.8333333333333334" y1="-0.16666666666666666" x2="-0.8333333333333334" y2="-0.16666666666666666" stroke="black" stroke-width="0.0005"/><text text-anchor="middle" font-size="0.04" fill="black" x="-0.8833333333333334" y="-0.16666666666666666">0.2</text><line x1="0.8333333333333334" y1="-0.25" x2="-0.8333333333333334" y2="-0.25" stroke="black" stroke-width="0.0005"/><text text-anchor="middle" font-size="0.04" fill="black" x="-0.8833333333333334" y="-0.25">0.3</text><line x1="0.8333333333333334" y1="-0.3333333333333333" x2="-0.8333333333333334" y2="-0.3333333333333333" stroke="black" stroke-width="0.0005"/><text text-anchor="middle" font-size="0.04" fill="black" x="-0.8833333333333334" y="-0.3333333333333333">0.4</text><line x1="0.8333333333333334" y1="-0.4166666666666667" x2="-0.8333333333333334" y2="-0.4166666666666667" stroke="black" stroke-width="0.002"/><text text-anchor="middle" font-size="0.04" fill="black" x="-0.8833333333333334" y="-0.4166666666666667">0.5</text><line x1="0.8333333333333334" y1="-0.5" x2="-0.8333333333333334" y2="-0.5" stroke="black" stroke-width="0.0005"/><text text-anchor="middle" font-size="0.04" fill="black" x="-0.8833333333333334" y="-0.5">0.6</text><line x1="0.8333333333333334" y1="-0.5833333333333334" x2="-0.8333333333333334" y2="-0.5833333333333334" stroke="black" stroke-width="0.0005"/><text text-anchor="middle" font-size="0.04" fill="black" x="-0.8833333333333334" y="-0.5833333333333334">0.7</text><line x1="0.8333333333333334" y1="-0.6666666666666666" x2="-0.8333333333333334" y2="-0.6666666666666666" stroke="black" stroke-width="0.0005"/><text text-anchor="middle" font-size="0.04" fill="black" x="-0.8833333333333334" y="-0.6666666666666666">0.8</text><line x1="0.8333333333333334" y1="-0.75" x2="-0.8333333333333334" y2="-0.75" stroke="black" stroke-width="0.0005"/><text text-anchor="middle" font-size="0.04" fill="black" x="-0.8833333333333334" y="-0.75">0.9</text><line x1="0.8333333333333334" y1="-0.8333333333333334" x2="-0.8333333333333334" y2="-0.8333333333333334" stroke="black" stroke-width="0.005"/></g><g stroke-opacity="1" fill-opacity="1"><line x1="0.8333333333333334" y1="0.8333333333333334" x2="0.8333333333333334" y2="-0.8333333333333334" stroke="black" stroke-width="0.005"/><line x1="0.75" y1="0.8333333333333334" x2="0.75" y2="-0.8333333333333334" stroke="black" stroke-width="0.0005"/><line x1="0.6666666666666666" y1="0.8333333333333334" x2="0.6666666666666666" y2="-0.8333333333333334" stroke="black" stroke-width="0.0005"/><line x1="0.5833333333333334" y1="0.8333333333333334" x2="0.5833333333333334" y2="-0.8333333333333334" stroke="black" stroke-width="0.0005"/><line x1="0.5" y1="0.8333333333333334" x2="0.5" y2="-0.8333333333333334" stroke="black" stroke-width="0.0005"/><line x1="0.4166666666666667" y1="0.8333333333333334" x2="0.4166666666666667" y2="-0.8333333333333334" stroke="black" stroke-width="0.002"/><line x1="0.3333333333333333" y1="0.8333333333333334" x2="0.3333333333333333" y2="-0.8333333333333334" stroke="black" stroke-width="0.0005"/><line x1="0.25" y1="0.8333333333333334" x2="0.25" y2="-0.8333333333333334" stroke="black" stroke-width="0.0005"/><line x1="0.16666666666666666" y1="0.8333333333333334" x2="0.16666666666666666" y2="-0.8333333333333334" stroke="black" stroke-width="0.0005"/><line x1="0.08333333333333333" y1="0.8333333333333334" x2="0.08333333333333333" y2="-0.8333333333333334" stroke="black" stroke-width="0.0005"/><line x1="0" y1="0.8333333333333334" x2="0" y2="-0.8333333333333334" stroke="black" stroke-width="0.005"/><line x1="-0.08333333333333333" y1="0.8333333333333334" x2="-0.08333333333333333" y2="-0.8333333333333334" stroke="black" stroke-width="0.0005"/><line x1="-0.16666666666666666" y1="0.8333333333333334" x2="-0.16666666666666666" y2="-0.8333333333333334" stroke="black" stroke-width="0.0005"/><line x1="-0.25" y1="0.8333333333333334" x2="-0.25" y2="-0.8333333333333334" stroke="black" stroke-width="0.0005"/><line x1="-0.3333333333333333" y1="0.8333333333333334" x2="-0.3333333333333333" y2="-0.8333333333333334" stroke="black" stroke-width="0.0005"/><line x1="-0.4166666666666667" y1="0.8333333333333334" x2="-0.4166666666666667" y2="-0.8333333333333334" stroke="black" stroke-width="0.002"/><line x1="-0.5" y1="0.8333333333333334" x2="-0.5" y2="-0.8333333333333334" stroke="black" stroke-width="0.0005"/><line x1="-0.5833333333333334" y1="0.8333333333333334" x2="-0.5833333333333334" y2="-0.8333333333333334" stroke="black" stroke-width="0.0005"/><line x1="-0.6666666666666666" y1="0.8333333333333334" x2="-0.6666666666666666" y2="-0.8333333333333334" stroke="black" stroke-width="0.0005"/><line x1="-0.75" y1="0.8333333333333334" x2="-0.75" y2="-0.8333333333333334" stroke="black" stroke-width="0.0005"/><line x1="-0.8333333333333334" y1="0.8333333333333334" x2="-0.8333333333333334" y2="-0.8333333333333334" stroke="black" stroke-width="0.005"/></g>
            ,<line style="pointer-events:none" x1="-0.13013354433588198" y1="1.129833832227668" x2="-0.8302281038430341" y2="1.1046763900164782" stroke="#cccccc"/>,<line style="pointer-events:none" x1="-0.8302281038430341" y1="1.1046763900164782" x2="-0.3992570077799205" y2="1.3611482893074145" stroke="#cccccc"/>,<line style="pointer-events:none" x1="-0.3992570077799205" y1="1.3611482893074145" x2="0.6539122621304252" y2="1.5488896876000098" stroke="#cccccc"/>,<line style="pointer-events:none" x1="-0.13013354433588198" y1="1.129833832227668" x2="-1.0143007338150591" y2="1.1152563441157235" stroke="#cccccc"/>,<line style="pointer-events:none" x1="-1.0143007338150591" y1="1.1152563441157235" x2="-1.009789788849791" y2="1.3493627478337298" stroke="#cccccc"/>,<line style="pointer-events:none" x1="-1.009789788849791" y1="1.3493627478337298" x2="0.0656840111942377" y2="1.536798740403955" stroke="#cccccc"/>,<line style="pointer-events:none" x1="-0.13013354433588198" y1="1.129833832227668" x2="-1.2333923038826518" y2="1.0457126347806178" stroke="#cccccc"/>,<line style="pointer-events:none" x1="-1.2333923038826518" y1="1.0457126347806178" x2="-1.4821205231003352" y2="1.1661866092365742" stroke="#cccccc"/>,<line style="pointer-events:none" x1="-1.4821205231003352" y1="1.1661866092365742" x2="-0.5260955147592606" y2="1.337237582459689" stroke="#cccccc"/>,<line style="pointer-events:none" x1="-0.13013354433588198" y1="1.129833832227668" x2="-1.2202847730536177" y2="0.9878659704083254" stroke="#cccccc"/>,<line style="pointer-events:none" x1="-1.2202847730536177" y1="0.9878659704083254" x2="-1.3205159832870839" y2="1.0544761314400954" stroke="#cccccc"/>,<line style="pointer-events:none" x1="-1.3205159832870839" y1="1.0544761314400954" x2="-0.4582859593954881" y2="1.214155598979896" stroke="#cccccc"/>,<line style="pointer-events:none" x1="-0.13013354433588198" y1="1.129833832227668" x2="-0.6533359152009811" y2="0.9296680427687236" stroke="#cccccc"/>,<line style="pointer-events:none" x1="-0.6533359152009811" y1="0.9296680427687236" x2="-0.4020953570788922" y2="0.8836726206517622" stroke="#cccccc"/>,<line style="pointer-events:none" x1="-0.4020953570788922" y1="0.8836726206517622" x2="0.29410975869751665" y2="1.0233997822467642" stroke="#cccccc"/>,<line style="pointer-events:none" x1="-0.13013354433588198" y1="1.129833832227668" x2="-0.536362170777375" y2="0.9306819216203043" stroke="#cccccc"/>,<line style="pointer-events:none" x1="-0.536362170777375" y1="0.9306819216203043" x2="0.005062311673430474" y2="0.8915180619541125" stroke="#cccccc"/>,<line style="pointer-events:none" x1="0.005062311673430474" y1="0.8915180619541125" x2="0.7155868010069214" y2="1.0376070138743554" stroke="#cccccc"/>,<line style="pointer-events:none" x1="-0.13013354433588198" y1="1.129833832227668" x2="-0.409455301625555" y2="0.9621158796916444" stroke="#cccccc"/>,<line style="pointer-events:none" x1="-0.409455301625555" y1="0.9621158796916444" x2="0.46793530324413835" y2="0.9942831358881" stroke="#cccccc"/>,<line style="pointer-events:none" x1="0.46793530324413835" y1="0.9942831358881" x2="1.2152088433535317" y2="1.147488958758084" stroke="#cccccc"/>,<line style="pointer-events:none" x1="-0.13013354433588198" y1="1.129833832227668" x2="-0.21253964016049237" y2="1.044495629012782" stroke="#cccccc"/>,<line style="pointer-events:none" x1="-0.21253964016049237" y1="1.044495629012782" x2="0.7358100202976313" y2="1.1402599043633816" stroke="#cccccc"/>,<line style="pointer-events:none" x1="0.7358100202976313" y1="1.1402599043633816" x2="1.5793744681077755" y2="1.308849254918047" stroke="#cccccc"/>,<circle  cx="-0.12430507611701083" cy="1.131466581343619" r="0.12" fill="#cccccc"/>,,<line style="pointer-events:none" x1="0.4718316358948403" y1="0.7970108341552365" x2="0.5411033658442428" y2="0.37361416931677505" stroke="#000000"/>,<line style="pointer-events:none" x1="0.5411033658442428" y1="0.37361416931677505" x2="0.6537208541212405" y2="0.7747035380441322" stroke="#000000"/>,<line style="pointer-events:none" x1="0.6537208541212405" y1="0.7747035380441322" x2="0.6536373075638293" y2="1.5490541123691566" stroke="#000000"/>,<line style="pointer-events:none" x1="0.4718316358948403" y1="0.7970108341552365" x2="0.3120705107986876" y2="0.41368853970200936" stroke="#000000"/>,<line style="pointer-events:none" x1="0.3120705107986876" y1="0.41368853970200936" x2="0.06724608585383095" y2="0.767554366947018" stroke="#000000"/>,<line style="pointer-events:none" x1="0.06724608585383095" y1="0.767554366947018" x2="0.06661583075603893" y2="1.5362595274390245" stroke="#000000"/>,<line style="pointer-events:none" x1="0.4718316358948403" y1="0.7970108341552365" x2="0.048977961620815955" y2="0.3786175033746276" stroke="#000000"/>,<line style="pointer-events:none" x1="0.048977961620815955" y1="0.3786175033746276" x2="-0.5234657543855175" y2="0.6678876822915006" stroke="#000000"/>,<line style="pointer-events:none" x1="-0.5234657543855175" y1="0.6678876822915006" x2="-0.525068001363216" y2="1.3366699471600774" stroke="#000000"/>,<line style="pointer-events:none" x1="0.4718316358948403" y1="0.7970108341552365" x2="0.07138253429635211" y2="0.31904055754477445" stroke="#000000"/>,<line style="pointer-events:none" x1="0.07138253429635211" y1="0.31904055754477445" x2="-0.45690233194792984" y2="0.6067010064537646" stroke="#000000"/>,<line style="pointer-events:none" x1="-0.45690233194792984" y1="0.6067010064537646" x2="-0.45767666556076086" y2="1.213821622601241" stroke="#000000"/>,<line style="pointer-events:none" x1="0.4718316358948403" y1="0.7970108341552365" x2="0.3834161404838395" y2="0.38102266019782444" stroke="#000000"/>,<line style="pointer-events:none" x1="0.3834161404838395" y1="0.38102266019782444" x2="0.2967979391765482" y2="0.510842023763653" stroke="#000000"/>,<line style="pointer-events:none" x1="0.2967979391765482" y1="0.510842023763653" x2="0.2961007558593378" y2="1.0222860119400683" stroke="#000000"/>,<line style="pointer-events:none" x1="0.4718316358948403" y1="0.7970108341552365" x2="0.6312961172978253" y2="0.3091842672731452" stroke="#000000"/>,<line style="pointer-events:none" x1="0.6312961172978253" y1="0.3091842672731452" x2="0.8258482262017423" y2="0.4444247288345345" stroke="#000000"/>,<line style="pointer-events:none" x1="0.8258482262017423" y1="0.4444247288345345" x2="0.8257211815547391" y2="0.9745707288761802" stroke="#000000"/>,<line style="pointer-events:none" x1="0.4718316358948403" y1="0.7970108341552365" x2="0.802701833718761" y2="0.31105461037416576" stroke="#000000"/>,<line style="pointer-events:none" x1="0.802701833718761" y1="0.31105461037416576" x2="1.2152048649824658" y2="0.5736571898089964" stroke="#000000"/>,<line style="pointer-events:none" x1="1.2152048649824658" y1="0.5736571898089964" x2="1.215347757408858" y2="1.1474065139249388" stroke="#000000"/>,<line style="pointer-events:none" x1="0.4718316358948403" y1="0.7970108341552365" x2="0.957035680612517" y2="0.40541861595907613" stroke="#000000"/>,<line style="pointer-events:none" x1="0.957035680612517" y1="0.40541861595907613" x2="1.577777636301856" y2="0.6533597327403329" stroke="#000000"/>,<line style="pointer-events:none" x1="1.577777636301856" y1="0.6533597327403329" x2="1.5807549107074859" y2="1.308001556105053" stroke="#000000"/>,<circle  cx="0.47323209871994265" cy="0.8009474884691432" r="0.12" fill="#000000"/></svg>