<svg xmlns="http://www.w3.org/2000/svg" viewBox="-2 -2 4 4" style="width: 1024px; height: 1024px; background-color: rgb(238, 238, 238); user-select: none;" stroke-width="0.02">
            <g stroke-opacity="1" fill-opacity="1"><line x1="-3.808" y1="-10" x2="-3.808" y2="10" stroke-width="0.005" stroke="#DDD"/><line x1="-3.6176" y1="-10" x2="-3.6176" y2="10" stroke-width="0.005" stroke="#DDD"/><line x1="-3.4272" y1="-10" x2="-3.4272" y2="10" stroke-width="0.005" stroke="#DDD"/><line x1="-3.2368" y1="-10" x2="-3.2368" y2="10" stroke-width="0.005" stroke="#DDD"/><line x1="-3.0464" y1="-10" x2="-3.0464" y2="10" stroke-width="0.005" stroke="#DDD"/><line x1="-2.856" y1="-10" x2="-2.856" y2="10" stroke-width="0.005" stroke="#DDD"/><line x1="-2.6656" y1="-10" x2="-2.6656" y2="10" stroke-width="0.005" stroke="#DDD"/><line x1="-2.4752" y1="-10" x2="-2.4752" y2="10" stroke-width="0.005" stroke="#DDD"/><line x1="-2.2848" y1="-10" x2="-2.2848" y2="10" stroke-width="0.005" stroke="#DDD"/><line x1="-2.0944000000000003" y1="-10" x2="-2.0944000000000003" y2="10" stroke-width="0.005" stroke="#DDD"/><line x1="-1.904" y1="-10" x2="-1.904" y2="10" stroke-width="0.005" stroke="#DDD"/><line x1="-1.7136" y1="-10" x2="-1.7136" y2="10" stroke-width="0.005" stroke="#DDD"/><line x1="-1.5232" y1="-10" x2="-1.5232" y2="10" stroke-width="0.005" stroke="#DDD"/><line x1="-1.3328" y1="-10" x2="-1.3328" y2="10" stroke-width="0.005" stroke="#DDD"/><line x1="-1.1424" y1="-10" x2="-1.1424" y2="10" stroke-width="0.005" stroke="#DDD"/><line x1="-0.952" y1="-10" x2="-0.952" y2="10" stroke-width="0.005" stroke="#DDD"/><line x1="-0.7616" y1="-10" x2="-0.7616" y2="10" stroke-width="0.005" stroke="#DDD"/><line x1="-0.5712" y1="-10" x2="-0.5712" y2="10" stroke-width="0.005" stroke="#DDD"/><line x1="-0.3808" y1="-10" x2="-0.3808" y2="10" stroke-width="0.005" stroke="#DDD"/><line x1="-0.1904" y1="-10" x2="-0.1904" y2="10" stroke-width="0.005" stroke="#DDD"/><line x1="0" y1="-10" x2="0" y2="10" stroke-width="0.005" stroke="#DDD"/><line x1="0.1904" y1="-10" x2="0.1904" y2="10" stroke-width="0.005" stroke="#DDD"/><line x1="0.3808" y1="-10" x2="0.3808" y2="10" stroke-width="0.005" stroke="#DDD"/><line x1="0.5712" y1="-10" x2="0.5712" y2="10" stroke-width="0.005" stroke="#DDD"/><line x1="0.7616" y1="-10" x2="0.7616" y2="10" stroke-width="0.005" stroke="#DDD"/><line x1="0.952" y1="-10" x2="0.952" y2="10" stroke-width="0.005" stroke="#DDD"/><line x1="1.1424" y1="-10" x2="1.1424" y2="10" stroke-width="0.005" stroke="#DDD"/><line x1="1.3328" y1="-10" x2="1.3328" y2="10" stroke-width="0.005" stroke="#DDD"/><line x1="1.5232" y1="-10" x2="1.5232" y2="10" stroke-width="0.005" stroke="#DDD"/><line x1="1.7136" y1="-10" x2="1.7136" y2="10" stroke-width="0.005" stroke="#DDD"/><line x1="1.904" y1="-10" x2="1.904" y2="10" stroke-width="0.005" stroke="#DDD"/><line x1="2.0944000000000003" y1="-10" x2="2.0944000000000003" y2="10" stroke-width="0.005" stroke="#DDD"/><line x1="2.2848" y1="-10" x2="2.2848" y2="10" stroke-width="0.005" stroke="#DDD"/><line x1="2.4752" y1="-10" x2="2.4752" y2="10" stroke-width="0.005" stroke="#DDD"/><line x1="2.6656" y1="-10" x2="2.6656" y2="10" stroke-width="0.005" stroke="#DDD"/><line x1="2.856" y1="-10" x2="2.856" y2="10" stroke-width="0.005" stroke="#DDD"/><line x1="3.0464" y1="-10" x2="3.0464" y2="10" stroke-width="0.005" stroke="#DDD"/><line x1="3.2368" y1="-10" x2="3.2368" y2="10" stroke-width="0.005" stroke="#DDD"/><line x1="3.4272" y1="-10" x2="3.4272" y2="10" stroke-width="0.005" stroke="#DDD"/><line x1="3.6176" y1="-10" x2="3.6176" y2="10" stroke-width="0.005" stroke="#DDD"/><line x1="3.808" y1="-10" x2="3.808" y2="10" stroke-width="0.005" stroke="#DDD"/><line x1="-10" y1="-3.808" x2="10" y2="-3.808" stroke-width="0.005" stroke="#DDD"/><line x1="-10" y1="-3.6176" x2="10" y2="-3.6176" stroke-width="0.005" stroke="#DDD"/><line x1="-10" y1="-3.4272" x2="10" y2="-3.4272" stroke-width="0.005" stroke="#DDD"/><line x1="-10" y1="-3.2368" x2="10" y2="-3.2368" stroke-width="0.005" stroke="#DDD"/><line x1="-10" y1="-3.0464" x2="10" y2="-3.0464" stroke-width="0.005" stroke="#DDD"/><line x1="-10" y1="-2.856" x2="10" y2="-2.856" stroke-width="0.005" stroke="#DDD"/><line x1="-10" y1="-2.6656" x2="10" y2="-2.6656" stroke-width="0.005" stroke="#DDD"/><line x1="-10" y1="-2.4752" x2="10" y2="-2.4752" stroke-width="0.005" stroke="#DDD"/><line x1="-10" y1="-2.2848" x2="10" y2="-2.2848" stroke-width="0.005" stroke="#DDD"/><line x1="-10" y1="-2.0944000000000003" x2="10" y2="-2.0944000000000003" stroke-width="0.005" stroke="#DDD"/><line x1="-10" y1="-1.904" x2="10" y2="-1.904" stroke-width="0.005" stroke="#DDD"/><line x1="-10" y1="-1.7136" x2="10" y2="-1.7136" stroke-width="0.005" stroke="#DDD"/><line x1="-10" y1="-1.5232" x2="10" y2="-1.5232" stroke-width="0.005" stroke="#DDD"/><line x1="-10" y1="-1.3328" x2="10" y2="-1.3328" stroke-width="0.005" stroke="#DDD"/><line x1="-10" y1="-1.1424" x2="10" y2="-1.1424" stroke-width="0.005" stroke="#DDD"/><line x1="-10" y1="-0.952" x2="10" y2="-0.952" stroke-width="0.005" stroke="#DDD"/><line x1="-10" y1="-0.7616" x2="10" y2="-0.7616" stroke-width="0.005" stroke="#DDD"/><line x1="-10" y1="-0.5712" x2="10" y2="-0.5712" stroke-width="0.005" stroke="#DDD"/><line x1="-10" y1="-0.3808" x2="10" y2="-0.3808" stroke-width="0.005" stroke="#DDD"/><line x1="-10" y1="-0.1904" x2="10" y2="-0.1904" stroke-width="0.005" stroke="#DDD"/><line x1="-10" y1="0" x2="10" y2="0" stroke-width="0.005" stroke="#DDD"/><line x1="-10" y1="0.1904" x2="10" y2="0.1904" stroke-width="0.005" stroke="#DDD"/><line x1="-10" y1="0.3808" x2="10" y2="0.3808" stroke-width="0.005" stroke="#DDD"/><line x1="-10" y1="0.5712" x2="10" y2="0.5712" stroke-width="0.005" stroke="#DDD"/><line x1="-10" y1="0.7616" x2="10" y2="0.7616" stroke-width="0.005" stroke="#DDD"/><line x1="-10" y1="0.952" x2="10" y2="0.952" stroke-width="0.005" stroke="#DDD"/><line x1="-10" y1="1.1424" x2="10" y2="1.1424" stroke-width="0.005" stroke="#DDD"/><line x1="-10" y1="1.3328" x2="10" y2="1.3328" stroke-width="0.005" stroke="#DDD"/><line x1="-10" y1="1.5232" x2="10" y2="1.5232" stroke-width="0.005" stroke="#DDD"/><line x1="-10" y1="1.7136" x2="10" y2="1.7136" stroke-width="0.005" stroke="#DDD"/><line x1="-10" y1="1.904" x2="10" y2="1.904" stroke-width="0.005" stroke="#DDD"/><line x1="-10" y1="2.0944000000000003" x2="10" y2="2.0944000000000003" stroke-width="0.005" stroke="#DDD"/><line x1="-10" y1="2.2848" x2="10" y2="2.2848" stroke-width="0.005" stroke="#DDD"/><line x1="-10" y1="2.4752" x2="10" y2="2.4752" stroke-width="0.005" stroke="#DDD"/><line x1="-10" y1="2.6656" x2="10" y2="2.6656" stroke-width="0.005" stroke="#DDD"/><line x1="-10" y1="2.856" x2="10" y2="2.856" stroke-width="0.005" stroke="#DDD"/><line x1="-10" y1="3.0464" x2="10" y2="3.0464" stroke-width="0.005" stroke="#DDD"/><line x1="-10" y1="3.2368" x2="10" y2="3.2368" stroke-width="0.005" stroke="#DDD"/><line x1="-10" y1="3.4272" x2="10" y2="3.4272" stroke-width="0.005" stroke="#DDD"/><line x1="-10" y1="3.6176" x2="10" y2="3.6176" stroke-width="0.005" stroke="#DDD"/><line x1="-10" y1="3.808" x2="10" y2="3.808" stroke-width="0.005" stroke="#DDD"/><line x1="-9.52" y1="-10" x2="-9.52" y2="10" stroke-width="0.005" stroke="#AAA"/><line x1="-8.568" y1="-10" x2="-8.568" y2="10" stroke-width="0.005" stroke="#AAA"/><line x1="-7.616" y1="-10" x2="-7.616" y2="10" stroke-width="0.005" stroke="#AAA"/><line x1="-6.664" y1="-10" x2="-6.664" y2="10" stroke-width="0.005" stroke="#AAA"/><line x1="-5.712" y1="-10" x2="-5.712" y2="10" stroke-width="0.005" stroke="#AAA"/><line x1="-4.76" y1="-10" x2="-4.76" y2="10" stroke-width="0.005" stroke="#AAA"/><line x1="-3.808" y1="-10" x2="-3.808" y2="10" stroke-width="0.005" stroke="#AAA"/><line x1="-2.856" y1="-10" x2="-2.856" y2="10" stroke-width="0.005" stroke="#AAA"/><line x1="-1.904" y1="-10" x2="-1.904" y2="10" stroke-width="0.005" stroke="#AAA"/><line x1="-0.952" y1="-10" x2="-0.952" y2="10" stroke-width="0.005" stroke="#AAA"/><line x1="0" y1="-10" x2="0" y2="10" stroke-width="0.005" stroke="#AAA"/><line x1="0.952" y1="-10" x2="0.952" y2="10" stroke-width="0.005" stroke="#AAA"/><line x1="1.904" y1="-10" x2="1.904" y2="10" stroke-width="0.005" stroke="#AAA"/><line x1="2.856" y1="-10" x2="2.856" y2="10" stroke-width="0.005" stroke="#AAA"/><line x1="3.808" y1="-10" x2="3.808" y2="10" stroke-width="0.005" stroke="#AAA"/><line x1="4.76" y1="-10" x2="4.76" y2="10" stroke-width="0.005" stroke="#AAA"/><line x1="5.712" y1="-10" x2="5.712" y2="10" stroke-width="0.005" stroke="#AAA"/><line x1="6.664" y1="-10" x2="6.664" y2="10" stroke-width="0.005" stroke="#AAA"/><line x1="7.616" y1="-10" x2="7.616" y2="10" stroke-width="0.005" stroke="#AAA"/><line x1="8.568" y1="-10" x2="8.568" y2="10" stroke-width="0.005" stroke="#AAA"/><line x1="9.52" y1="-10" x2="9.52" y2="10" stroke-width="0.005" stroke="#AAA"/><line x1="-10" y1="-9.52" x2="10" y2="-9.52" stroke-width="0.005" stroke="#AAA"/><line x1="-10" y1="-8.568" x2="10" y2="-8.568" stroke-width="0.005" stroke="#AAA"/><line x1="-10" y1="-7.616" x2="10" y2="-7.616" stroke-width="0.005" stroke="#AAA"/><line x1="-10" y1="-6.664" x2="10" y2="-6.664" stroke-width="0.005" stroke="#AAA"/><line x1="-10" y1="-5.712" x2="10" y2="-5.712" stroke-width="0.005" stroke="#AAA"/><line x1="-10" y1="-4.76" x2="10" y2="-4.76" stroke-width="0.005" stroke="#AAA"/><line x1="-10" y1="-3.808" x2="10" y2="-3.808" stroke-width="0.005" stroke="#AAA"/><line x1="-10" y1="-2.856" x2="10" y2="-2.856" stroke-width="0.005" stroke="#AAA"/><line x1="-10" y1="-1.904" x2="10" y2="-1.904" stroke-width="0.005" stroke="#AAA"/><line x1="-10" y1="-0.952" x2="10" y2="-0.952" stroke-width="0.005" stroke="#AAA"/><line x1="-10" y1="0" x2="10" y2="0" stroke-width="0.005" stroke="#AAA"/><line x1="-10" y1="0.952" x2="10" y2="0.952" stroke-width="0.005" stroke="#AAA"/><line x1="-10" y1="1.904" x2="10" y2="1.904" stroke-width="0.005" stroke="#AAA"/><line x1="-10" y1="2.856" x2="10" y2="2.856" stroke-width="0.005" stroke="#AAA"/><line x1="-10" y1="3.808" x2="10" y2="3.808" stroke-width="0.005" stroke="#AAA"/><line x1="-10" y1="4.76" x2="10" y2="4.76" stroke-width="0.005" stroke="#AAA"/><line x1="-10" y1="5.712" x2="10" y2="5.712" stroke-width="0.005" stroke="#AAA"/><line x1="-10" y1="6.664" x2="10" y2="6.664" stroke-width="0.005" stroke="#AAA"/><line x1="-10" y1="7.616" x2="10" y2="7.616" stroke-width="0.005" stroke="#AAA"/><line x1="-10" y1="8.568" x2="10" y2="8.568" stroke-width="0.005" stroke="#AAA"/><line x1="-10" y1="9.52" x2="10" y2="9.52" stroke-width="0.005" stroke="#AAA"/><line x1="-47.599999999999994" y1="-10" x2="-47.599999999999994" y2="10" stroke-width="0.005" stroke="#444"/><line x1="-42.839999999999996" y1="-10" x2="-42.839999999999996" y2="10" stroke-width="0.005" stroke="#444"/><line x1="-38.08" y1="-10" x2="-38.08" y2="10" stroke-width="0.005" stroke="#444"/><line x1="-33.32" y1="-10" x2="-33.32" y2="10" stroke-width="0.005" stroke="#444"/><line x1="-28.56" y1="-10" x2="-28.56" y2="10" stroke-width="0.005" stroke="#444"/><line x1="-23.799999999999997" y1="-10" x2="-23.799999999999997" y2="10" stroke-width="0.005" stroke="#444"/><line x1="-19.04" y1="-10" x2="-19.04" y2="10" stroke-width="0.005" stroke="#444"/><line x1="-14.28" y1="-10" x2="-14.28" y2="10" stroke-width="0.005" stroke="#444"/><line x1="-9.52" y1="-10" x2="-9.52" y2="10" stroke-width="0.005" stroke="#444"/><line x1="-4.76" y1="-10" x2="-4.76" y2="10" stroke-width="0.005" stroke="#444"/><line x1="0" y1="-10" x2="0" y2="10" stroke-width="0.005" stroke="#444"/><line x1="4.76" y1="-10" x2="4.76" y2="10" stroke-width="0.005" stroke="#444"/><line x1="9.52" y1="-10" x2="9.52" y2="10" stroke-width="0.005" stroke="#444"/><line x1="14.28" y1="-10" x2="14.28" y2="10" stroke-width="0.005" stroke="#444"/><line x1="19.04" y1="-10" x2="19.04" y2="10" stroke-width="0.005" stroke="#444"/><line x1="23.799999999999997" y1="-10" x2="23.799999999999997" y2="10" stroke-width="0.005" stroke="#444"/><line x1="28.56" y1="-10" x2="28.56" y2="10" stroke-width="0.005" stroke="#444"/><line x1="33.32" y1="-10" x2="33.32" y2="10" stroke-width="0.005" stroke="#444"/><line x1="38.08" y1="-10" x2="38.08" y2="10" stroke-width="0.005" stroke="#444"/><line x1="42.839999999999996" y1="-10" x2="42.839999999999996" y2="10" stroke-width="0.005" stroke="#444"/><line x1="47.599999999999994" y1="-10" x2="47.599999999999994" y2="10" stroke-width="0.005" stroke="#444"/><line x1="-10" y1="-47.599999999999994" x2="10" y2="-47.599999999999994" stroke-width="0.005" stroke="#444"/><line x1="-10" y1="-42.839999999999996" x2="10" y2="-42.839999999999996" stroke-width="0.005" stroke="#444"/><line x1="-10" y1="-38.08" x2="10" y2="-38.08" stroke-width="0.005" stroke="#444"/><line x1="-10" y1="-33.32" x2="10" y2="-33.32" stroke-width="0.005" stroke="#444"/><line x1="-10" y1="-28.56" x2="10" y2="-28.56" stroke-width="0.005" stroke="#444"/><line x1="-10" y1="-23.799999999999997" x2="10" y2="-23.799999999999997" stroke-width="0.005" stroke="#444"/><line x1="-10" y1="-19.04" x2="10" y2="-19.04" stroke-width="0.005" stroke="#444"/><line x1="-10" y1="-14.28" x2="10" y2="-14.28" stroke-width="0.005" stroke="#444"/><line x1="-10" y1="-9.52" x2="10" y2="-9.52" stroke-width="0.005" stroke="#444"/><line x1="-10" y1="-4.76" x2="10" y2="-4.76" stroke-width="0.005" stroke="#444"/><line x1="-10" y1="0" x2="10" y2="0" stroke-width="0.005" stroke="#444"/><line x1="-10" y1="4.76" x2="10" y2="4.76" stroke-width="0.005" stroke="#444"/><line x1="-10" y1="9.52" x2="10" y2="9.52" stroke-width="0.005" stroke="#444"/><line x1="-10" y1="14.28" x2="10" y2="14.28" stroke-width="0.005" stroke="#444"/><line x1="-10" y1="19.04" x2="10" y2="19.04" stroke-width="0.005" stroke="#444"/><line x1="-10" y1="23.799999999999997" x2="10" y2="23.799999999999997" stroke-width="0.005" stroke="#444"/><line x1="-10" y1="28.56" x2="10" y2="28.56" stroke-width="0.005" stroke="#444"/><line x1="-10" y1="33.32" x2="10" y2="33.32" stroke-width="0.005" stroke="#444"/><line x1="-10" y1="38.08" x2="10" y2="38.08" stroke-width="0.005" stroke="#444"/><line x1="-10" y1="42.839999999999996" x2="10" y2="42.839999999999996" stroke-width="0.005" stroke="#444"/><line x1="-10" y1="47.599999999999994" x2="10" y2="47.599999999999994" stroke-width="0.005" stroke="#444"/><text text-anchor="middle" font-size="0.05" x="-3.808" y="0.06">-4.0</text><text text-anchor="middle" font-size="0.05" x="-3.6176" y="0.06">-3.8</text><text text-anchor="middle" font-size="0.05" x="-3.4272" y="0.06">-3.6</text><text text-anchor="middle" font-size="0.05" x="-3.2368" y="0.06">-3.4</text><text text-anchor="middle" font-size="0.05" x="-3.0464" y="0.06">-3.2</text><text text-anchor="middle" font-size="0.05" x="-2.856" y="0.06">-3.0</text><text text-anchor="middle" font-size="0.05" x="-2.6656" y="0.06">-2.8</text><text text-anchor="middle" font-size="0.05" x="-2.4752" y="0.06">-2.6</text><text text-anchor="middle" font-size="0.05" x="-2.2848" y="0.06">-2.4</text><text text-anchor="middle" font-size="0.05" x="-2.0944000000000003" y="0.06">-2.2</text><text text-anchor="middle" font-size="0.05" x="-1.904" y="0.06">-2.0</text><text text-anchor="middle" font-size="0.05" x="-1.7136" y="0.06">-1.8</text><text text-anchor="middle" font-size="0.05" x="-1.5232" y="0.06">-1.6</text><text text-anchor="middle" font-size="0.05" x="-1.3328" y="0.06">-1.4</text><text text-anchor="middle" font-size="0.05" x="-1.1424" y="0.06">-1.2</text><text text-anchor="middle" font-size="0.05" x="-0.952" y="0.06">-1.0</text><text text-anchor="middle" font-size="0.05" x="-0.7616" y="0.06">-0.8</text><text text-anchor="middle" font-size="0.05" x="-0.5712" y="0.06">-0.6</text><text text-anchor="middle" font-size="0.05" x="-0.3808" y="0.06">-0.4</text><text text-anchor="middle" font-size="0.05" x="-0.1904" y="0.06">-0.2</text><text text-anchor="middle" font-size="0.05" x="0.1904" y="0.06">0.2</text><text text-anchor="middle" font-size="0.05" x="0.3808" y="0.06">0.4</text><text text-anchor="middle" font-size="0.05" x="0.5712" y="0.06">0.6</text><text text-anchor="middle" font-size="0.05" x="0.7616" y="0.06">0.8</text><text text-anchor="middle" font-size="0.05" x="0.952" y="0.06">1.0</text><text text-anchor="middle" font-size="0.05" x="1.1424" y="0.06">1.2</text><text text-anchor="middle" font-size="0.05" x="1.3328" y="0.06">1.4</text><text text-anchor="middle" font-size="0.05" x="1.5232" y="0.06">1.6</text><text text-anchor="middle" font-size="0.05" x="1.7136" y="0.06">1.8</text><text text-anchor="middle" font-size="0.05" x="1.904" y="0.06">2.0</text><text text-anchor="middle" font-size="0.05" x="2.0944000000000003" y="0.06">2.2</text><text text-anchor="middle" font-size="0.05" x="2.2848" y="0.06">2.4</text><text text-anchor="middle" font-size="0.05" x="2.4752" y="0.06">2.6</text><text text-anchor="middle" font-size="0.05" x="2.6656" y="0.06">2.8</text><text text-anchor="middle" font-size="0.05" x="2.856" y="0.06">3.0</text><text text-anchor="middle" font-size="0.05" x="3.0464" y="0.06">3.2</text><text text-anchor="middle" font-size="0.05" x="3.2368" y="0.06">3.4</text><text text-anchor="middle" font-size="0.05" x="3.4272" y="0.06">3.6</text><text text-anchor="middle" font-size="0.05" x="3.6176" y="0.06">3.8</text><text text-anchor="middle" font-size="0.05" x="3.808" y="0.06">4.0</text><text text-anchor="end" font-size="0.05" y="-3.8179999999999996" x="-0.01">4.0</text><text text-anchor="end" font-size="0.05" y="-3.6275999999999997" x="-0.01">3.8</text><text text-anchor="end" font-size="0.05" y="-3.4372" x="-0.01">3.6</text><text text-anchor="end" font-size="0.05" y="-3.2468" x="-0.01">3.4</text><text text-anchor="end" font-size="0.05" y="-3.0564" x="-0.01">3.2</text><text text-anchor="end" font-size="0.05" y="-2.8659999999999997" x="-0.01">3.0</text><text text-anchor="end" font-size="0.05" y="-2.6755999999999998" x="-0.01">2.8</text><text text-anchor="end" font-size="0.05" y="-2.4852" x="-0.01">2.6</text><text text-anchor="end" font-size="0.05" y="-2.2948" x="-0.01">2.4</text><text text-anchor="end" font-size="0.05" y="-2.1044" x="-0.01">2.2</text><text text-anchor="end" font-size="0.05" y="-1.914" x="-0.01">2.0</text><text text-anchor="end" font-size="0.05" y="-1.7236" x="-0.01">1.8</text><text text-anchor="end" font-size="0.05" y="-1.5332000000000001" x="-0.01">1.6</text><text text-anchor="end" font-size="0.05" y="-1.3428" x="-0.01">1.4</text><text text-anchor="end" font-size="0.05" y="-1.1524" x="-0.01">1.2</text><text text-anchor="end" font-size="0.05" y="-0.962" x="-0.01">1.0</text><text text-anchor="end" font-size="0.05" y="-0.7716000000000001" x="-0.01">0.8</text><text text-anchor="end" font-size="0.05" y="-0.5812" x="-0.01">0.6</text><text text-anchor="end" font-size="0.05" y="-0.39080000000000004" x="-0.01">0.4</text><text text-anchor="end" font-size="0.05" y="-0.20040000000000002" x="-0.01">0.2</text><text text-anchor="end" font-size="0.05" y="-0.01" x="-0.01">0.0</text><text text-anchor="end" font-size="0.05" y="0.1804" x="-0.01">-0.2</text><text text-anchor="end" font-size="0.05" y="0.3708" x="-0.01">-0.4</text><text text-anchor="end" font-size="0.05" y="0.5612" x="-0.01">-0.6</text><text text-anchor="end" font-size="0.05" y="0.7516" x="-0.01">-0.8</text><text text-anchor="end" font-size="0.05" y="0.942" x="-0.01">-1.0</text><text text-anchor="end" font-size="0.05" y="1.1324" x="-0.01">-1.2</text><text text-anchor="end" font-size="0.05" y="1.3228" x="-0.01">-1.4</text><text text-anchor="end" font-size="0.05" y="1.5132" x="-0.01">-1.6</text><text text-anchor="end" font-size="0.05" y="1.7036" x="-0.01">-1.8</text><text text-anchor="end" font-size="0.05" y="1.894" x="-0.01">-2.0</text><text text-anchor="end" font-size="0.05" y="2.0844000000000005" x="-0.01">-2.2</text><text text-anchor="end" font-size="0.05" y="2.2748000000000004" x="-0.01">-2.4</text><text text-anchor="end" font-size="0.05" y="2.4652000000000003" x="-0.01">-2.6</text><text text-anchor="end" font-size="0.05" y="2.6556" x="-0.01">-2.8</text><text text-anchor="end" font-size="0.05" y="2.846" x="-0.01">-3.0</text><text text-anchor="end" font-size="0.05" y="3.0364000000000004" x="-0.01">-3.2</text><text text-anchor="end" font-size="0.05" y="3.2268000000000003" x="-0.01">-3.4</text><text text-anchor="end" font-size="0.05" y="3.4172000000000002" x="-0.01">-3.6</text><text text-anchor="end" font-size="0.05" y="3.6076" x="-0.01">-3.8</text><text text-anchor="end" font-size="0.05" y="3.798" x="-0.01">-4.0</text></g>
            <text x="-2" y="-1.85" font-family="Verdana" font-size="0.1" style="pointer-events:none" fill="#444" transform="rotate(0,0,0)"> Spider Workshop - Inverse Kinematics </text>,<circle  cx="0" cy="0" r="0.03" fill="#444"/>,<circle  cx="0.476" cy="0" r="0.03" fill="#444"/>,<circle  cx="0.952" cy="0" r="0.03" fill="#444"/>,<circle  cx="1.428" cy="0" r="0.03" fill="#444"/>,<line style="pointer-events:none" x1="0" y1="0" x2="0.476" y2="0" stroke="#444"/>,<line style="pointer-events:none" x1="0.476" y1="0" x2="0.952" y2="0" stroke="#444"/>,<line style="pointer-events:none" x1="0.952" y1="0" x2="1.428" y2="0" stroke="#444"/>,,<circle  cx="0" cy="0" r="0.03" fill="#ff0000"/>,<text x="-0.1" y="-0.05" font-family="Verdana" font-size="0.1" style="pointer-events:none" fill="#ff0000" transform="rotate(0,0,0)"> B </text>,<circle  cx="1.904" cy="0" r="0.03" fill="#ff0000"/>,<text x="1.8039999999999998" y="-0.05" font-family="Verdana" font-size="0.1" style="pointer-events:none" fill="#ff0000" transform="rotate(0,0,0)"> T </text></svg>