<?xml version="1.0" standalone="no"?>
<!DOCTYPE svg PUBLIC "-//W3C//DTD SVG 20010904//EN"
 "http://www.w3.org/TR/2001/REC-SVG-20010904/DTD/svg10.dtd">
<svg version="1.0" xmlns="http://www.w3.org/2000/svg"
 width="238.000000pt" height="256.000000pt" viewBox="0 0 238.000000 256.000000"
 preserveAspectRatio="xMidYMid meet">
<metadata>
Created by potrace 1.10, written by Peter Selinger 2001-2011
</metadata>
<g transform="translate(0.000000,256.000000) scale(0.100000,-0.100000)"
fill="#000000" stroke="none">
<path d="M1080 2491 c-141 -31 -259 -84 -378 -170 -38 -28 -76 -51 -84 -51
-39 0 -66 -96 -38 -140 13 -21 23 -5 11 18 -15 28 -14 77 2 89 16 13 48 13 67
0 12 -9 13 -9 3 3 -18 20 -16 25 13 39 26 12 44 8 44 -11 0 -7 -6 -6 -15 2
-11 9 -15 9 -15 1 0 -7 -4 -9 -10 -6 -5 3 -10 1 -10 -4 0 -6 4 -11 8 -11 4 0
16 -14 26 -31 19 -32 35 -34 18 -2 -7 13 -6 26 4 43 13 24 13 24 14 3 0 -16 5
-21 15 -17 12 5 12 10 3 27 -6 12 -18 27 -27 34 -13 10 -13 12 -2 13 8 0 22
-7 32 -16 10 -9 25 -14 34 -10 13 5 14 10 5 27 -10 18 -9 20 8 15 11 -4 24 0
32 9 16 20 5 32 -14 16 -8 -7 -20 -10 -26 -6 -10 6 -14 -7 -10 -34 1 -13 -1
-13 -14 -2 -9 8 -16 16 -16 20 0 11 57 41 64 34 3 -3 6 -1 6 7 0 10 3 10 15 0
12 -10 20 -9 39 4 14 9 32 13 42 9 14 -5 15 -3 4 17 -8 14 -8 20 -1 16 20 -13
52 -16 45 -4 -4 6 1 8 14 4 11 -4 23 -2 27 4 3 6 10 8 14 5 5 -2 22 2 38 10
16 8 40 16 54 19 13 2 23 9 22 15 -2 6 10 11 30 10 31 -1 31 -1 7 -10 -17 -6
-5 -7 41 -4 43 2 71 0 79 -8 10 -9 11 -9 5 2 -7 11 -2 13 26 7 19 -4 49 -10
67 -13 17 -3 32 -9 32 -13 0 -4 9 -10 21 -13 13 -4 19 -10 14 -19 -3 -7 1 -4
10 7 12 14 19 16 22 8 2 -7 20 -15 40 -19 19 -4 37 -13 40 -20 3 -8 11 -14 18
-14 17 0 27 -42 13 -51 -14 -9 -31 -1 -23 11 3 4 -3 14 -12 21 -15 12 -16 12
-8 -1 17 -27 14 -40 -10 -40 -13 0 -30 -3 -38 -6 -10 -4 -15 1 -14 13 2 13 -5
18 -20 17 -12 0 -20 3 -18 7 8 11 -19 28 -71 44 -59 18 -57 17 -49 5 8 -14 5
-13 -41 9 -39 19 -124 38 -124 28 0 -3 26 -14 58 -23 38 -12 50 -19 36 -21
-11 -2 -41 3 -65 12 -85 31 -99 34 -96 22 1 -7 16 -15 32 -18 24 -5 19 -7 -25
-9 l-55 -3 61 -8 c55 -7 144 -41 144 -54 0 -3 -17 2 -37 10 -44 19 -162 37
-177 27 -6 -3 -24 -5 -41 -4 -20 2 -26 0 -17 -6 9 -6 6 -12 -13 -20 -14 -7
-31 -12 -38 -12 -7 0 -25 -7 -41 -15 -16 -9 -31 -13 -34 -10 -4 4 50 31 98 48
9 3 4 6 -11 6 -40 1 -119 -57 -151 -112 -33 -57 -48 -127 -27 -127 21 0 89 59
89 77 0 14 -3 14 -20 -2 -28 -25 -25 -8 6 32 14 18 44 43 67 54 23 12 49 29
59 39 21 22 118 33 183 21 44 -9 119 -32 179 -57 19 -7 19 -7 0 18 -14 19 -26
25 -44 22 -19 -4 -22 -2 -10 6 38 25 80 -7 80 -62 0 -11 5 -15 15 -12 8 4 26
-6 42 -24 55 -58 93 -102 93 -106 0 -10 -34 2 -44 16 -10 13 -15 14 -29 3 -9
-7 -17 -17 -17 -24 0 -16 -37 -13 -44 4 -3 8 -10 15 -16 15 -6 0 -8 -5 -4 -11
5 -9 -1 -10 -20 -5 -14 3 -26 2 -26 -2 0 -5 19 -12 42 -15 24 -3 44 -11 46
-17 3 -9 7 -9 12 1 7 10 11 10 24 0 19 -16 11 -32 -11 -24 -15 6 -16 5 -3 -9
14 -16 16 -16 28 0 11 14 13 14 28 -4 14 -18 15 -18 9 6 -6 24 -5 24 10 5 13
-17 14 -20 0 -28 -8 -4 -19 -6 -24 -3 -5 4 -7 -4 -4 -16 4 -21 3 -21 -9 -6
-15 17 -41 19 -55 3 -4 -4 2 -5 15 -2 12 3 22 1 22 -3 0 -5 9 -12 20 -15 11
-4 21 -16 21 -28 1 -17 2 -18 6 -4 2 9 11 17 20 17 12 0 13 -3 4 -14 -13 -16
-5 -42 15 -50 9 -3 12 -10 9 -16 -10 -16 48 -81 67 -76 25 6 33 -13 15 -32
-12 -12 -19 -13 -30 -4 -8 7 -17 9 -21 5 -4 -4 -18 5 -32 20 -14 15 -28 27
-33 27 -4 0 -8 7 -8 15 0 19 6 19 29 -2 10 -9 18 -11 18 -5 0 6 -18 21 -40 33
-21 12 -41 29 -43 38 -3 14 -5 14 -12 -1 -12 -29 2 -50 27 -43 23 7 23 7 3 -8
-11 -9 -17 -19 -12 -23 4 -4 7 -2 7 4 0 7 4 12 8 12 5 0 9 -7 9 -15 0 -8 -4
-15 -8 -15 -5 0 -6 -7 -2 -16 6 -16 7 -16 18 -1 7 9 15 14 19 10 3 -3 -2 -16
-11 -27 -18 -21 -18 -21 3 -3 18 15 23 16 33 3 7 -8 25 -17 40 -21 16 -3 34
-16 40 -28 6 -12 10 -15 7 -6 -8 31 16 41 41 17 25 -23 44 -18 24 6 -7 8 -10
21 -6 28 4 7 0 6 -7 -3 -10 -12 -16 -13 -24 -5 -15 17 -24 56 -12 56 11 0 6
51 -14 144 -8 39 -12 46 -20 32 -6 -11 -6 -22 2 -31 7 -8 13 -29 15 -47 2 -18
6 -45 10 -60 5 -20 2 -29 -12 -36 -14 -8 -26 -4 -52 17 -28 23 -31 29 -18 39
12 10 17 10 23 1 4 -8 3 -9 -4 -5 -18 11 -14 0 5 -15 11 -10 14 -10 9 -1 -4 6
-2 12 3 12 10 0 15 -14 12 -32 0 -5 3 -8 8 -8 6 0 9 9 8 20 -1 11 -5 20 -9 20
-4 0 -5 7 -1 16 4 10 1 15 -8 14 -35 -5 -70 1 -64 10 4 6 1 17 -5 25 -8 10 -9
15 -2 15 6 0 16 -8 21 -17 6 -10 11 -13 11 -5 0 11 -45 44 -75 56 -6 2 -5 9 3
17 10 11 12 11 12 0 0 -11 3 -11 15 -1 23 19 -11 73 -42 67 -13 -2 -24 2 -28
10 -8 21 4 36 19 24 7 -6 22 -9 33 -7 26 5 58 -27 47 -46 -4 -7 -3 -10 1 -5 5
4 14 -5 21 -20 l12 -28 1 27 c1 15 -5 33 -13 40 -11 11 -11 17 1 38 15 25 15
25 -4 4 l-19 -21 -24 39 c-16 26 -26 34 -32 25 -5 -7 -8 0 -8 20 0 17 -4 35
-10 38 -6 4 -7 -1 -3 -12 7 -19 5 -18 -17 11 -10 13 -10 17 -2 12 6 -4 12 -3
12 2 0 11 -26 24 -52 27 -22 2 -24 4 -32 33 -7 22 7 31 19 12 3 -5 10 -10 16
-10 11 0 13 30 2 31 -5 0 -17 2 -28 5 -11 2 -48 8 -83 14 -60 9 -108 27 -100
36 3 2 19 -1 38 -6 23 -7 38 -6 47 1 9 8 30 4 80 -16 38 -15 74 -32 81 -38 10
-8 16 -7 24 4 8 12 9 12 5 -1 -3 -9 8 -29 24 -44 16 -16 29 -33 29 -38 0 -5 5
-6 12 -2 7 5 9 0 6 -14 -4 -15 -2 -19 8 -15 8 3 21 0 29 -7 8 -7 15 -9 15 -4
0 5 -16 22 -35 37 -20 16 -33 33 -29 38 3 5 0 8 -7 7 -6 -2 -13 2 -16 8 -2 7
6 11 21 10 13 0 22 -5 19 -11 -2 -5 2 -3 9 7 13 15 16 15 38 -2 14 -10 28 -16
32 -14 7 5 12 -9 10 -27 -1 -3 5 -6 13 -6 11 0 10 5 -2 24 -8 12 -19 21 -23
18 -4 -3 -11 2 -14 11 -9 22 -8 26 6 18 7 -4 8 -3 4 4 -4 7 -3 12 2 12 16 0
91 -133 93 -164 0 -6 11 -33 24 -60 24 -52 24 -86 -1 -66 -7 7 -10 18 -8 25 3
7 -1 29 -9 47 -9 18 -18 40 -20 48 -4 11 -6 11 -6 -3 -1 -10 6 -31 14 -47 9
-17 11 -30 6 -30 -5 0 -11 10 -14 22 -4 12 -9 19 -13 15 -4 -4 5 -25 20 -47
14 -22 26 -48 26 -59 0 -10 7 -24 15 -31 17 -14 21 0 4 17 -8 8 -8 13 0 18 6
3 13 0 15 -7 2 -7 9 -28 15 -46 5 -18 8 -39 5 -47 -4 -8 -1 -15 6 -15 6 0 8 5
4 12 -4 6 -3 8 4 5 5 -4 8 -16 5 -27 -3 -10 2 -26 10 -35 14 -14 17 -14 26 2
10 17 10 17 11 1 0 -10 -4 -18 -9 -18 -5 0 -8 -22 -7 -49 2 -27 0 -70 -4 -95
-4 -26 -3 -49 2 -52 4 -3 8 0 8 6 0 6 7 18 15 26 17 18 20 44 5 44 -7 0 -9 17
-6 45 4 28 2 45 -5 45 -6 0 -8 4 -4 10 10 17 30 0 32 -28 8 -114 9 -243 2
-227 -4 11 -8 29 -8 40 -1 13 -8 21 -21 22 -22 2 -27 -12 -7 -20 10 -4 10 -6
0 -6 -23 -2 -14 -39 13 -59 22 -15 28 -29 31 -70 2 -29 -1 -53 -7 -57 -5 -3
-10 -19 -10 -35 0 -16 -4 -32 -10 -35 -5 -3 -10 -14 -10 -24 0 -9 -6 -25 -13
-36 -11 -14 -16 -15 -22 -5 -5 8 -4 11 3 6 12 -7 17 8 27 74 4 25 14 53 23 63
14 15 14 17 -1 17 -12 0 -16 10 -15 41 0 22 -4 45 -10 51 -8 8 -10 -1 -6 -33
2 -24 7 -49 9 -56 2 -7 0 -15 -6 -19 -6 -3 -7 -19 -4 -35 5 -23 3 -29 -10 -29
-9 0 -13 5 -10 10 3 6 1 10 -4 10 -14 0 -14 -37 -1 -45 6 -3 10 -1 10 6 0 7 3
10 6 6 3 -3 -2 -21 -13 -39 -31 -56 -57 -64 -28 -9 9 18 13 37 9 43 -8 12 -36
-57 -36 -88 0 -15 -6 -21 -17 -19 -23 4 -53 -14 -45 -27 4 -7 3 -8 -4 -4 -7 4
-12 15 -13 24 0 14 -2 13 -8 -3 -5 -11 -13 -21 -20 -21 -6 -1 -19 -2 -28 -3
-21 -1 -15 -7 19 -15 19 -4 27 -2 30 8 3 13 6 13 22 0 19 -14 19 -14 -2 -14
-12 0 -22 -5 -22 -10 0 -6 -10 -8 -23 -5 -16 4 -28 0 -38 -11 -12 -15 -12 -17
0 -9 11 6 13 4 8 -9 -4 -10 -7 -22 -7 -28 0 -6 -7 -8 -15 -5 -8 4 -17 1 -21
-5 -4 -6 -3 -8 2 -5 6 3 16 2 22 -2 19 -12 -3 -65 -24 -57 -9 3 -20 6 -25 6
-5 0 -9 7 -9 16 0 12 3 14 13 6 8 -7 18 -8 27 -1 12 8 11 9 -5 7 -11 -2 -19 2
-18 9 1 6 -5 14 -13 17 -12 5 -15 2 -10 -10 4 -10 1 -14 -6 -12 -13 5 -14 9
-17 48 0 11 -4 19 -8 19 -22 -4 -33 2 -27 14 5 8 2 8 -9 -2 -21 -17 -22 -3 -1
27 8 12 13 26 10 31 -3 5 1 14 8 21 12 9 17 7 25 -9 16 -29 13 -35 -6 -20 -16
13 -17 12 -5 -3 8 -9 20 -14 28 -11 8 3 14 1 14 -4 0 -18 -13 -22 -32 -12 -16
9 -19 8 -16 -3 3 -7 11 -13 19 -13 8 0 15 -10 17 -22 6 -38 18 -26 17 16 0 21
-7 46 -14 55 -11 13 -11 16 2 16 10 0 13 6 10 20 -3 12 0 20 7 20 6 0 26 14
43 32 30 30 21 31 -13 2 -22 -18 -86 -28 -94 -15 -4 6 -3 11 2 11 5 0 9 10 8
23 -1 12 1 34 5 48 4 15 3 31 -3 37 -7 7 -4 19 7 38 14 24 14 25 1 10 -18 -23
-22 -5 -5 26 9 16 8 19 -2 13 -8 -6 -11 -4 -7 7 9 22 -5 39 -22 27 -12 -7 -12
-11 -2 -17 7 -5 13 -17 12 -28 -1 -37 -7 -149 -8 -167 -1 -11 -7 -16 -14 -11
-7 4 -3 -3 10 -15 27 -27 24 -47 -7 -44 -24 3 -29 -15 -6 -23 20 -8 19 -24 -1
-24 -10 0 -14 -6 -10 -15 3 -8 2 -15 -3 -15 -5 0 -12 15 -16 33 -5 23 -9 27
-12 14 -3 -10 -10 -16 -17 -14 -9 4 -13 -3 -11 -16 2 -32 -4 -38 -26 -27 -15
8 -19 8 -17 -2 2 -7 -5 -13 -16 -13 -13 0 -20 8 -22 28 -1 15 2 27 7 27 6 0 7
5 4 10 -3 6 -1 10 5 10 8 0 10 -9 5 -27 -5 -22 -4 -25 6 -16 6 6 18 9 25 6 10
-4 12 0 8 11 -3 9 -10 13 -15 10 -5 -3 -9 -2 -9 1 0 13 34 65 42 65 4 0 8 5 8
10 0 7 -6 7 -19 0 -32 -17 -36 -12 -11 14 21 23 21 26 6 41 -9 9 -16 23 -16
31 0 11 -6 13 -21 9 -20 -7 -20 -6 -4 27 13 26 13 29 1 14 -9 -10 -22 -16 -31
-13 -10 4 -15 1 -15 -11 0 -15 -2 -15 -10 -2 -6 9 -10 10 -10 3 0 -6 7 -19 16
-28 12 -11 13 -19 5 -29 -6 -7 -7 -17 -3 -22 4 -4 -1 -3 -10 5 -21 16 -43 3
-44 -26 0 -17 3 -20 12 -12 7 6 10 17 7 25 -3 8 0 14 6 14 18 0 13 -35 -9 -58
-12 -12 -30 -22 -40 -22 -11 0 -20 -4 -20 -10 0 -5 7 -10 15 -10 8 0 15 -4 15
-10 0 -5 -7 -7 -15 -4 -10 4 -15 0 -15 -12 -1 -18 -1 -18 -11 -1 -8 14 -14 16
-25 6 -22 -18 -17 -26 17 -31 20 -3 33 0 36 9 7 19 21 16 34 -8 16 -31 -3 -45
-34 -24 -24 15 -26 15 -35 -1 -5 -9 -7 -26 -4 -38 4 -21 4 -21 -12 -1 -10 11
-15 15 -12 8 4 -6 2 -14 -4 -18 -5 -3 -10 -12 -10 -18 0 -7 4 -6 10 3 8 13 10
13 10 -1 0 -17 -43 -34 -59 -25 -4 3 -6 -6 -3 -19 3 -16 0 -25 -8 -25 -7 0
-10 7 -6 15 3 8 1 15 -5 15 -6 0 -8 4 -4 9 3 5 0 13 -6 17 -8 4 -9 3 -5 -4 4
-7 1 -12 -8 -12 -9 0 -16 -5 -16 -11 0 -14 -24 11 -33 33 -4 12 -2 15 9 11 7
-3 14 0 14 6 0 6 7 11 15 11 8 0 15 7 15 17 0 15 -2 15 -18 0 -20 -19 -55 -5
-46 18 4 9 0 15 -10 15 -9 0 -16 4 -16 8 0 5 -7 17 -16 28 -15 19 -15 19 -11
-2 2 -12 -1 -32 -9 -45 -9 -17 -9 -28 -2 -36 7 -9 7 -13 -1 -13 -6 0 -12 5
-12 10 -3 20 -4 25 -12 38 -5 7 -2 14 7 18 21 8 11 23 -12 19 -17 -2 -18 -11
-7 -55 5 -19 4 -22 -4 -10 -10 13 -11 13 -11 0 -1 -12 -3 -11 -11 3 -7 13 -6
26 5 49 24 46 21 66 -4 43 -15 -13 -19 -15 -15 -4 3 8 -1 23 -9 34 -15 20 -15
20 -30 0 -15 -20 -15 -20 -16 3 0 15 6 22 19 22 22 0 61 44 61 70 0 9 -9 25
-20 35 -11 10 -20 13 -20 7 0 -6 5 -14 10 -17 15 -9 12 -19 -12 -44 -18 -21
-27 -23 -72 -17 -40 4 -58 2 -76 -11 -22 -15 -24 -15 -41 5 -9 12 -20 22 -24
22 -4 0 -2 -6 4 -13 6 -8 7 -17 3 -21 -4 -4 -1 -6 7 -4 22 5 25 -32 4 -47 -10
-8 -13 -15 -6 -15 6 0 14 4 17 9 13 20 84 49 110 44 33 -7 30 -21 -11 -43
l-31 -16 18 -36 18 -36 -25 -7 c-14 -3 -31 -1 -38 5 -7 6 -19 9 -26 8 -7 -2
-15 5 -17 15 -2 11 2 18 10 16 32 -4 46 3 50 25 3 14 1 31 -3 38 -9 14 -12 5
-10 -24 1 -9 -3 -19 -9 -23 -6 -3 -10 3 -10 15 0 12 -4 18 -11 15 -6 -4 -8
-14 -4 -23 3 -9 3 -13 -1 -9 -4 4 -13 2 -21 -4 -8 -8 -13 -8 -13 -1 0 6 6 13
13 16 6 2 2 4 -10 2 -23 -2 -70 -53 -59 -63 3 -4 6 -2 6 2 0 5 6 1 13 -9 13
-18 14 -18 14 0 0 11 -4 22 -9 25 -5 3 -1 12 8 20 16 12 17 12 11 -3 -3 -10
-2 -18 3 -18 5 0 7 -7 4 -15 -5 -11 -2 -14 12 -9 17 6 17 5 -1 -9 -14 -12 -16
-16 -6 -17 10 0 8 -7 -8 -24 -12 -13 -24 -32 -25 -42 -2 -11 -10 -19 -18 -19
-8 0 -25 -7 -39 -16 -39 -25 -57 -29 -63 -14 -7 18 7 27 31 19 15 -5 15 -4 -2
7 -11 6 -22 13 -24 15 -5 5 42 43 53 44 6 0 1 -7 -10 -15 -12 -9 -14 -14 -6
-15 7 0 10 -5 6 -12 -4 -7 -3 -8 5 -4 6 4 9 11 6 16 -3 5 -1 11 4 15 6 3 8 12
5 19 -7 18 25 29 43 15 10 -9 17 -9 25 -1 9 9 8 12 -5 12 -9 0 -17 4 -17 9 0
5 -9 12 -20 16 -14 5 -30 -4 -57 -30 -21 -21 -57 -50 -80 -67 -24 -16 -43 -33
-43 -39 0 -5 13 0 30 12 16 13 32 20 34 18 3 -3 -13 -16 -34 -29 -41 -25 -57
-50 -20 -30 19 10 20 10 8 -9 -6 -11 -17 -17 -23 -13 -5 3 -4 -2 4 -12 13 -15
12 -18 -7 -23 -12 -3 -22 -9 -22 -14 0 -5 8 -6 18 -2 14 5 13 3 -3 -10 -11 -8
-24 -13 -29 -9 -5 3 -7 -2 -3 -11 3 -9 -1 -18 -10 -21 -9 -4 -14 -9 -11 -11 3
-3 22 2 43 11 29 12 35 18 24 25 -10 6 -8 9 11 10 14 0 19 3 13 6 -20 7 -15
31 7 38 11 4 18 10 15 14 -2 5 3 15 13 24 19 17 54 17 60 -1 4 -12 -33 -26
-48 -17 -6 3 -7 -1 -4 -9 4 -11 0 -16 -15 -16 -12 0 -21 -4 -21 -10 0 -18 45
-10 58 10 7 12 16 19 20 16 5 -3 14 -1 22 4 11 7 11 11 1 24 -8 9 -9 16 -3 16
5 0 16 -10 24 -22 l15 -22 18 27 c10 15 15 31 11 34 -4 4 -9 -3 -13 -15 -6
-24 -18 -28 -28 -12 -11 18 17 42 42 35 14 -3 23 -1 23 6 0 6 11 20 25 31 14
11 25 25 25 31 0 7 -5 4 -11 -5 -5 -10 -17 -18 -26 -18 -13 0 -12 5 8 26 38
41 51 44 130 34 100 -12 136 -23 152 -44 6 -7 7 -4 3 7 -3 9 -1 17 3 17 12 0
22 -28 12 -32 -5 -2 -11 -14 -15 -28 -5 -17 -4 -21 2 -11 5 7 14 11 19 8 5 -3
15 -1 23 5 12 8 11 9 -4 4 -19 -7 -19 -6 -3 12 9 10 17 27 17 38 0 14 -2 16
-9 6 -11 -19 -24 32 -15 60 6 19 7 19 25 -8 14 -21 18 -39 15 -64 -4 -24 -3
-30 4 -20 7 12 12 8 21 -18 l11 -33 24 22 c20 19 24 20 24 6 0 -9 -6 -17 -12
-17 -18 0 -19 -46 -2 -78 8 -15 14 -20 14 -12 0 9 -5 21 -11 27 -16 16 -2 34
19 26 15 -6 15 -5 3 10 -8 10 -9 17 -3 17 21 0 25 -23 7 -37 -12 -8 -14 -13
-6 -13 9 0 11 -8 7 -24 -4 -15 -1 -26 7 -29 8 -3 5 -12 -12 -28 l-23 -24 7 23
c4 13 2 22 -4 22 -6 0 -14 12 -17 26 -6 22 -8 24 -16 10 -9 -17 -28 -13 -28 5
0 6 4 8 9 5 18 -11 20 25 3 59 -9 19 -20 35 -23 35 -11 0 -6 -35 8 -48 7 -7
13 -18 13 -23 0 -12 -43 -29 -50 -20 -9 11 -35 7 -36 -6 -4 -37 -4 -38 -14
-23 -8 13 -10 13 -10 -2 0 -11 -5 -15 -15 -12 -18 7 -20 -13 -5 -51 9 -24 30
-27 30 -4 0 6 -4 8 -9 5 -5 -4 -7 3 -4 14 6 23 21 35 31 25 3 -3 0 -10 -8 -15
-11 -7 -12 -10 -2 -10 7 0 10 -5 6 -12 -4 -7 -3 -8 4 -4 7 4 12 22 12 41 0 29
3 33 20 30 13 -2 18 0 14 7 -4 6 -1 9 6 6 7 -2 15 -15 17 -29 3 -13 6 -31 8
-39 2 -8 4 -18 4 -22 1 -5 6 -8 12 -8 5 0 7 5 4 10 -3 6 1 10 10 10 20 0 31
-28 17 -42 -8 -8 -15 -8 -26 1 -10 8 -16 9 -21 1 -3 -5 1 -10 9 -10 19 0 21
-11 5 -27 -8 -8 -6 -14 9 -22 23 -12 51 -5 70 18 10 14 11 11 6 -14 -11 -54
-15 -65 -24 -60 -4 3 -8 -9 -7 -27 2 -23 7 -33 20 -34 12 -1 13 -1 2 3 -17 5
-21 23 -4 23 5 0 8 4 5 9 -3 4 1 17 10 27 14 18 15 18 8 -6 -6 -23 -6 -23 11
-6 17 17 17 19 2 28 -9 5 -17 16 -17 24 0 14 2 14 16 0 8 -9 21 -16 27 -16 8
0 7 4 -2 9 -9 6 -11 15 -6 27 10 25 13 54 5 54 -4 0 -5 13 -2 29 2 16 -1 32
-8 36 -8 5 -8 10 0 20 8 10 5 18 -13 31 -23 19 -28 50 -12 86 9 23 40 24 31 2
-3 -9 -6 -18 -6 -20 0 -3 -5 -2 -12 2 -7 4 -8 3 -4 -4 4 -7 14 -12 22 -12 8 0
14 -4 14 -9 0 -5 -9 -7 -20 -4 -26 7 -25 -2 5 -34 l24 -27 -2 35 c-1 19 -6 40
-10 47 -5 7 -5 12 0 11 20 -3 25 2 13 16 -6 8 -9 19 -5 25 9 15 35 12 35 -5 0
-18 16 -20 26 -3 9 14 -25 40 -43 34 -7 -3 -13 -3 -13 0 0 10 28 34 40 34 6 0
8 5 5 10 -4 6 -11 8 -16 5 -5 -4 -9 -1 -9 4 0 6 9 11 19 11 21 0 54 -38 45
-52 -3 -4 -1 -8 4 -8 15 0 44 38 37 49 -7 12 4 14 48 11 15 -1 27 3 27 9 0 6
5 11 11 11 6 0 8 -7 5 -16 -5 -14 -4 -15 9 -4 9 7 15 8 15 2 0 -11 25 -10 36
1 15 15 25 6 19 -15 -4 -15 -3 -19 3 -10 7 10 11 10 22 -3 10 -13 9 -15 -8
-15 -11 0 -22 -6 -25 -12 -7 -21 1 -71 14 -79 9 -5 8 -11 -3 -23 -9 -8 -18
-13 -20 -11 -3 3 -4 -5 -4 -18 1 -12 5 -25 10 -28 11 -9 46 1 46 13 0 5 5 6
10 3 6 -3 10 -4 10 -1 0 3 -9 10 -20 16 -15 8 -18 8 -14 -3 3 -8 -2 -14 -11
-14 -19 0 -19 7 -1 33 16 23 15 66 -3 88 -9 10 -9 16 -1 21 6 4 12 5 13 4 1
-2 7 -14 14 -26 7 -12 10 -35 8 -52 -2 -18 0 -29 6 -26 5 4 9 -1 9 -9 0 -9 7
-16 15 -16 21 0 19 -16 -5 -33 -22 -16 -19 -42 7 -51 13 -5 14 -4 3 9 -11 13
-10 14 4 9 10 -4 16 -1 16 7 0 7 3 9 6 6 12 -11 43 13 38 28 -4 10 0 15 15 15
21 0 27 10 14 23 -3 4 -12 2 -20 -4 -9 -9 -13 -8 -13 0 0 11 5 13 33 15 33 3
68 70 37 71 -19 1 -41 -15 -35 -25 3 -5 -4 -11 -14 -15 -20 -6 -37 -39 -32
-63 1 -8 -6 -20 -16 -28 -22 -16 -33 -18 -33 -4 0 6 6 10 14 10 26 0 26 28 0
34 -14 4 -24 14 -24 24 0 14 2 15 10 2 8 -12 14 -10 41 15 31 30 89 112 89
127 0 4 -7 5 -15 2 -16 -6 -21 11 -7 20 13 8 52 -5 46 -15 -3 -5 2 -12 10 -15
9 -3 16 -10 16 -16 0 -5 -4 -6 -10 -3 -5 3 -10 2 -10 -3 0 -5 -9 -12 -20 -15
-27 -7 -26 -27 2 -22 29 6 40 18 43 49 2 19 0 23 -13 19 -14 -5 -14 -3 2 15
14 16 15 22 6 22 -10 0 -11 3 -4 10 6 6 19 8 28 4 14 -5 15 -9 4 -15 -9 -6
-10 -9 -1 -9 7 0 10 -7 6 -17 -4 -11 -3 -14 5 -9 7 4 12 3 12 -3 0 -5 3 -17 7
-27 5 -13 3 -16 -10 -11 -9 3 -17 2 -17 -3 0 -9 15 -14 33 -11 4 1 6 -16 3
-36 -4 -27 -3 -31 2 -13 7 22 9 23 15 7 4 -11 4 -24 0 -29 -3 -6 -1 -8 5 -4
17 10 24 -11 8 -26 -12 -12 -10 -16 14 -26 20 -9 27 -18 23 -31 -3 -12 5 -26
21 -38 23 -19 24 -21 9 -43 -8 -12 -15 -33 -15 -46 0 -13 -4 -21 -9 -19 -4 3
-13 -4 -19 -16 -8 -15 -9 -19 -1 -15 6 4 11 3 11 -3 0 -15 -18 -23 -25 -11 -8
13 -45 13 -45 0 0 -5 7 -7 15 -4 23 9 18 -17 -11 -59 -14 -21 -31 -36 -38 -34
-9 4 -13 -4 -12 -21 1 -23 -3 -27 -23 -24 -20 2 -22 0 -12 -12 7 -8 19 -12 27
-9 21 8 17 -6 -12 -44 -25 -33 -29 -35 -78 -30 -28 2 -91 12 -141 21 -109 19
-112 19 -112 3 0 -8 13 -13 33 -14 18 -1 39 -5 46 -9 7 -5 25 -7 41 -5 15 1
43 -3 61 -9 56 -18 89 -18 118 2 16 11 32 16 38 13 5 -3 18 -1 27 5 16 10 15
11 -4 7 -26 -6 -30 5 -8 23 10 9 15 9 15 1 0 -6 5 -11 11 -11 8 0 8 4 -1 15
-12 15 -5 39 10 30 13 -8 20 9 10 25 -8 13 -12 12 -24 -5 -23 -30 -19 -7 5 31
24 39 34 44 26 13 -9 -33 1 -18 67 103 59 107 75 126 85 97 2 -8 -1 -9 -10 -3
-12 7 -12 5 0 -9 7 -9 22 -17 32 -17 11 0 19 -5 19 -11 0 -6 6 -9 14 -6 8 3
19 -5 26 -18 7 -14 17 -22 22 -19 5 3 16 -2 23 -12 9 -11 14 -14 15 -6 0 6 5
12 11 12 5 0 8 -4 5 -9 -4 -5 12 -12 34 -16 42 -7 49 -25 15 -37 -12 -5 -7 -6
14 -3 18 3 45 5 60 5 l26 0 -30 16 c-136 72 -166 85 -177 78 -7 -4 -10 -4 -6
0 3 4 -21 27 -55 50 -73 50 -103 96 -157 238 -21 56 -48 113 -60 125 -19 19
-20 26 -10 39 7 8 19 13 27 10 7 -3 13 -1 13 4 0 5 7 7 16 3 11 -4 15 -1 12
13 -2 13 2 18 13 16 18 -3 64 61 84 117 16 45 19 286 5 394 -5 41 -16 90 -24
108 -9 19 -27 66 -42 104 -46 124 -144 310 -189 361 -111 128 -369 192 -585
145z m-164 -196 c-27 -13 -54 -32 -60 -42 -5 -10 -16 -24 -23 -31 -7 -7 -13
-20 -13 -28 0 -9 -7 -22 -15 -30 -12 -12 -15 -12 -15 -2 1 36 69 146 83 132 3
-3 18 1 34 10 15 8 35 15 43 15 8 0 -7 -11 -34 -24z m923 -338 c13 -32 21 -61
18 -64 -3 -3 -9 6 -13 21 -3 14 -10 26 -15 26 -5 0 -9 8 -9 18 0 10 -3 22 -7
26 -4 3 -8 16 -10 29 -5 33 10 9 36 -56z m-515 -581 c-4 -10 2 -16 18 -18 17
-2 23 -10 25 -30 1 -15 -3 -31 -9 -34 -8 -5 -9 3 -5 25 4 20 3 30 -3 26 -13
-8 -10 -84 4 -82 16 3 13 -26 -3 -31 -9 -3 -11 0 -7 9 4 8 -2 3 -13 -10 -12
-13 -21 -30 -21 -38 0 -8 -5 -11 -10 -8 -6 3 -13 -1 -16 -9 -9 -23 -19 -20
-32 9 -10 22 -9 29 8 47 15 16 20 18 20 7 0 -8 -5 -20 -11 -26 -8 -8 -8 -13 0
-17 13 -8 34 41 27 61 -3 8 -1 11 4 8 6 -3 10 -1 10 4 0 6 -5 11 -11 11 -5 0
-7 5 -4 10 4 6 11 7 17 4 7 -5 9 0 6 14 -4 12 -2 25 4 28 5 4 3 13 -6 23 -9
10 -13 21 -9 24 12 12 23 7 17 -7z m-531 -175 c2 -10 0 -25 -4 -34 -6 -10 -5
-18 1 -22 5 -3 10 2 10 12 0 15 2 16 10 3 8 -11 9 -7 4 15 -4 23 -3 26 5 15 9
-13 11 -12 11 5 1 15 5 11 15 -13 9 -20 11 -41 6 -54 -7 -18 -9 -19 -14 -5 -4
10 -12 17 -19 17 -9 0 -9 -3 2 -10 8 -5 12 -11 9 -14 -7 -8 -76 45 -84 63 -6
16 12 41 30 41 7 0 15 -8 18 -19z m489 -81 c-15 -24 -21 -27 -25 -16 -4 9 -2
16 3 16 6 0 10 6 10 13 0 17 24 41 28 28 2 -5 -6 -23 -16 -41z m236 -3 c5 -24
-15 -21 -28 4 -10 18 -9 20 7 17 10 -2 19 -11 21 -21z m22 -48 c4 -8 12 -25
19 -37 15 -28 12 -31 -24 -38 -23 -4 -26 -3 -17 9 7 8 8 18 4 23 -4 4 1 3 10
-4 14 -11 16 -10 11 7 -3 11 -13 23 -24 26 -11 4 -16 12 -12 21 6 17 24 14 33
-7z m-416 -171 c-3 -4 -2 -14 3 -20 12 -21 15 -58 3 -58 -5 0 -10 -7 -10 -16
0 -8 -4 -13 -10 -9 -6 3 -6 15 0 29 10 27 4 37 -17 29 -11 -4 -12 -8 -2 -13 7
-5 9 -15 4 -26 -5 -11 -7 -24 -6 -31 1 -7 -8 -17 -19 -23 -13 -7 -20 -7 -21 0
-5 29 -3 35 11 35 10 0 14 8 12 27 -2 18 4 31 18 41 12 8 21 23 20 34 -4 30 0
39 9 23 6 -8 7 -18 5 -22z"/>
<path d="M1023 2309 c-18 -5 -33 -16 -33 -24 0 -8 -19 -25 -43 -39 -47 -28
-90 -86 -63 -86 9 0 16 5 16 11 0 5 5 7 10 4 6 -3 10 -1 10 4 0 6 8 11 18 11
20 0 96 59 87 68 -3 3 -21 -10 -40 -28 -19 -19 -35 -29 -35 -24 0 20 87 85
112 83 7 0 2 -5 -11 -10 -13 -5 -21 -12 -18 -15 3 -3 16 0 29 7 12 7 27 12 32
11 5 -2 13 3 17 10 4 7 11 9 15 6 3 -4 -9 -16 -27 -27 -45 -27 -62 -42 -54
-49 4 -4 12 0 19 9 6 10 30 25 51 35 22 10 43 20 48 22 4 2 7 -1 7 -6 0 -12
-56 -42 -77 -42 -8 0 -11 -4 -8 -10 4 -6 18 -4 38 7 39 20 100 26 94 10 -2 -7
-13 -13 -25 -15 -30 -5 -28 -22 3 -22 17 0 28 7 34 23 5 12 7 24 6 27 -2 3 12
4 31 2 33 -4 49 -22 20 -22 -8 0 -17 -4 -20 -8 -2 -4 12 -8 31 -7 53 0 52 -21
-1 -29 -25 -4 -48 -12 -52 -18 -4 -7 1 -7 17 -2 40 15 129 11 139 -6 5 -8 6
-18 4 -22 -9 -15 13 -8 35 11 20 17 20 19 4 32 -11 10 -14 10 -9 2 4 -7 4 -18
0 -24 -10 -17 -23 10 -18 38 2 12 1 23 -4 23 -16 0 -22 -13 -11 -27 7 -8 8
-13 1 -13 -5 0 -15 7 -22 15 -7 8 -17 12 -23 8 -6 -3 -7 -1 -3 6 4 6 12 8 18
5 7 -4 8 -2 4 5 -9 13 -68 46 -78 43 -5 -1 -8 3 -8 9 0 5 -4 7 -10 4 -13 -8
-80 5 -80 15 0 5 14 4 32 -1 45 -12 47 -4 2 11 -29 10 -38 10 -44 0 -4 -7 -12
-10 -18 -6 -19 11 -116 14 -149 5z"/>
<path d="M1446 2303 c-12 -12 -6 -25 10 -19 8 3 12 2 9 -3 -3 -5 9 -24 26 -43
17 -18 37 -45 45 -60 8 -16 20 -28 27 -28 8 0 8 3 -2 9 -7 5 -10 14 -7 20 11
18 23 13 30 -11 5 -18 8 -20 15 -10 5 9 6 -13 4 -52 -4 -57 -3 -66 12 -66 12
0 15 5 10 18 -15 34 -17 62 -6 62 6 0 10 -3 9 -7 -2 -5 5 -35 14 -68 27 -98
46 -205 35 -205 -16 0 12 -27 33 -33 28 -7 25 9 -2 18 -14 4 -18 8 -10 12 6 2
12 21 11 41 0 29 -2 32 -8 17 -8 -19 -8 -19 -16 4 -5 16 -3 26 6 32 11 7 9 9
-6 10 -11 0 -14 3 -7 6 19 7 15 38 -16 111 -16 37 -32 78 -35 92 -6 24 -29 39
-85 55 -16 5 -22 12 -17 22 7 19 -23 55 -38 46 -6 -3 -7 -1 -3 5 7 12 -27 35
-38 25z"/>
<path d="M600 2236 c0 -13 62 -137 67 -133 2 3 -3 19 -12 36 -9 18 -13 36 -10
41 3 6 1 10 -5 10 -6 0 -8 5 -4 12 8 12 44 -25 44 -45 0 -6 -7 -2 -15 9 -8 10
-15 13 -15 7 0 -7 9 -18 20 -25 11 -7 20 -20 20 -30 0 -9 6 -15 14 -14 22 3
46 27 45 45 -1 14 -2 14 -6 -1 -8 -33 -33 -29 -49 7 -18 44 -18 58 1 25 8 -15
14 -19 14 -10 1 20 -15 43 -31 46 -39 8 -59 13 -68 19 -6 3 -10 4 -10 1z"/>
<path d="M1634 2216 c-3 -8 0 -25 7 -38 7 -13 13 -27 14 -33 0 -17 25 -55 35
-55 5 0 2 16 -6 35 -8 20 -12 40 -9 46 4 5 1 8 -7 7 -7 -2 -12 5 -12 14 1 10
-3 15 -9 11 -6 -4 -8 0 -4 10 3 10 4 17 1 17 -2 0 -7 -6 -10 -14z"/>
<path d="M1290 2163 c0 -5 22 -8 49 -8 27 0 44 3 38 7 -16 10 -87 10 -87 1z"/>
<path d="M1690 2073 c1 -5 7 -19 14 -32 8 -14 11 -32 8 -40 -4 -10 -1 -12 8
-6 10 6 12 3 8 -13 -4 -13 -1 -22 5 -22 7 0 5 -5 -3 -10 -13 -8 -12 -10 3 -10
16 0 17 5 12 33 -11 48 -36 107 -46 107 -5 0 -9 -3 -9 -7z"/>
<path d="M1551 2033 c4 -22 -2 -33 -13 -27 -7 4 2 -7 20 -24 19 -17 31 -36 27
-42 -3 -5 3 -10 14 -10 12 0 21 5 21 10 0 6 -6 10 -14 10 -8 0 -17 11 -20 25
-4 14 -11 25 -17 25 -6 0 -8 9 -4 20 4 11 2 20 -4 20 -6 0 -10 -3 -10 -7z"/>
<path d="M1365 2020 c3 -5 -2 -10 -12 -10 -28 -1 46 -36 90 -43 l39 -6 -23 20
c-14 12 -26 16 -32 10 -14 -14 -57 8 -50 25 3 8 0 14 -7 14 -6 0 -8 -4 -5 -10z"/>
<path d="M526 1948 c-3 -13 -6 -43 -6 -68 0 -25 -8 -75 -19 -110 -17 -60 -17
-69 -3 -103 11 -29 22 -39 44 -44 26 -5 29 -9 25 -33 -11 -51 1 -70 43 -70 33
0 70 22 70 42 0 10 -39 -4 -51 -18 -15 -19 -45 -18 -53 2 -10 26 -7 36 9 30
21 -8 45 3 45 21 0 15 8 15 55 -2 14 -5 10 2 -13 24 -18 17 -42 31 -53 31 -11
0 -18 4 -15 9 3 5 -6 12 -20 15 -15 4 -33 14 -41 22 -8 8 -19 11 -25 8 -6 -4
-5 -10 3 -15 11 -7 11 -9 1 -9 -21 0 -25 27 -12 73 11 37 31 208 25 215 -1 1
-5 -8 -9 -20z m64 -307 c21 -9 18 -10 -20 -5 -50 7 -60 11 -60 24 0 9 36 0 80
-19z"/>
<path d="M1353 1953 c15 -4 21 -15 19 -34 -1 -4 8 -5 18 -2 11 3 20 9 20 14 0
5 8 6 18 2 11 -4 14 -3 7 4 -5 6 -30 13 -55 16 -25 3 -37 3 -27 0z"/>
<path d="M1406 1901 c-4 -6 -14 -8 -24 -5 -14 5 -13 3 3 -10 11 -9 25 -14 33
-11 7 3 10 0 7 -6 -4 -6 -14 -8 -22 -5 -8 3 -11 1 -8 -4 9 -14 -8 -12 -25 3
-12 10 -12 9 -1 -5 7 -10 10 -18 6 -18 -4 0 -1 -8 6 -17 12 -15 12 -16 -6 -9
-16 6 -15 2 8 -21 15 -16 27 -35 27 -42 0 -8 6 -11 16 -7 13 5 15 2 11 -13 -3
-14 -1 -18 9 -14 8 3 11 10 7 17 -3 6 -2 7 3 3 5 -5 9 -14 9 -20 0 -7 8 -11
18 -11 9 1 14 -2 11 -7 -3 -5 4 -9 15 -9 12 0 21 5 21 10 0 6 13 10 28 10 20
0 33 -7 41 -24 9 -15 19 -22 31 -19 28 8 34 -16 8 -37 -13 -11 -19 -19 -15
-20 5 0 1 -7 -7 -16 -9 -8 -16 -25 -16 -36 0 -16 -3 -18 -14 -9 -18 15 -26 57
-12 71 7 7 6 14 -4 23 -19 17 -73 40 -66 28 14 -23 -21 -16 -41 8 -11 14 -24
23 -28 19 -4 -4 5 -18 19 -32 27 -24 22 -42 -7 -30 -18 6 -43 -31 -28 -41 13
-7 24 12 16 28 -4 6 0 4 8 -5 15 -19 33 -25 22 -9 -11 18 17 23 33 7 16 -16
16 -17 -3 -10 -20 7 -20 7 -1 -14 22 -26 28 -28 20 -7 -4 10 0 15 15 15 12 0
21 -4 21 -10 0 -5 -6 -10 -12 -10 -7 0 -2 -7 11 -16 20 -14 22 -22 17 -61 -3
-25 -13 -54 -22 -64 -22 -24 -9 -41 24 -32 35 8 41 19 35 61 -5 30 -4 34 11
29 14 -6 15 -3 6 13 -9 17 -8 20 9 20 21 0 31 -18 31 -61 0 -31 16 -40 22 -11
7 32 -11 86 -34 104 -15 12 -19 20 -12 25 6 5 16 18 23 31 6 12 19 22 29 22
15 0 15 -2 2 -11 -13 -9 -13 -10 0 -6 8 2 14 11 12 21 -4 22 14 20 45 -4 14
-11 20 -20 13 -20 -7 0 -11 -3 -7 -6 14 -14 27 7 16 27 -13 25 -48 39 -74 29
-11 -3 -31 -1 -45 6 l-24 13 24 9 c58 21 75 21 101 -2 15 -13 31 -38 38 -57
11 -36 9 -144 -4 -144 -11 0 -54 -89 -47 -99 3 -5 1 -6 -5 -3 -10 6 -73 -54
-90 -86 -11 -22 -5 -79 9 -71 5 3 6 14 3 24 -3 10 -1 22 6 26 8 5 10 -2 7 -25
-5 -34 5 -42 18 -13 9 19 11 29 13 55 0 10 6 15 11 12 6 -3 10 1 10 10 0 9 4
14 9 11 5 -3 11 1 14 9 4 10 1 12 -11 8 -9 -3 -4 4 11 15 16 11 29 23 29 28 0
5 6 20 14 34 14 24 14 24 9 -15 -3 -22 -2 -34 1 -27 3 6 12 12 20 12 8 0 14 9
13 23 -1 16 -2 18 -6 5 -2 -10 -8 -18 -13 -18 -4 0 -6 9 -3 20 3 11 12 20 19
20 8 0 14 4 14 10 0 5 -7 7 -15 4 -10 -4 -15 0 -15 15 0 14 5 19 15 15 20 -8
19 13 -1 61 -8 20 -13 40 -10 42 3 3 1 14 -4 24 -6 9 -12 35 -15 56 -3 21 -8
43 -10 50 -2 6 3 14 10 17 15 5 11 54 -6 86 -9 17 -15 -37 -11 -105 2 -31 0
-37 -9 -28 -6 6 -12 26 -13 42 -1 29 -15 45 -17 19 0 -7 -5 -4 -10 7 -8 17 -9
16 -4 -6 6 -32 -15 -44 -42 -24 -25 20 -32 18 -26 -6 5 -19 3 -21 -20 -17 -16
3 -27 1 -27 -6 0 -7 -4 -6 -9 2 -4 8 -24 12 -47 11 -36 -2 -111 30 -99 43 3 2
-11 11 -30 18 -20 8 -34 19 -31 26 2 6 0 16 -5 21 -7 7 -5 12 4 16 10 4 14 -1
13 -16 -2 -21 10 -37 27 -37 5 0 5 5 1 12 -4 7 -3 8 5 4 6 -4 8 -12 5 -18 -4
-6 -2 -8 4 -4 6 3 13 2 17 -4 10 -16 25 -12 19 5 -4 8 -11 12 -17 8 -6 -4 -8
0 -4 10 4 11 1 17 -9 17 -8 0 -12 4 -9 10 3 6 -1 7 -9 4 -17 -7 -23 20 -7 30
12 8 7 39 -6 43 -6 2 -14 0 -17 -6z m162 -269 c6 -20 -38 -25 -59 -6 -19 17
-19 19 -2 25 21 7 55 -3 61 -19z"/>
<path d="M1561 1751 c-7 -4 -24 -6 -39 -3 -15 3 -24 2 -20 -2 5 -7 108 -15
108 -9 0 9 -38 20 -49 14z"/>
<path d="M964 1728 c-3 -4 -28 -5 -57 -3 -33 2 -45 1 -32 -5 20 -8 20 -8 0
-15 -11 -5 -28 -15 -39 -24 -10 -9 -21 -15 -25 -13 -3 2 -10 -5 -16 -15 -14
-26 -27 -33 -49 -27 -16 5 -17 4 -5 -9 9 -10 18 -12 25 -6 8 6 13 2 17 -12 5
-18 11 -20 34 -15 18 4 23 3 15 -2 -11 -8 -11 -10 2 -15 11 -4 16 -1 17 11 0
20 74 82 98 82 31 0 105 -27 109 -39 3 -10 -1 -10 -14 -3 -11 5 -43 13 -72 17
-48 6 -55 5 -78 -18 -15 -15 -21 -28 -14 -32 14 -9 30 3 30 22 0 9 3 13 7 10
3 -4 12 -2 20 4 9 8 13 8 13 1 0 -6 -5 -14 -10 -17 -15 -9 -2 -25 21 -25 11 0
23 8 27 19 5 14 12 17 30 10 12 -5 22 -13 22 -19 0 -6 11 -8 28 -4 37 9 39 12
16 29 -10 8 -14 15 -8 15 6 0 14 -3 18 -7 4 -4 15 -8 24 -8 9 0 16 -6 14 -13
-2 -9 6 -8 29 4 17 8 40 14 50 11 11 -3 19 -1 19 4 0 5 -4 9 -9 9 -5 0 -6 12
-2 28 6 22 3 31 -18 49 -29 26 -42 22 -18 -5 20 -22 24 -53 5 -34 -14 14 -48
16 -48 3 0 -5 -9 -7 -20 -4 -12 3 -20 0 -20 -8 0 -7 3 -9 7 -6 3 4 12 2 19 -4
10 -9 15 -7 20 5 8 20 34 21 34 1 0 -8 5 -15 12 -15 6 0 8 -3 4 -7 -4 -5 -14
1 -23 12 -15 20 -15 20 -8 -2 4 -16 2 -23 -8 -23 -16 0 -103 27 -134 42 -34
17 -125 5 -161 -21 -28 -19 -31 -20 -25 -4 6 17 5 17 -15 -1 -12 -11 -22 -14
-22 -9 0 14 29 37 37 29 4 -3 16 3 28 14 12 12 26 20 31 19 5 -1 18 -1 29 1
20 1 20 1 0 10 -19 8 -18 9 4 9 13 1 30 -7 37 -16 13 -17 14 -17 7 1 -5 17 -3
18 18 12 13 -4 31 -8 39 -10 18 -4 52 23 44 36 -3 5 -15 1 -27 -9 -15 -14 -19
-14 -15 -3 4 11 -3 15 -29 15 -19 0 -37 -3 -39 -7z"/>
<path d="M1130 1733 c0 -5 5 -14 12 -21 15 -15 -5 -17 -32 -2 -13 7 -21 6 -30
-5 -10 -12 -7 -15 13 -20 52 -14 86 16 52 45 -8 7 -15 8 -15 3z"/>
<path d="M1805 1730 c-5 -9 18 -117 28 -127 3 -2 8 0 12 6 3 6 2 11 -2 11 -5
0 -10 10 -11 23 -4 39 -8 56 -14 63 -4 3 -4 12 -1 20 6 16 -3 19 -12 4z"/>
<path d="M1432 1580 c-16 -26 -15 -40 3 -40 8 0 15 -5 15 -12 0 -9 3 -9 13 0
16 17 17 64 1 58 -7 -3 -14 -1 -16 5 -2 5 -9 0 -16 -11z"/>
<path d="M1746 1592 c-3 -5 -8 -28 -12 -50 -9 -60 10 -52 22 8 9 45 4 65 -10
42z"/>
<path d="M1063 1554 c0 -13 3 -24 8 -24 5 0 9 7 9 15 0 7 7 18 17 23 13 8 11
10 -9 10 -20 0 -25 -6 -25 -24z"/>
<path d="M1017 1538 c-2 -9 -21 -12 -53 -11 -37 1 -45 -1 -31 -8 9 -6 38 -9
64 -7 36 2 49 7 51 21 4 20 -24 24 -31 5z"/>
<path d="M1420 1520 c-7 -4 -9 -13 -6 -19 4 -6 3 -11 -2 -11 -5 0 -9 -6 -9
-12 -2 -33 -11 -76 -16 -86 -4 -5 0 -12 7 -15 17 -7 32 45 20 65 -6 10 -5 11
8 1 8 -7 19 -9 23 -5 5 4 4 -2 0 -13 -15 -36 -14 -95 1 -95 8 0 17 0 21 -1 4
0 9 4 11 10 2 6 -4 11 -13 11 -14 0 -15 3 -5 15 10 12 9 15 -6 15 -11 0 -15 4
-9 8 17 12 47 72 36 72 -5 0 -12 -8 -14 -17 -4 -16 -5 -16 -6 1 -1 12 -6 16
-17 12 -8 -3 -13 -2 -9 3 3 5 -1 12 -7 14 -10 4 -10 6 -1 6 7 1 10 8 7 16 -4
8 -1 15 4 15 6 0 12 -10 14 -22 3 -19 5 -19 16 -6 10 13 8 18 -11 31 -14 9
-29 12 -37 7z"/>
<path d="M1617 1430 c3 -30 6 -61 6 -67 1 -20 17 -15 18 5 2 28 -2 47 -12 50
-5 2 -7 7 -4 12 3 4 1 19 -4 32 -7 17 -8 8 -4 -32z"/>
<path d="M560 1296 c0 -14 -4 -28 -10 -31 -5 -3 -10 -1 -10 5 0 6 -4 8 -10 5
-5 -3 -10 -11 -10 -16 0 -6 4 -7 10 -4 5 3 15 -6 22 -21 11 -24 10 -28 -12
-46 -19 -16 -21 -21 -10 -28 10 -6 23 1 43 23 15 17 23 33 17 35 -5 2 -10 26
-10 53 0 27 -4 49 -10 49 -5 0 -10 -11 -10 -24z"/>
<path d="M1427 1312 c-15 -3 -16 -6 -6 -18 10 -12 14 -12 21 -2 6 10 10 7 14
-9 5 -19 31 -39 40 -31 8 9 -54 63 -69 60z"/>
<path d="M1420 1260 c0 -6 -4 -8 -10 -5 -6 4 -7 -1 -3 -11 4 -12 3 -15 -5 -10
-7 4 -12 2 -12 -3 0 -17 27 -13 34 5 3 8 11 12 17 8 7 -4 10 -1 7 6 -5 17 -28
25 -28 10z"/>
<path d="M1096 1105 c2 -17 1 -24 -2 -17 -6 14 -34 17 -34 3 0 -16 32 -22 48
-9 13 11 15 10 9 -5 -4 -11 -3 -16 3 -12 15 9 12 20 -9 46 l-19 24 4 -30z"/>
<path d="M1302 1092 c-9 -15 -19 -29 -22 -32 -3 -3 -5 -18 -5 -34 0 -16 -6
-31 -14 -34 -10 -3 -12 3 -6 26 4 19 2 33 -6 38 -8 4 -9 3 -5 -4 9 -14 -12
-55 -24 -47 -5 3 -11 1 -15 -5 -6 -9 8 -15 29 -11 4 1 13 -5 20 -13 6 -9 20
-14 31 -11 11 2 24 4 28 4 5 1 6 5 3 10 -7 11 28 43 37 35 4 -4 -1 -13 -11
-20 -16 -13 -16 -13 1 -14 9 0 17 3 18 8 0 4 2 25 3 47 4 56 5 57 17 49 6 -3
15 0 20 7 15 23 9 35 -6 15 -10 -13 -15 -15 -15 -6 0 9 -5 7 -15 -6 -8 -10
-15 -28 -15 -40 0 -11 -10 -29 -22 -40 -21 -19 -21 -19 -15 1 7 19 6 19 -7 2
-8 -11 -12 -26 -9 -35 5 -13 3 -14 -6 -6 -10 9 -10 17 -2 32 6 11 8 27 6 35
-3 7 1 20 9 27 9 7 14 16 11 20 -2 4 3 7 13 6 23 -1 32 16 9 20 -10 1 -25 -9
-35 -24z"/>
<path d="M560 1076 c0 -8 5 -18 10 -21 6 -4 7 -12 4 -18 -5 -9 -4 -9 6 -1 7 7
9 21 5 33 -7 24 -25 28 -25 7z"/>
<path d="M1381 1058 c-1 -10 5 -18 12 -18 6 0 20 -15 31 -33 12 -21 20 -27 24
-18 2 7 -1 17 -8 21 -6 4 -11 10 -11 14 3 20 -1 26 -18 26 -11 0 -22 6 -24 13
-3 7 -6 5 -6 -5z"/>
<path d="M790 1045 c-10 -12 -10 -15 0 -15 7 0 10 -7 7 -15 -4 -8 -2 -17 2
-20 16 -9 23 -77 10 -85 -7 -5 -1 -7 15 -7 28 2 44 32 33 61 -7 19 3 28 17 16
8 -6 12 -3 13 11 1 15 -3 19 -18 14 -12 -4 -19 -2 -20 7 -1 7 -5 0 -8 -17 -4
-16 -4 -34 1 -39 4 -6 8 -17 8 -25 -1 -13 -4 -12 -16 4 -8 11 -13 30 -11 42 2
12 0 24 -5 25 -5 2 -5 15 1 31 8 21 8 27 -3 27 -7 0 -19 -7 -26 -15z"/>
<path d="M707 1002 c-15 -9 -25 -22 -23 -28 3 -7 -4 -14 -15 -17 -17 -5 -19
-9 -10 -25 7 -13 7 -23 -2 -33 -7 -7 -2 -5 10 5 18 15 20 22 12 33 -9 10 -8
13 2 13 14 0 59 47 59 62 0 11 0 10 -33 -10z"/>
<path d="M762 1008 c-10 -13 -10 -17 0 -21 10 -4 10 -8 -2 -16 -12 -8 -12 -11
4 -17 14 -5 15 -9 4 -16 -9 -7 -8 -8 7 -6 13 2 21 12 23 28 2 19 0 21 -7 11
-7 -11 -10 -7 -13 19 -3 29 -5 31 -16 18z"/>
<path d="M636 995 c9 -23 -5 -38 -24 -23 -10 8 -13 9 -9 1 4 -6 3 -14 -3 -18
-6 -4 -8 -11 -5 -16 4 -5 -1 -9 -9 -9 -8 0 -18 -5 -22 -12 -5 -8 -2 -9 9 -5
18 7 24 -8 7 -18 -5 -3 -6 -13 -3 -21 4 -11 8 -12 13 -4 6 9 9 9 15 0 8 -13
-1 -25 -18 -25 -7 0 -13 -8 -15 -18 -3 -16 -1 -17 17 -5 12 7 24 21 27 30 3
10 13 18 22 17 11 0 12 -2 4 -6 -6 -2 -10 -9 -7 -13 3 -5 -3 -18 -15 -30 -26
-26 -25 -33 3 -25 20 5 20 5 4 -6 -13 -7 -22 -8 -29 -1 -6 6 -20 5 -39 -5 -33
-17 -45 -12 -35 13 3 9 12 14 21 10 8 -3 15 -1 15 4 0 5 -9 12 -21 15 -15 5
-17 10 -9 20 8 10 7 14 -2 18 -10 4 -11 7 0 18 17 18 15 40 -3 33 -8 -4 -12
-10 -9 -15 3 -5 0 -9 -6 -9 -8 0 -10 -9 -6 -24 3 -13 -1 -41 -10 -62 -15 -35
-15 -37 0 -25 9 7 16 9 16 3 0 -15 -26 -33 -35 -24 -5 4 -5 1 -1 -6 4 -7 12
-10 17 -7 5 4 9 4 9 1 0 -6 -62 -37 -67 -32 -2 2 3 9 12 16 8 7 15 20 15 29 0
9 6 23 13 30 8 9 8 12 0 7 -6 -3 -14 0 -16 6 -4 9 -6 8 -6 -2 -1 -9 -10 -16
-20 -17 -16 -1 -18 2 -12 20 7 17 15 21 40 19 18 -2 31 1 31 8 0 7 -8 9 -22 4
l-23 -6 24 26 c14 14 19 26 13 26 -7 0 -12 -5 -12 -11 0 -5 -4 -8 -9 -5 -5 3
-12 -1 -15 -10 -3 -8 -11 -12 -17 -8 -7 4 -9 3 -6 -3 4 -6 0 -14 -9 -17 -9 -4
-14 -13 -10 -21 3 -9 -1 -18 -9 -21 -13 -5 -12 -8 1 -21 13 -14 16 -14 28 2
12 16 13 16 19 1 4 -11 -3 -23 -23 -38 -36 -26 -38 -36 -7 -34 12 1 24 -2 27
-6 8 -10 -63 -118 -78 -118 -6 0 -11 -4 -10 -10 2 -5 -8 -20 -22 -32 -14 -13
-20 -19 -13 -15 27 19 31 0 7 -28 -19 -22 -24 -25 -19 -10 5 17 4 18 -7 7 -11
-11 -10 -15 3 -25 14 -10 14 -14 3 -25 -14 -13 -31 -13 -26 1 3 11 -3 8 -28
-13 -29 -26 -43 -26 -35 0 4 12 2 20 -5 20 -6 0 -9 -4 -6 -9 3 -5 -1 -14 -9
-21 -8 -7 -15 -17 -15 -22 0 -6 7 -4 17 3 15 13 16 11 10 -11 -3 -14 -4 -35
-1 -47 6 -20 7 -20 34 10 21 24 26 36 19 49 -10 19 -3 23 25 12 9 -3 16 -11
16 -16 0 -6 -6 -5 -15 2 -10 9 -15 9 -15 1 0 -6 5 -11 11 -11 5 0 7 -5 3 -12
-5 -7 -3 -8 6 -3 10 6 12 4 7 -8 -4 -11 -1 -17 7 -17 14 0 14 30 1 63 -5 12
-2 17 9 17 10 0 13 -6 10 -15 -4 -8 -1 -15 7 -15 7 0 9 3 6 7 -4 3 -1 13 6 21
9 13 9 14 0 8 -9 -5 -13 -1 -13 13 0 11 5 23 10 26 12 8 29 -34 23 -55 -4 -12
-3 -12 5 -1 5 7 7 22 5 32 -3 10 0 19 6 19 6 0 11 4 11 9 0 5 -8 7 -19 4 -21
-5 -37 12 -21 22 5 3 10 16 10 29 0 12 14 35 30 51 17 16 30 34 30 41 0 7 6
17 13 21 7 4 18 21 25 36 7 16 8 25 2 22 -5 -3 -10 -2 -10 3 0 10 50 35 57 28
3 -3 1 -11 -3 -18 -5 -7 -9 -17 -9 -23 0 -5 -4 -11 -9 -12 -13 -2 -29 -33 -22
-40 3 -4 6 -2 6 4 0 6 9 9 20 6 11 -3 20 -9 20 -14 0 -5 4 -9 9 -9 5 0 8 8 6
18 -1 10 -9 16 -21 14 -16 -3 -16 -2 -4 13 7 9 14 32 15 52 0 21 7 39 14 41
11 4 12 -4 7 -32 -4 -23 -3 -36 4 -36 5 0 10 -5 10 -11 0 -6 -8 -8 -17 -5 -16
5 -15 4 1 -9 18 -13 18 -16 2 -40 -9 -14 -14 -29 -12 -34 3 -5 -1 -14 -9 -21
-8 -7 -15 -18 -15 -25 0 -14 25 -14 37 0 4 4 2 5 -4 1 -8 -4 -13 -1 -13 7 0 8
7 17 15 21 8 3 15 18 15 34 0 15 5 33 12 40 9 9 9 12 -1 12 -11 0 -11 3 -1 15
18 22 31 -1 19 -32 -11 -31 -11 -40 0 -28 13 14 16 45 6 78 -6 25 -2 34 30 67
20 21 34 43 31 49 -4 6 0 21 8 33 15 21 23 48 10 35 -9 -9 -64 14 -64 26 0 7
16 29 36 49 34 37 38 58 9 58 -8 0 -12 -6 -9 -15z m-54 -222 c-8 -3 -9 -9 -4
-16 5 -8 -1 -21 -16 -37 -26 -26 -26 -24 -5 28 3 6 -1 12 -8 12 -8 0 -3 6 11
13 14 8 27 12 30 9 3 -3 -1 -7 -8 -9z m-332 -385 c0 -7 -7 -21 -14 -31 -17
-22 -28 -2 -14 26 10 20 28 23 28 5z"/>
<path d="M1233 956 c16 -13 16 -14 1 -20 -9 -4 -14 -9 -11 -12 3 -3 15 0 27 6
21 11 21 12 3 25 -10 8 -22 14 -28 14 -5 0 -2 -6 8 -13z"/>
<path d="M1345 950 c-3 -11 -10 -20 -15 -20 -5 0 -7 -7 -4 -15 4 -9 0 -15 -10
-15 -16 0 -20 11 -17 39 2 11 0 11 -12 0 -8 -8 -11 -16 -6 -17 5 -2 7 -8 3
-13 -3 -5 9 -12 26 -15 22 -5 29 -11 26 -21 -3 -8 0 -21 8 -29 13 -12 14 -11
12 8 -2 13 -7 31 -11 40 -4 11 -1 24 9 33 9 9 16 21 16 26 0 6 5 7 10 4 6 -3
10 -1 10 4 0 20 -39 11 -45 -9z"/>
<path d="M1420 950 c0 -5 -11 -12 -25 -16 -14 -3 -25 -10 -25 -15 0 -5 6 -6
13 -3 24 9 42 -27 43 -82 1 -50 -8 -70 -19 -41 -4 9 -7 9 -18 -1 -12 -11 -12
-13 1 -10 10 2 15 -4 14 -19 0 -13 3 -23 7 -23 12 0 28 34 28 61 0 13 1 38 1
54 l1 30 11 -25 c13 -31 19 -72 9 -66 -4 3 -8 -5 -8 -16 -2 -19 -1 -19 11 -2
13 17 14 17 20 -4 4 -12 11 -22 16 -22 4 0 3 -11 -3 -25 -7 -14 -18 -23 -24
-20 -18 6 -16 -10 2 -25 12 -10 15 -10 15 3 0 8 7 18 16 21 8 3 12 10 9 16 -3
5 -2 10 3 10 13 0 11 30 -2 30 -6 0 0 9 14 20 20 16 22 20 8 20 -24 0 -33 -4
-30 -12 4 -13 -5 -9 -18 8 -8 8 -9 14 -4 13 24 -4 24 3 0 22 -15 12 -26 30
-26 45 0 13 -3 23 -7 23 -24 -4 -30 4 -27 31 2 17 1 30 -1 30 -3 0 -5 -4 -5
-10z"/>
<path d="M713 943 c-7 -2 -13 -12 -13 -21 0 -15 2 -15 10 -2 6 9 10 11 10 3 0
-7 6 -10 14 -7 8 3 12 12 9 20 -5 15 -10 16 -30 7z"/>
<path d="M1172 913 c-13 -14 -20 -28 -16 -32 4 -3 9 0 11 7 3 6 9 12 14 12 6
0 7 -5 3 -12 -4 -6 -3 -8 4 -4 5 3 12 0 15 -6 2 -7 3 4 3 25 -1 43 -3 43 -34
10z"/>
<path d="M690 880 c0 -11 -4 -20 -8 -20 -4 0 -8 -8 -9 -17 -5 -49 -13 -74 -34
-102 -12 -17 -26 -31 -31 -31 -4 0 -8 -4 -8 -10 0 -5 7 -7 15 -4 11 5 14 1 9
-12 -5 -15 -4 -16 4 -4 6 8 8 18 6 22 -3 4 0 8 6 8 6 0 8 5 5 11 -4 6 3 13 14
16 17 4 20 10 15 27 -4 11 -3 18 1 14 10 -9 35 10 35 26 0 6 -7 3 -14 -7 -9
-11 -17 -14 -20 -8 -4 6 2 16 12 22 12 7 17 19 14 31 -2 10 1 18 7 18 7 0 9
-5 6 -10 -3 -6 6 -15 20 -20 32 -12 29 -30 -8 -48 -15 -7 -27 -18 -27 -24 0
-6 11 -3 25 6 14 9 30 14 35 11 6 -4 7 1 3 11 -5 14 -3 15 15 5 12 -7 22 -16
22 -22 0 -6 -5 -7 -12 -3 -6 4 -8 3 -4 -4 3 -6 2 -13 -4 -17 -5 -3 -10 -2 -10
2 0 19 -39 10 -61 -13 -24 -26 -11 -34 14 -9 12 11 17 12 20 2 4 -9 6 -9 6 1
1 6 6 12 12 12 6 0 8 -8 5 -17 -4 -12 1 -10 15 6 20 24 67 42 54 21 -3 -5 -12
-10 -20 -10 -26 0 -28 -23 -4 -41 31 -24 35 -23 42 2 4 14 10 18 19 13 7 -4
10 -4 6 1 -4 4 -3 14 2 20 8 9 6 14 -4 18 -10 4 -13 1 -10 -7 5 -13 -22 -43
-31 -34 -3 3 2 22 10 43 18 43 15 53 -9 29 -24 -24 -44 -4 -29 29 12 25 1 59
-11 38 -4 -6 -12 -11 -17 -11 -6 0 -7 5 -3 12 4 7 3 8 -5 4 -6 -4 -8 -12 -5
-18 5 -8 1 -9 -10 -5 -10 4 -22 7 -27 7 -6 0 -7 5 -4 10 4 6 10 8 14 5 5 -2
16 4 26 15 10 11 22 17 28 13 6 -4 7 -1 3 6 -6 9 -12 9 -24 -3 -21 -18 -74
-17 -67 2 2 6 0 12 -5 12 -6 0 -10 -9 -10 -20z"/>
<path d="M1367 887 c4 -6 8 -16 8 -22 0 -15 28 -12 33 4 3 8 0 11 -7 7 -6 -4
-11 -3 -11 2 0 6 -7 13 -16 16 -10 4 -13 2 -7 -7z"/>
<path d="M1285 880 c6 -9 4 -12 -6 -8 -17 7 -56 -18 -46 -29 4 -3 14 2 22 13
15 19 15 19 13 -1 -2 -11 -7 -23 -13 -27 -6 -4 -2 -8 9 -8 12 0 16 5 12 15 -3
8 -1 15 3 15 14 0 21 29 9 36 -7 5 -8 2 -3 -6z"/>
<path d="M1473 874 c0 -8 2 -12 5 -9 3 2 13 -7 24 -20 18 -24 56 -37 43 -15
-3 6 0 10 7 11 7 0 -2 5 -19 10 -18 5 -32 14 -30 20 1 6 -5 13 -14 14 -9 2
-16 -4 -16 -11z"/>
<path d="M1174 854 c20 -19 20 -28 2 -21 -10 4 -13 1 -10 -8 3 -7 12 -16 20
-19 9 -3 12 -1 9 4 -3 6 1 10 9 10 9 0 16 -5 16 -11 0 -5 5 -7 11 -3 8 4 7 9
-2 15 -8 4 -14 14 -14 21 -1 7 -6 12 -13 11 -7 -2 -12 2 -12 7 0 6 -7 10 -16
10 -14 0 -14 -1 0 -16z"/>
<path d="M1304 830 c-6 -37 -23 -56 -25 -27 0 6 -4 3 -9 -8 -5 -11 -9 -14 -9
-7 -1 7 -9 4 -21 -8 -24 -24 -24 -26 -4 -34 8 -3 12 -2 9 3 -5 9 20 22 39 20
5 0 13 6 18 15 5 9 13 16 19 16 5 0 2 -11 -7 -25 -19 -30 -29 -118 -10 -94 6
8 19 15 28 15 20 2 32 -25 37 -81 1 -17 3 -18 11 -5 12 19 13 33 1 26 -5 -3
-8 5 -8 19 0 13 5 26 12 29 17 6 7 53 -12 60 -11 5 -13 2 -9 -10 10 -25 -4
-37 -21 -17 -14 17 -14 17 -9 -1 5 -16 4 -17 -8 -7 -8 7 -14 21 -13 32 1 22
13 25 21 7 4 -9 5 -8 5 2 -3 34 2 51 11 45 5 -3 6 -13 3 -23 -5 -13 -3 -14 7
-6 19 18 3 54 -23 51 -18 -2 -22 2 -19 26 4 42 -7 32 -14 -13z"/>
<path d="M380 833 c-8 -4 -21 -12 -28 -20 -11 -11 -11 -13 3 -13 10 0 14 -5
10 -12 -4 -7 3 -2 14 12 17 21 27 42 19 39 -2 0 -10 -3 -18 -6z"/>
<path d="M941 808 c-1 -16 -6 -27 -12 -25 -6 1 -12 -8 -14 -20 -1 -12 2 -20 6
-17 4 2 17 -8 28 -22 20 -25 21 -26 21 -5 0 11 -6 21 -12 21 -7 0 -5 5 5 11 9
5 17 15 17 22 0 8 -3 7 -9 -2 -5 -7 -14 -10 -21 -6 -9 6 -9 9 -1 15 8 4 9 14
2 31 l-10 24 0 -27z"/>
<path d="M892 804 c-23 -16 -30 -38 -11 -32 6 2 10 8 9 13 -1 6 9 12 22 15 13
4 18 9 12 13 -6 3 -20 -1 -32 -9z"/>
<path d="M284 784 c-18 -14 -18 -15 4 -4 25 12 27 8 11 -22 -9 -16 -8 -19 2
-13 7 5 10 4 5 -3 -4 -6 -14 -8 -22 -5 -12 4 -15 0 -12 -18 4 -31 30 -31 38 0
3 14 12 27 19 29 8 3 11 0 7 -6 -8 -14 25 -25 38 -12 5 5 6 13 2 17 -4 4 -12
1 -17 -7 -9 -13 -10 -12 -6 2 5 15 -10 35 -39 51 -6 4 -20 0 -30 -9z"/>
<path d="M1186 762 c-2 -4 -7 -24 -11 -44 -5 -27 -14 -39 -35 -48 -20 -8 -26
-17 -23 -31 5 -18 23 -27 23 -11 0 5 6 17 14 27 13 18 14 17 11 -10 -2 -17 -6
-40 -9 -53 -3 -13 -1 -20 5 -17 5 4 9 0 9 -8 0 -8 8 -14 17 -13 12 1 19 -7 21
-23 3 -17 6 -20 12 -11 6 9 13 7 30 -10 12 -12 24 -20 26 -17 2 2 -2 10 -11
17 -8 7 -16 27 -16 44 -1 23 -3 25 -6 9 -2 -13 -8 -23 -12 -23 -10 0 -31 22
-31 34 0 5 3 6 7 3 11 -11 32 13 27 31 -5 15 -4 15 9 0 8 -10 22 -18 31 -18 9
0 16 -4 16 -10 0 -5 -7 -10 -17 -10 -9 0 -13 -3 -9 -7 9 -9 37 -13 32 -4 -3 4
0 13 5 21 8 13 12 12 24 -4 14 -18 15 -18 15 -2 0 9 4 15 8 12 5 -3 7 5 6 17
-1 12 -3 25 -3 30 -1 4 -8 7 -16 7 -9 0 -12 6 -8 17 4 11 3 14 -5 9 -7 -4 -12
-13 -12 -21 0 -7 -6 -16 -12 -18 -10 -4 -10 -6 0 -6 23 -2 12 -21 -13 -21 -26
0 -32 12 -39 78 -2 17 1 32 6 32 5 0 6 5 2 11 -10 16 -27 -18 -21 -41 3 -11 2
-19 -2 -18 -17 2 -31 -3 -31 -11 0 -5 9 -7 20 -4 11 3 20 0 20 -6 0 -6 -3 -10
-7 -10 -19 3 -23 -2 -13 -20 7 -13 7 -22 0 -26 -5 -3 -10 -1 -10 5 0 6 -5 8
-12 4 -8 -5 -9 0 -6 14 4 14 2 20 -5 15 -6 -4 -8 0 -4 10 3 10 2 17 -3 17 -5
0 -7 6 -4 14 3 8 12 12 20 9 9 -3 14 2 14 14 0 10 6 25 13 33 6 8 -1 4 -17
-10 -26 -22 -28 -23 -21 -5 4 11 8 27 9 35 0 8 6 18 11 22 6 5 6 8 -2 8 -6 0
-14 -3 -17 -8z"/>
<path d="M995 740 c3 -16 -3 -33 -18 -49 -19 -22 -19 -23 -2 -11 11 8 22 18
25 21 3 3 14 11 25 17 12 7 15 12 6 12 -8 0 -20 8 -27 18 -12 15 -13 15 -9 -8z"/>
<path d="M1450 740 c0 -5 -3 -9 -7 -9 -5 1 -16 1 -25 0 -21 -1 -24 -28 -4 -28
8 0 14 5 13 11 -1 6 6 10 16 8 10 -2 17 3 17 13 0 8 -2 15 -5 15 -3 0 -5 -4
-5 -10z"/>
<path d="M670 713 c0 -13 -4 -23 -10 -23 -10 0 -34 -39 -27 -46 2 -2 15 -1 27
4 16 6 20 11 11 16 -9 6 -9 12 3 25 10 11 12 21 6 31 -8 12 -10 10 -10 -7z"/>
<path d="M914 722 c-11 -8 -10 -66 2 -96 6 -15 4 -17 -7 -11 -11 7 -12 6 -3
-6 19 -25 24 -59 7 -59 -8 0 -11 -5 -8 -10 4 -6 10 -8 15 -5 8 5 4 -56 -6 -85
-4 -12 -3 -13 8 -2 7 7 13 27 14 45 2 65 4 69 20 63 17 -6 12 6 -14 37 -8 9
-12 20 -9 23 3 4 0 13 -8 21 -11 10 -12 20 -5 32 5 10 7 21 3 24 -3 4 0 13 7
22 13 15 3 20 -16 7z"/>
<path d="M328 709 c-10 -5 -22 -28 -28 -49 -10 -37 -30 -55 -30 -27 0 8 -4 7
-10 -3 -5 -8 -10 -19 -10 -25 0 -5 5 -3 10 5 8 12 10 13 10 1 0 -10 8 -7 26 9
21 21 27 22 34 10 5 -8 10 -11 10 -6 0 5 -8 18 -17 29 -10 11 -12 17 -6 13 9
-5 11 -2 7 9 -4 9 -3 15 2 14 22 -4 44 2 44 12 0 5 -4 8 -9 5 -5 -4 -11 -2
-13 3 -2 6 -10 6 -20 0z"/>
<path d="M215 690 c-10 -11 -15 -20 -10 -20 4 0 14 8 22 18 14 16 14 16 9 -1
-3 -10 -6 -23 -6 -28 0 -4 -6 -6 -14 -3 -8 3 -17 0 -22 -7 -5 -9 -2 -11 8 -6
31 11 28 -7 -3 -23 -17 -8 -31 -19 -30 -24 2 -5 -1 -12 -6 -15 -5 -3 -14 -18
-20 -33 -12 -27 -12 -27 12 -16 14 6 25 15 25 20 0 5 -5 6 -11 3 -6 -4 -5 2 2
14 9 14 16 17 21 8 4 -7 11 -2 17 16 6 15 13 27 16 27 10 0 -6 -44 -23 -62
-22 -26 -3 -22 26 5 16 15 23 17 20 7 -2 -8 -10 -20 -18 -27 -19 -15 -19 -35
0 -50 10 -8 19 -8 27 -1 9 7 13 7 13 0 0 -6 -9 -16 -19 -21 -14 -8 -22 -7 -31
4 -10 12 -16 13 -26 4 -10 -8 -14 -8 -14 0 0 19 -17 12 -23 -10 -4 -16 -3 -18
9 -8 9 7 14 8 14 1 0 -6 -5 -14 -11 -18 -8 -4 -7 -9 2 -15 10 -6 11 -9 2 -9
-7 0 -13 -5 -13 -11 0 -8 4 -8 15 1 8 6 14 15 13 18 0 4 0 15 1 25 1 14 5 16
20 7 35 -18 52 -11 68 28 8 20 20 40 27 44 6 4 -3 6 -19 5 -21 -2 -30 -8 -29
-20 2 -19 -11 -23 -22 -5 -13 21 32 46 72 41 32 -4 36 -3 30 12 -3 10 -2 23 3
29 6 8 2 11 -15 12 -20 2 -22 -1 -14 -16 14 -26 1 -31 -21 -9 -11 11 -25 16
-35 12 -14 -5 -16 -1 -12 20 3 15 1 27 -3 27 -5 0 -3 11 3 25 16 35 -2 52 -27
25z"/>
<path d="M779 710 c0 -3 -2 -22 -4 -44 -2 -21 -8 -42 -15 -46 -7 -4 -10 -16
-7 -26 3 -15 8 -10 21 20 9 21 15 41 12 44 -3 3 -1 11 6 19 8 10 8 17 0 25 -7
7 -12 10 -13 8z"/>
<path d="M936 682 c0 -15 5 -36 11 -46 10 -18 11 -18 23 5 12 22 12 23 -3 10
-15 -12 -17 -10 -17 23 0 20 -3 36 -7 36 -5 0 -8 -13 -7 -28z"/>
<path d="M730 678 c0 -11 -4 -17 -9 -14 -12 8 -43 -28 -39 -45 2 -8 -4 -14
-12 -14 -8 0 -19 -9 -24 -20 -8 -18 -9 -18 -13 -2 -3 9 -8 17 -11 17 -12 0
-52 -47 -45 -54 10 -10 23 -7 21 5 -2 6 5 13 15 14 9 2 17 0 17 -4 0 -10 -31
-37 -50 -44 -13 -5 -13 -6 1 -6 8 -1 26 9 38 20 l23 22 -7 -24 c-4 -13 -12
-25 -16 -27 -5 -2 -9 -11 -9 -20 0 -13 6 -10 26 11 14 16 27 27 29 25 1 -2 5
-19 8 -39 4 -27 2 -36 -9 -36 -8 0 -13 6 -10 13 4 9 -1 11 -16 5 -12 -4 -24
-13 -26 -19 -2 -8 3 -10 14 -5 13 5 15 3 8 -8 -4 -8 -10 -23 -11 -33 -5 -30
-12 -31 -21 -5 l-9 23 -12 -21 c-15 -29 -14 -36 3 -30 24 10 26 -5 5 -34 -16
-23 -17 -29 -5 -29 8 0 18 9 21 20 8 25 25 17 25 -11 0 -11 -4 -18 -9 -14 -5
3 -12 1 -16 -5 -9 -14 -21 -12 -39 6 -15 14 -49 8 -47 -9 3 -21 0 -27 -9 -22
-6 4 -8 16 -5 28 5 18 4 19 -5 5 -15 -25 -2 -50 23 -42 20 6 20 6 4 -10 -20
-20 -22 -37 -4 -34 6 2 11 -3 9 -10 -1 -6 2 -12 6 -12 10 0 8 62 -2 78 -12 19
15 24 35 6 14 -13 16 -20 8 -31 -6 -7 -9 -13 -5 -13 3 0 1 -12 -4 -26 -6 -15
-6 -23 -1 -19 13 7 21 -8 26 -49 7 -53 9 -58 25 -76 23 -25 50 -23 50 4 0 12
-5 27 -12 34 -16 16 8 43 30 35 12 -4 10 0 -5 14 -13 11 -19 24 -15 28 4 5 1
5 -6 0 -8 -4 -12 -16 -9 -26 3 -10 2 -21 -3 -24 -10 -6 -23 62 -15 75 3 5 1
18 -4 27 -9 16 -10 16 -11 -4 0 -12 -5 -25 -11 -28 -7 -5 -4 -14 7 -26 9 -11
14 -22 10 -26 -9 -9 -21 7 -34 46 -10 28 -9 32 3 27 8 -3 15 -1 15 3 0 5 -5
11 -11 13 -14 5 0 38 17 38 7 0 17 12 20 27 4 16 11 33 16 40 5 7 6 18 2 24
-5 9 -2 10 10 6 10 -4 21 -7 24 -7 4 0 0 -5 -8 -10 -13 -8 -12 -10 3 -10 9 0
17 4 17 10 0 13 -40 33 -48 25 -7 -6 -8 -10 -11 -36 0 -5 -5 -8 -10 -5 -17 11
1 54 25 60 13 4 24 10 24 15 0 5 14 14 30 21 17 7 30 18 30 24 0 6 5 4 10 -4
5 -8 10 -10 10 -5 0 6 -5 16 -10 21 -8 8 -7 19 2 38 11 26 13 26 25 10 14 -19
17 -7 7 20 -3 9 -11 13 -16 10 -6 -4 -8 -1 -6 7 3 8 11 13 17 11 6 -1 11 2 11
8 0 6 -3 10 -7 10 -18 -1 -31 -17 -43 -55 -13 -38 -14 -39 -23 -17 -8 18 -7
26 4 33 11 7 11 9 -3 9 -23 0 -24 -37 -2 -61 14 -16 14 -19 -5 -38 -23 -23
-23 -23 -25 52 -1 48 13 75 33 63 5 -4 12 -2 16 4 3 5 1 10 -5 10 -6 0 -8 5
-4 13 6 9 4 9 -8 -1 -13 -10 -17 -10 -20 0 -3 7 2 19 11 25 14 11 14 14 1 23
-14 9 -13 11 11 14 6 0 18 10 25 22 12 18 12 21 -1 21 -8 0 -15 -9 -15 -19z
m-45 -95 c-3 -26 -16 -53 -25 -53 -20 0 -20 36 0 52 27 22 27 22 25 1z m-54
-470 c1 -10 1 -21 0 -25 0 -4 6 -5 14 -2 17 7 21 -11 4 -22 -14 -8 -26 5 -34
39 -5 17 -3 27 4 27 6 0 12 -8 12 -17z"/>
<path d="M805 671 c-3 -11 -3 -26 1 -32 4 -7 3 -9 -3 -6 -6 4 -13 -4 -15 -18
-3 -13 -2 -22 2 -20 4 3 13 -1 19 -9 9 -11 8 -17 -4 -29 -8 -9 -11 -18 -6 -21
5 -4 8 -17 7 -31 -2 -13 1 -22 5 -19 17 10 9 -9 -8 -22 -17 -12 -17 -13 2 -10
17 3 20 11 20 58 0 30 6 62 13 70 9 11 10 18 2 23 -5 3 -10 -2 -10 -12 -1 -16
-2 -16 -10 -2 -6 10 -6 28 -1 46 10 36 -3 68 -14 34z"/>
<path d="M1546 673 c-4 -9 -2 -21 4 -27 7 -7 10 -5 10 7 0 9 7 17 16 17 8 0
12 5 9 10 -10 16 -32 12 -39 -7z"/>
<path d="M995 670 c4 -6 1 -18 -7 -27 -7 -9 -12 -18 -10 -20 1 -1 2 -4 1 -5
-5 -15 -4 -48 1 -48 4 0 7 -13 8 -30 1 -31 -17 -37 -30 -10 -4 9 -7 1 -7 -19
-1 -33 0 -34 14 -15 14 18 15 17 9 -11 -4 -16 -11 -31 -16 -33 -4 -2 -8 -11
-8 -20 1 -15 2 -15 11 1 6 9 13 16 17 13 4 -2 8 10 9 27 2 29 24 57 45 57 17
0 7 -22 -12 -27 -18 -5 -18 -8 -6 -37 9 -21 10 -40 4 -55 -5 -14 -4 -28 2 -36
7 -8 3 -15 -15 -23 -14 -6 -25 -17 -24 -24 0 -10 2 -10 6 0 9 23 23 12 21 -17
-2 -26 -4 -28 -23 -19 -16 9 -18 8 -7 -3 17 -18 15 -34 -3 -19 -16 13 -39 4
-29 -11 8 -14 57 -7 71 11 6 8 9 28 6 45 -4 22 1 35 16 49 19 17 21 17 21 3 0
-10 -3 -17 -8 -17 -4 0 -6 -20 -4 -45 3 -34 0 -46 -12 -51 -10 -4 -14 -13 -10
-28 3 -12 -2 -35 -10 -51 l-16 -30 0 32 c0 17 -7 39 -16 47 -17 18 -28 21 -19
6 3 -5 1 -19 -5 -30 -7 -13 -7 -20 0 -20 5 0 11 6 11 13 1 6 4 -1 8 -18 4 -21
13 -31 28 -33 17 -3 20 1 16 18 -4 16 -2 19 13 13 14 -5 16 -3 11 12 -4 9 -2
25 5 33 10 12 10 14 1 8 -7 -4 -13 -2 -13 3 0 6 6 11 13 11 9 0 13 12 12 36 0
20 5 43 12 50 18 18 16 25 -4 17 -16 -6 -16 -5 -4 11 13 16 15 15 33 -11 14
-20 18 -22 14 -8 -16 61 -17 75 -8 75 5 0 16 -23 22 -51 8 -34 15 -47 21 -38
4 7 5 17 3 21 -3 4 -1 8 5 8 5 0 12 -6 15 -12 4 -7 4 -3 2 10 -4 19 -1 22 12
17 11 -4 9 2 -7 19 -14 14 -27 23 -30 20 -3 -4 0 -9 7 -11 17 -6 15 -20 -4
-27 -8 -3 -13 -2 -9 3 3 5 0 11 -7 13 -9 3 -8 12 6 32 10 16 13 26 8 22 -6 -3
-13 0 -15 6 -3 8 -6 6 -6 -5 -1 -10 -6 -15 -11 -12 -6 4 -8 11 -5 16 4 5 2 9
-4 9 -6 0 -8 7 -5 15 4 8 1 15 -6 15 -8 0 -10 -8 -6 -23 7 -30 -7 -86 -18 -68
-6 10 -12 9 -26 -4 -18 -16 -19 -15 -18 14 1 32 12 41 22 19 3 -7 4 -1 1 15
-3 16 -1 27 5 27 6 0 9 -4 6 -8 -2 -4 -1 -14 5 -22 7 -12 9 -11 9 6 0 11 -10
31 -21 43 -18 19 -19 25 -8 32 8 5 17 3 22 -4 6 -8 7 -6 3 5 -3 10 -1 20 5 23
5 4 7 10 4 15 -3 5 -1 11 4 15 6 3 8 13 5 23 -5 16 -4 16 9 -1 13 -15 16 -16
27 -2 7 9 10 19 6 22 -4 4 -11 1 -15 -6 -7 -11 -11 -10 -19 4 -9 17 -10 17
-17 -4 -3 -11 -11 -18 -17 -15 -6 4 -8 -1 -4 -13 7 -23 -9 -38 -38 -38 -23 0
-35 36 -28 84 3 25 7 30 14 20 7 -11 8 -9 4 4 -3 10 -6 23 -6 28 0 5 -5 9 -11
9 -5 0 -7 -5 -4 -10z"/>
<path d="M1396 672 c-13 -12 -5 -19 19 -19 14 0 24 4 22 10 -4 12 -33 18 -41
9z"/>
<path d="M2283 639 c9 -5 17 -16 17 -24 0 -7 -8 -16 -17 -18 -14 -4 -12 -5 5
-6 17 -1 22 4 22 23 0 13 -7 27 -16 30 -24 9 -31 7 -11 -5z"/>
<path d="M437 616 c-10 -25 -9 -28 5 -20 8 5 9 2 5 -9 -3 -10 -2 -17 2 -17 16
0 20 28 7 45 -12 17 -13 17 -19 1z"/>
<path d="M1434 606 c-10 -8 -19 -20 -19 -27 0 -7 -5 -14 -12 -16 -7 -3 -10 4
-7 19 5 20 3 20 -11 -5 -9 -15 -20 -25 -25 -22 -6 4 -10 2 -10 -3 0 -6 10 -10
23 -9 12 0 41 -3 65 -7 29 -5 42 -4 42 4 0 6 -8 10 -17 9 -35 -3 -42 1 -36 19
9 24 26 39 49 45 18 4 18 5 -2 6 -11 0 -29 -5 -40 -13z"/>
<path d="M862 564 c2 -18 0 -30 -4 -28 -4 3 -8 -9 -8 -26 0 -19 4 -29 10 -25
6 4 7 11 4 17 -4 7 -2 8 5 4 6 -4 9 -12 5 -17 -3 -5 -1 -15 5 -22 7 -9 7 -17
-1 -27 -8 -12 -9 -12 -4 2 3 10 1 20 -3 23 -13 7 -21 -20 -10 -36 14 -22 10
-39 -9 -39 -12 0 -18 -9 -20 -26 -1 -14 -13 -35 -27 -46 -27 -21 -35 -68 -11
-68 8 0 18 5 22 12 4 7 3 8 -4 4 -18 -11 -15 30 4 48 8 9 19 14 24 11 12 -8
40 35 40 61 0 12 5 24 10 26 6 2 13 23 15 48 2 28 1 37 -4 25 -7 -16 -9 -13
-15 18 -4 20 -4 42 0 49 4 7 3 8 -4 4 -7 -4 -12 -1 -12 8 0 20 17 30 23 14 4
-8 6 -7 6 4 1 11 -6 16 -20 15 -17 -1 -20 -7 -17 -33z"/>
<path d="M420 544 c0 -13 -8 -24 -20 -27 -25 -6 -26 2 -2 19 15 12 15 12 -5 7
-25 -6 -28 -19 -13 -43 6 -9 10 -11 10 -3 0 7 7 10 15 7 8 -3 17 0 20 8 3 8
12 15 20 15 10 0 11 -5 6 -15 -5 -8 -6 -24 -4 -36 4 -19 3 -18 -10 3 l-14 24
-12 -22 c-7 -12 -9 -25 -6 -30 3 -5 -1 -12 -7 -14 -7 -3 -3 -6 10 -6 24 -1 28
9 10 27 -9 9 -9 12 -1 12 7 0 15 -4 18 -10 10 -17 25 -11 25 9 0 10 7 21 15
25 8 3 15 11 15 17 0 8 -4 8 -15 -1 -11 -9 -15 -9 -15 -1 0 6 7 14 15 17 8 4
15 11 15 17 0 8 -4 7 -12 -1 -8 -8 -15 -9 -25 -1 -7 7 -13 8 -13 3 0 -5 -5 -2
-10 6 -8 12 -10 11 -10 -6z"/>
<path d="M1100 537 c0 -8 -3 -22 -6 -31 -4 -10 -1 -16 9 -16 9 0 17 -8 19 -17
3 -17 4 -17 11 0 5 13 1 20 -15 26 -16 6 -18 10 -8 16 15 9 40 -19 40 -47 0
-10 6 -18 14 -18 16 0 41 63 33 83 -3 6 -6 3 -6 -9 -1 -11 -8 -29 -17 -40 -15
-18 -15 -18 -9 9 5 23 -4 34 -19 25 -2 -2 -13 6 -25 16 -18 16 -21 17 -21 3z"/>
<path d="M1319 541 c8 -5 10 -14 6 -21 -5 -9 -4 -11 3 -6 7 4 12 2 12 -3 0 -6
-9 -11 -19 -11 -20 0 -35 -25 -25 -41 11 -18 44 -10 44 11 0 19 1 19 38 -2 20
-12 73 -45 117 -73 44 -29 115 -72 158 -96 153 -86 144 -97 -232 -273 -40 -19
-48 -26 -30 -26 13 0 33 7 43 15 27 20 42 19 25 -2 -13 -15 -12 -15 9 -2 12 8
22 17 22 21 0 5 5 8 11 8 5 0 7 -5 3 -11 -3 -6 5 -4 19 6 14 9 36 16 49 15 45
-4 53 1 23 15 -28 13 -29 13 -6 14 13 1 41 6 62 13 29 8 36 14 28 24 -13 16 4
28 30 19 18 -5 39 10 39 30 0 5 6 11 13 14 7 2 9 -1 5 -8 -4 -6 -3 -11 3 -11
6 0 15 9 21 20 9 17 8 20 -10 20 -13 0 -18 4 -15 11 4 6 13 8 21 5 7 -3 16 -1
19 4 4 6 -4 10 -16 10 -12 0 -19 3 -16 7 4 3 -7 15 -25 26 -25 15 -28 21 -17
28 10 7 7 8 -11 4 -18 -4 -39 3 -73 25 -26 16 -50 30 -53 30 -5 0 -123 80
-152 103 -11 8 -11 12 0 20 9 6 8 7 -5 3 -29 -10 -69 4 -62 21 4 11 0 14 -12
9 -17 -6 -17 -5 0 8 22 17 22 25 -2 19 -10 -3 -22 0 -25 6 -4 6 -13 11 -19 11
-8 0 -7 -3 2 -9z"/>
<path d="M153 516 c-26 -17 -82 -94 -71 -97 29 -7 38 -5 38 8 0 13 -2 13 -17
2 -15 -13 -15 -12 -3 7 18 29 40 9 33 -32 l-4 -29 14 25 c8 15 10 29 5 37 -5
6 -8 20 -6 30 4 23 31 45 39 32 3 -6 11 -4 18 4 9 11 8 17 -1 24 -9 7 -23 3
-45 -11z"/>
<path d="M1575 512 c16 -16 108 -19 111 -4 1 7 0 8 -2 3 -5 -9 -28 -8 -94 5
-16 4 -22 2 -15 -4z"/>
<path d="M2136 496 c3 -9 11 -17 18 -17 6 -1 22 -3 36 -4 38 -4 77 5 77 19 0
9 -13 10 -54 3 -39 -7 -57 -6 -68 3 -13 11 -14 10 -9 -4z"/>
<path d="M485 470 c-11 -16 -23 -30 -27 -30 -5 0 -8 -5 -8 -11 0 -5 5 -7 10
-4 6 3 10 -1 10 -9 0 -20 -17 -29 -24 -14 -3 7 -5 4 -3 -7 1 -11 9 -20 16 -20
8 0 16 -6 19 -14 3 -8 0 -11 -6 -7 -18 11 -25 -14 -12 -45 11 -26 10 -32 -9
-53 -21 -22 -30 -63 -11 -51 6 3 10 1 10 -4 0 -6 -4 -11 -10 -11 -17 0 -11
-19 10 -30 14 -8 25 -7 40 2 16 11 23 10 37 -5 16 -16 16 -19 0 -46 -13 -22
-14 -32 -6 -37 8 -4 9 -3 5 4 -4 7 -3 12 3 12 5 0 12 -6 15 -12 4 -7 4 -3 2 9
-2 13 0 26 5 29 8 5 14 -17 10 -39 -1 -5 4 -5 10 -1 9 5 10 2 6 -9 -4 -11 1
-20 13 -27 11 -6 20 -9 20 -6 0 13 -24 56 -31 56 -4 0 -6 19 -3 42 3 32 1 39
-8 30 -16 -16 -28 -15 -28 3 0 8 -3 15 -7 16 -5 0 -16 2 -25 4 -10 2 -22 -4
-27 -13 -7 -13 -13 -14 -21 -6 -8 8 -7 15 5 27 19 20 28 57 13 57 -6 0 -7 7
-3 18 5 9 9 47 10 84 2 69 13 93 50 109 19 9 19 9 -2 5 -16 -3 -23 2 -25 15
-3 16 -6 15 -23 -11z"/>
<path d="M590 495 c-4 -18 -7 -40 -8 -57 -1 -10 -7 -18 -13 -18 -6 0 -8 7 -4
18 5 13 4 14 -6 5 -13 -13 -19 -94 -7 -87 5 3 8 14 8 24 0 10 5 22 10 25 20
12 38 60 29 80 -4 11 -8 16 -9 10z"/>
<path d="M770 466 c0 -14 -4 -36 -9 -49 -9 -22 -7 -24 11 -20 15 5 17 8 6 14
-7 5 -9 9 -4 9 5 0 18 -7 28 -17 18 -16 23 -8 12 21 -3 9 -13 16 -21 16 -11 0
-13 7 -9 25 4 14 2 25 -4 25 -5 0 -10 -11 -10 -24z"/>
<path d="M1702 463 c-7 -2 -17 -13 -22 -24 -8 -15 -7 -19 5 -19 8 0 14 4 13 9
-2 5 6 17 17 25 19 15 13 20 -13 9z"/>
<path d="M1223 445 c0 -8 4 -12 9 -9 15 10 8 -6 -12 -26 -12 -12 -18 -25 -15
-30 10 -16 23 -11 21 7 -1 13 7 18 27 18 30 1 48 20 40 42 -8 20 -23 16 -23
-7 0 -11 -5 -20 -12 -20 -6 0 -9 3 -5 6 3 4 0 13 -8 20 -17 18 -22 18 -22 -1z"/>
<path d="M2031 446 c2 -2 21 -11 42 -19 41 -18 52 -7 12 11 -24 11 -63 17 -54
8z"/>
<path d="M911 410 c-17 -24 -20 -38 -15 -65 3 -19 10 -35 15 -35 13 0 11 34
-3 48 -9 9 -9 12 1 12 7 0 9 5 5 11 -5 8 -1 8 14 0 15 -8 21 -8 24 1 3 9 6 9
12 0 4 -7 2 -12 -3 -12 -6 0 -11 -5 -11 -11 0 -8 5 -8 15 1 25 21 18 40 -15
40 -28 0 -30 2 -20 20 16 29 7 24 -19 -10z"/>
<path d="M2214 397 c-79 -55 -114 -83 -114 -92 0 -10 -41 -45 -52 -45 -4 0 -8
5 -8 10 0 6 -8 10 -17 10 -14 0 -15 -2 -4 -9 11 -7 10 -11 -5 -21 -19 -11 -19
-11 0 -6 10 4 24 2 30 -3 7 -6 23 -7 36 -4 20 5 21 7 7 12 -14 5 -9 12 25 34
23 15 38 27 33 27 -4 0 0 9 10 20 10 11 24 20 32 20 7 0 13 4 13 9 0 5 14 13
31 16 19 4 27 10 20 14 -7 5 -3 12 14 19 23 11 35 32 18 32 -5 0 -35 -19 -69
-43z"/>
<path d="M509 423 c-1 -5 -2 -27 -3 -51 -1 -30 3 -41 12 -37 6 2 12 -2 12 -9
0 -9 7 -12 20 -9 11 3 20 10 20 15 0 6 -6 8 -14 5 -17 -7 -28 16 -20 41 5 14
4 15 -6 2 -9 -12 -10 -8 -5 18 4 20 3 32 -4 32 -6 0 -12 -3 -12 -7z"/>
<path d="M420 409 c0 -5 -4 -8 -9 -5 -5 3 -12 -1 -15 -10 -3 -8 -2 -12 3 -9
14 8 25 -15 13 -27 -6 -6 -14 -3 -23 9 -8 10 -19 18 -25 18 -12 0 -51 -36 -46
-42 2 -3 -15 -17 -37 -33 -32 -24 -39 -34 -36 -57 2 -15 -2 -34 -7 -40 -6 -7
-7 -13 -2 -13 5 0 9 -11 9 -25 0 -14 -3 -25 -7 -25 -5 0 -8 -7 -8 -15 0 -8 -5
-15 -11 -15 -5 0 -7 -5 -4 -10 4 -6 10 -8 15 -5 4 3 10 -2 14 -10 3 -8 16 -15
28 -15 36 0 71 -23 80 -50 l7 -25 -2 25 c-1 14 2 31 6 38 5 6 4 12 -2 12 -5 0
-12 -6 -14 -12 -4 -8 -6 -7 -6 4 -1 9 5 19 12 21 7 3 5 6 -5 6 -10 1 -18 -3
-18 -9 0 -20 -16 -10 -17 11 -1 15 2 19 14 15 10 -4 14 -2 10 8 -3 7 6 37 20
66 20 43 22 54 12 61 -23 15 -30 10 -19 -12 6 -11 9 -25 6 -32 -2 -7 -5 -4 -5
6 -1 9 -6 17 -12 17 -5 0 -8 -4 -5 -9 8 -12 -4 -41 -16 -41 -5 0 -6 6 -2 13 5
7 0 6 -11 -3 -17 -14 -18 -13 -11 5 5 11 11 30 13 43 3 12 9 22 13 22 4 0 10
7 14 15 3 9 0 15 -9 15 -8 0 -15 -7 -15 -17 0 -19 -13 -9 -16 12 -1 8 2 15 7
15 6 0 7 5 3 11 -4 8 1 9 16 4 15 -5 20 -3 16 3 -3 6 -2 13 4 17 5 3 10 15 10
25 0 12 5 17 14 14 8 -3 11 -15 8 -30 -5 -27 4 -30 32 -9 16 12 33 85 20 85
-2 0 -4 -5 -4 -11z m-139 -133 c-9 -10 -8 -15 4 -20 8 -3 15 -12 15 -20 0 -10
-6 -13 -17 -9 -11 4 -14 3 -9 -5 4 -7 4 -18 -1 -24 -11 -18 -21 52 -11 75 5 9
14 17 20 17 7 0 7 -4 -1 -14z m5 -113 c-5 -15 -4 -15 9 1 8 11 15 14 15 7 0
-7 5 -9 10 -6 16 10 12 -21 -5 -35 -8 -7 -15 -19 -15 -27 0 -8 -5 -11 -11 -8
-6 5 -4 16 7 33 17 26 17 27 -2 11 -10 -9 -25 -14 -33 -12 -9 4 -11 -1 -7 -18
6 -23 6 -23 -5 -2 -9 17 -8 26 7 47 22 29 39 34 30 9z"/>
<path d="M2125 401 c3 -5 -9 -12 -27 -14 -28 -4 -27 -4 6 -3 37 1 67 26 31 26
-9 0 -14 -4 -10 -9z"/>
<path d="M93 368 c-9 -18 -18 -40 -19 -48 -2 -8 -6 -30 -9 -47 -3 -18 -5 -36
-5 -39 1 -4 -4 -11 -12 -15 -7 -5 -8 -9 -2 -9 6 0 9 -10 7 -24 -3 -13 3 -35
12 -49 15 -24 15 -26 -2 -30 -17 -4 -17 -5 1 -6 14 -1 17 -7 14 -31 -3 -19 0
-31 10 -35 12 -4 14 2 9 29 -4 27 -2 35 12 39 19 5 46 -27 36 -43 -3 -5 -1
-11 5 -15 6 -3 10 3 10 15 0 16 4 20 15 16 20 -7 32 21 15 37 -10 10 -11 7 -5
-13 l6 -25 -19 24 c-11 13 -24 21 -30 17 -6 -3 -20 7 -32 23 -13 19 -26 28
-35 24 -8 -3 -15 -2 -15 2 0 12 31 38 37 31 4 -3 3 -6 -1 -6 -4 0 -2 -9 4 -20
6 -11 20 -20 30 -20 16 0 20 7 19 33 0 17 -3 26 -6 20 -2 -7 -12 -13 -20 -13
-15 0 -15 2 -1 18 10 11 13 24 8 37 -8 22 5 55 26 68 8 4 14 13 14 18 0 6 -5
7 -11 3 -6 -3 -15 0 -20 7 -5 8 -3 17 4 21 7 5 3 8 -12 8 -16 0 -21 4 -17 15
10 27 -3 16 -21 -17z m35 -46 c2 -12 -2 -22 -8 -22 -6 0 -8 -5 -4 -11 4 -8 0
-8 -15 0 -33 18 -24 39 13 32 5 -1 3 6 -5 15 -12 15 -12 17 1 12 8 -2 16 -14
18 -26z m-13 -82 c0 -17 -6 -24 -22 -25 -17 -1 -20 2 -12 11 5 7 6 14 2 16 -4
3 -2 3 6 1 9 -2 11 2 7 13 -4 10 -1 14 6 11 7 -2 13 -14 13 -27z"/>
<path d="M750 372 c0 -4 6 -14 13 -21 10 -11 9 -13 -5 -8 -10 4 -18 2 -18 -3
0 -6 -10 -10 -22 -11 -13 0 -18 -3 -11 -5 7 -3 9 -12 6 -20 -7 -19 -23 -18
-23 3 0 14 -2 14 -21 -3 -11 -10 -25 -27 -30 -36 -8 -15 -6 -18 12 -18 16 0
20 5 16 20 -3 12 0 20 8 20 7 0 12 -10 11 -24 0 -13 -3 -23 -6 -21 -3 2 -11
-4 -19 -13 -13 -13 -12 -14 11 -9 17 5 28 3 31 -6 4 -9 6 -8 6 2 1 11 4 11 16
1 13 -10 12 -14 -2 -28 -10 -11 -12 -17 -4 -20 6 -2 11 -11 11 -20 0 -15 -2
-15 -10 -2 -14 22 -12 6 3 -23 13 -24 14 -24 25 -7 10 17 9 18 -6 13 -15 -6
-15 -4 2 15 10 11 16 27 13 34 -3 8 -6 5 -6 -7 -1 -14 -4 -16 -13 -7 -8 8 -8
15 0 25 7 8 8 17 4 21 -12 13 -9 56 5 56 7 0 13 9 13 20 0 11 -4 20 -10 20 -5
0 -10 -4 -10 -9 0 -5 -7 -17 -16 -25 -10 -10 -11 -16 -3 -16 8 0 8 -4 -2 -16
-11 -14 -13 -14 -22 2 -7 12 -6 20 4 28 8 6 19 20 25 31 7 12 21 20 36 19 24
-1 25 1 14 27 -10 27 -26 40 -26 21z"/>
<path d="M935 332 c1 -15 -2 -32 -7 -39 -8 -10 -13 -44 -17 -105 -1 -10 -6
-18 -12 -18 -5 0 -7 5 -4 10 3 6 2 10 -4 10 -5 0 -11 17 -13 37 -3 32 -5 35
-18 22 -8 -8 -21 -14 -27 -15 -28 -2 -33 -4 -33 -14 0 -7 6 -7 19 -1 10 6 21
7 25 3 4 -3 11 0 16 8 15 23 13 -16 -2 -43 -10 -20 -10 -21 5 -8 10 7 17 9 17
3 0 -15 -28 -34 -40 -27 -5 3 -8 16 -5 28 5 19 2 22 -25 21 -16 0 -33 -4 -38
-9 -4 -5 -1 -5 6 -1 6 4 12 2 12 -4 0 -7 7 -10 15 -6 8 3 15 1 15 -4 0 -6 -5
-10 -11 -10 -5 0 -7 -5 -4 -10 4 -6 11 -8 16 -5 5 3 6 -1 3 -9 -3 -9 -10 -13
-15 -10 -5 3 -9 -5 -9 -18 0 -18 -2 -20 -10 -8 -14 22 -19 8 -8 -20 l10 -25
10 28 c5 15 14 25 18 22 5 -3 6 -13 3 -23 -3 -9 -3 -14 2 -10 4 4 8 18 9 30 1
13 8 24 19 26 25 5 21 -19 -8 -50 -14 -15 -25 -33 -25 -41 0 -7 -4 -17 -9 -22
-13 -14 60 -17 75 -4 9 7 15 5 21 -6 10 -16 43 -11 43 7 0 5 10 6 21 3 17 -6
20 -4 13 6 -9 14 -10 19 -13 42 -1 6 -8 1 -15 -12 -11 -19 -14 -21 -19 -7 -4
9 -2 16 4 16 6 0 9 7 5 15 -6 18 2 45 15 45 4 0 6 -6 3 -14 -3 -7 1 -16 9 -19
12 -5 13 0 4 29 l-11 35 -18 -23 c-12 -16 -18 -19 -18 -8 -1 12 -4 11 -15 -4
-8 -10 -12 -22 -10 -26 3 -4 -4 -10 -15 -13 -21 -6 -28 9 -8 15 10 4 10 10 1
31 -12 26 -11 27 12 23 13 -3 29 2 36 10 8 10 8 14 0 14 -6 0 -11 7 -11 15 0
9 6 12 15 9 11 -5 14 0 13 17 -2 13 -7 27 -11 30 -5 4 0 24 11 46 20 38 20 40
2 51 -17 10 -18 8 -15 -16z m-55 -286 c0 -6 5 -5 12 2 18 18 35 15 41 -8 6
-23 -3 -26 -21 -8 -8 8 -15 9 -23 1 -13 -13 -62 -4 -54 11 3 6 8 20 12 30 6
18 7 18 20 1 7 -11 13 -23 13 -29z"/>
<path d="M1830 350 c8 -5 25 -10 38 -10 12 0 25 -7 28 -15 4 -8 11 -15 16 -15
6 0 5 6 -2 15 -11 13 -8 15 20 15 60 0 22 13 -47 16 -47 3 -63 1 -53 -6z"/>
<path d="M228 301 c-16 -22 -28 -50 -28 -63 0 -17 3 -19 9 -9 7 11 9 11 14 0
4 -10 6 -9 6 3 1 9 -4 18 -10 20 -16 5 8 43 38 59 12 7 20 16 17 21 -9 15 -18
8 -46 -31z"/>
<path d="M1560 321 c0 -5 9 -12 19 -16 11 -3 19 -11 17 -18 -1 -7 -1 -9 1 -4
3 4 9 7 14 7 6 0 7 -5 3 -12 -4 -7 -3 -8 5 -4 6 4 14 1 17 -7 3 -8 16 -14 29
-14 14 0 22 4 19 9 -3 5 -12 7 -19 4 -8 -3 -15 -2 -17 2 -4 10 -73 62 -81 62
-4 0 -7 -4 -7 -9z"/>
<path d="M1840 315 c-9 -11 -16 -12 -25 -5 -9 8 -15 8 -20 0 -3 -5 1 -10 9
-10 9 0 16 -4 16 -10 0 -5 5 -10 10 -10 6 0 10 7 10 15 0 7 8 19 18 24 9 6 12
11 6 11 -6 0 -17 -7 -24 -15z"/>
<path d="M180 313 c0 -7 -7 -13 -15 -13 -19 0 -19 -19 0 -44 8 -10 12 -23 9
-28 -11 -17 -15 -88 -5 -88 15 0 26 23 13 28 -7 2 -8 12 0 32 5 16 8 35 5 42
-2 7 0 21 5 31 5 11 5 24 -1 35 -6 9 -11 11 -11 5z"/>
<path d="M1086 304 c-4 -9 -4 -19 -1 -22 3 -3 5 0 5 6 0 7 5 12 11 12 7 0 9
-10 4 -27 -6 -27 -6 -27 14 -9 12 11 21 14 21 8 0 -7 -5 -12 -11 -12 -5 0 -7
-5 -4 -10 4 -6 11 -7 17 -4 7 4 8 2 4 -4 -4 -6 -13 -9 -21 -5 -8 3 -15 0 -15
-6 0 -6 -5 -11 -11 -11 -5 0 -8 4 -5 8 2 4 0 14 -5 22 -9 13 -10 13 -6 0 2 -8
-5 -24 -15 -35 -16 -16 -17 -21 -5 -23 20 -4 30 -33 17 -46 -8 -8 -9 -6 -5 5
4 10 2 20 -4 24 -12 7 -15 -23 -5 -49 7 -19 24 -21 24 -3 0 15 40 95 41 82 0
-11 16 25 17 39 0 5 6 13 14 17 10 7 10 9 1 9 -7 0 -13 7 -13 15 0 8 -8 15
-18 15 -10 0 -23 5 -29 11 -7 7 -12 5 -17 -7z"/>
<path d="M383 301 c-7 -5 -8 -14 -4 -45 0 -6 8 -1 16 10 19 25 19 15 0 -31
-12 -27 -13 -40 -5 -50 8 -9 7 -17 -3 -26 -16 -17 -16 -61 1 -66 6 -3 12 0 12
6 0 6 -4 11 -10 11 -5 0 -10 5 -10 10 0 7 8 6 23 -1 19 -10 20 -10 11 2 -6 8
-10 25 -9 39 1 14 -1 30 -6 35 -4 6 -3 17 3 25 8 12 9 12 4 -2 -3 -10 -2 -18
3 -18 5 0 11 13 14 29 3 16 13 36 22 45 9 9 12 16 5 16 -6 0 -8 6 -5 13 4 6 0
4 -8 -5 -17 -21 -31 -24 -24 -5 5 14 -15 19 -30 8z"/>
<path d="M820 301 c0 -15 29 -46 36 -38 4 4 2 7 -5 7 -8 0 -9 5 -2 18 8 14 6
18 -10 19 -10 1 -19 -2 -19 -6z"/>
<path d="M1926 246 c3 -7 -7 -23 -22 -35 l-27 -21 26 2 c14 1 24 4 22 6 -7 7
22 32 37 32 8 1 6 6 -6 15 -25 19 -37 19 -30 1z"/>
<path d="M1634 228 c-7 -11 23 -21 41 -15 8 4 17 2 20 -3 10 -16 27 -11 23 7
-2 12 -14 17 -41 18 -21 0 -41 -3 -43 -7z"/>
<path d="M2007 203 c-4 -7 -2 -15 3 -18 7 -5 5 -12 -7 -20 -10 -7 -15 -17 -11
-20 4 -4 1 -14 -7 -22 -18 -17 -19 -33 -4 -33 5 0 7 -5 4 -10 -8 -13 5 -13 25
0 13 8 12 10 -2 10 -23 0 -23 4 7 48 13 20 21 39 16 42 -4 3 -10 12 -13 20 -3
10 -6 11 -11 3z"/>
<path d="M1875 172 c2 -3 -2 -11 -10 -19 -20 -19 -19 -33 3 -34 9 -1 4 -5 -13
-9 -24 -6 -18 -8 32 -9 34 0 65 3 68 9 3 5 -2 9 -12 8 -46 -4 -53 1 -41 27 6
13 16 22 22 18 6 -3 8 -2 3 2 -4 5 -18 9 -32 10 -13 0 -22 -1 -20 -3z"/>
<path d="M494 145 c-4 -8 -10 -12 -15 -9 -5 3 -9 0 -9 -6 0 -6 -5 -8 -12 -4
-10 6 -10 4 0 -8 9 -11 10 -18 2 -23 -13 -8 -24 20 -16 41 4 10 1 14 -6 11
-13 -4 -12 -50 2 -55 9 -3 1 -53 -13 -69 -18 -24 0 -13 37 21 20 19 36 40 36
47 0 6 -12 -1 -27 -17 -14 -16 -24 -24 -22 -19 19 42 33 65 41 65 4 0 8 6 8
14 0 8 6 17 13 19 9 4 9 6 -1 6 -7 1 -15 -6 -18 -14z"/>
<path d="M1155 142 c12 -13 124 -32 130 -22 3 4 -19 10 -48 12 -28 3 -61 9
-72 13 -14 6 -17 5 -10 -3z"/>
<path d="M1035 129 c-5 -8 -9 -23 -10 -33 0 -11 -5 -21 -11 -23 -7 -2 -10 6
-7 22 3 14 1 25 -3 25 -5 0 -9 -18 -10 -40 0 -48 20 -54 39 -12 6 15 14 29 18
32 3 3 3 14 -1 24 -5 16 -8 17 -15 5z"/>
<path d="M1530 120 c0 -5 -7 -6 -17 -3 -11 4 -14 3 -9 -5 5 -9 -7 -12 -41 -13
-46 -1 -47 -1 -14 -9 23 -6 47 -3 77 8 46 17 57 32 24 32 -11 0 -20 -4 -20
-10z"/>
<path d="M699 113 c-1 -5 -1 -11 0 -15 0 -5 -3 -8 -8 -8 -5 0 -11 -18 -13 -39
-4 -45 1 -45 18 2 6 17 15 40 19 50 4 10 3 17 -4 17 -6 0 -12 -3 -12 -7z"/>
<path d="M750 92 c0 -13 -7 -31 -16 -39 -13 -13 -13 -17 -2 -24 10 -7 10 -9 1
-9 -7 0 -13 -4 -13 -8 0 -17 29 -8 33 10 3 10 1 16 -4 12 -5 -3 -9 -1 -9 4 0
17 12 20 41 12 36 -11 38 -3 3 10 -14 6 -23 14 -20 18 2 4 1 14 -5 22 -7 12
-9 10 -9 -8z"/>
<path d="M1815 58 c-7 -18 -11 -36 -9 -40 9 -14 23 -8 35 13 8 15 8 19 0 15
-6 -4 -11 0 -11 9 0 12 5 15 16 11 9 -3 18 -6 20 -6 2 0 4 -6 4 -14 0 -9 7
-12 20 -9 11 3 17 9 14 14 -3 5 -9 7 -14 4 -5 -3 -15 3 -22 12 -21 29 -38 26
-53 -9z"/>
<path d="M409 66 c10 -12 8 -13 -10 -9 -15 4 -20 3 -15 -6 4 -6 12 -9 17 -6 5
4 9 1 9 -5 0 -6 -8 -9 -18 -6 -13 4 -18 0 -19 -14 l-2 -21 29 21 c30 21 37 60
12 60 -11 0 -12 -3 -3 -14z"/>
<path d="M1786 51 c-9 -16 -16 -36 -16 -43 1 -7 10 4 21 25 11 22 18 41 15 44
-2 3 -12 -9 -20 -26z"/>
<path d="M513 32 c0 -15 1 -19 4 -9 5 20 14 22 31 5 14 -14 42 -20 42 -8 0 12
-30 34 -37 27 -3 -4 -13 -2 -22 3 -14 7 -17 3 -18 -18z"/>
</g>
</svg>
