<svg xmlns="http://www.w3.org/2000/svg" viewBox="-2 -2 4 4" style="width: 1024px; height: 1024px; background-color: rgb(238, 238, 238); user-select: none;" stroke-width="0.03">
            <g stroke-opacity="1" fill-opacity="1"><line x1="-4" y1="-10" x2="-4" y2="10" stroke-width="0.005" stroke="#DDD"/><line x1="-3.8000000000000003" y1="-10" x2="-3.8000000000000003" y2="10" stroke-width="0.005" stroke="#DDD"/><line x1="-3.6" y1="-10" x2="-3.6" y2="10" stroke-width="0.005" stroke="#DDD"/><line x1="-3.4000000000000004" y1="-10" x2="-3.4000000000000004" y2="10" stroke-width="0.005" stroke="#DDD"/><line x1="-3.2" y1="-10" x2="-3.2" y2="10" stroke-width="0.005" stroke="#DDD"/><line x1="-3" y1="-10" x2="-3" y2="10" stroke-width="0.005" stroke="#DDD"/><line x1="-2.8000000000000003" y1="-10" x2="-2.8000000000000003" y2="10" stroke-width="0.005" stroke="#DDD"/><line x1="-2.6" y1="-10" x2="-2.6" y2="10" stroke-width="0.005" stroke="#DDD"/><line x1="-2.4000000000000004" y1="-10" x2="-2.4000000000000004" y2="10" stroke-width="0.005" stroke="#DDD"/><line x1="-2.2" y1="-10" x2="-2.2" y2="10" stroke-width="0.005" stroke="#DDD"/><line x1="-2" y1="-10" x2="-2" y2="10" stroke-width="0.005" stroke="#DDD"/><line x1="-1.8" y1="-10" x2="-1.8" y2="10" stroke-width="0.005" stroke="#DDD"/><line x1="-1.6" y1="-10" x2="-1.6" y2="10" stroke-width="0.005" stroke="#DDD"/><line x1="-1.4000000000000001" y1="-10" x2="-1.4000000000000001" y2="10" stroke-width="0.005" stroke="#DDD"/><line x1="-1.2000000000000002" y1="-10" x2="-1.2000000000000002" y2="10" stroke-width="0.005" stroke="#DDD"/><line x1="-1" y1="-10" x2="-1" y2="10" stroke-width="0.005" stroke="#DDD"/><line x1="-0.8" y1="-10" x2="-0.8" y2="10" stroke-width="0.005" stroke="#DDD"/><line x1="-0.6000000000000001" y1="-10" x2="-0.6000000000000001" y2="10" stroke-width="0.005" stroke="#DDD"/><line x1="-0.4" y1="-10" x2="-0.4" y2="10" stroke-width="0.005" stroke="#DDD"/><line x1="-0.2" y1="-10" x2="-0.2" y2="10" stroke-width="0.005" stroke="#DDD"/><line x1="0" y1="-10" x2="0" y2="10" stroke-width="0.005" stroke="#DDD"/><line x1="0.2" y1="-10" x2="0.2" y2="10" stroke-width="0.005" stroke="#DDD"/><line x1="0.4" y1="-10" x2="0.4" y2="10" stroke-width="0.005" stroke="#DDD"/><line x1="0.6000000000000001" y1="-10" x2="0.6000000000000001" y2="10" stroke-width="0.005" stroke="#DDD"/><line x1="0.8" y1="-10" x2="0.8" y2="10" stroke-width="0.005" stroke="#DDD"/><line x1="1" y1="-10" x2="1" y2="10" stroke-width="0.005" stroke="#DDD"/><line x1="1.2000000000000002" y1="-10" x2="1.2000000000000002" y2="10" stroke-width="0.005" stroke="#DDD"/><line x1="1.4000000000000001" y1="-10" x2="1.4000000000000001" y2="10" stroke-width="0.005" stroke="#DDD"/><line x1="1.6" y1="-10" x2="1.6" y2="10" stroke-width="0.005" stroke="#DDD"/><line x1="1.8" y1="-10" x2="1.8" y2="10" stroke-width="0.005" stroke="#DDD"/><line x1="2" y1="-10" x2="2" y2="10" stroke-width="0.005" stroke="#DDD"/><line x1="2.2" y1="-10" x2="2.2" y2="10" stroke-width="0.005" stroke="#DDD"/><line x1="2.4000000000000004" y1="-10" x2="2.4000000000000004" y2="10" stroke-width="0.005" stroke="#DDD"/><line x1="2.6" y1="-10" x2="2.6" y2="10" stroke-width="0.005" stroke="#DDD"/><line x1="2.8000000000000003" y1="-10" x2="2.8000000000000003" y2="10" stroke-width="0.005" stroke="#DDD"/><line x1="3" y1="-10" x2="3" y2="10" stroke-width="0.005" stroke="#DDD"/><line x1="3.2" y1="-10" x2="3.2" y2="10" stroke-width="0.005" stroke="#DDD"/><line x1="3.4000000000000004" y1="-10" x2="3.4000000000000004" y2="10" stroke-width="0.005" stroke="#DDD"/><line x1="3.6" y1="-10" x2="3.6" y2="10" stroke-width="0.005" stroke="#DDD"/><line x1="3.8000000000000003" y1="-10" x2="3.8000000000000003" y2="10" stroke-width="0.005" stroke="#DDD"/><line x1="4" y1="-10" x2="4" y2="10" stroke-width="0.005" stroke="#DDD"/><line x1="-10" y1="-4" x2="10" y2="-4" stroke-width="0.005" stroke="#DDD"/><line x1="-10" y1="-3.8000000000000003" x2="10" y2="-3.8000000000000003" stroke-width="0.005" stroke="#DDD"/><line x1="-10" y1="-3.6" x2="10" y2="-3.6" stroke-width="0.005" stroke="#DDD"/><line x1="-10" y1="-3.4000000000000004" x2="10" y2="-3.4000000000000004" stroke-width="0.005" stroke="#DDD"/><line x1="-10" y1="-3.2" x2="10" y2="-3.2" stroke-width="0.005" stroke="#DDD"/><line x1="-10" y1="-3" x2="10" y2="-3" stroke-width="0.005" stroke="#DDD"/><line x1="-10" y1="-2.8000000000000003" x2="10" y2="-2.8000000000000003" stroke-width="0.005" stroke="#DDD"/><line x1="-10" y1="-2.6" x2="10" y2="-2.6" stroke-width="0.005" stroke="#DDD"/><line x1="-10" y1="-2.4000000000000004" x2="10" y2="-2.4000000000000004" stroke-width="0.005" stroke="#DDD"/><line x1="-10" y1="-2.2" x2="10" y2="-2.2" stroke-width="0.005" stroke="#DDD"/><line x1="-10" y1="-2" x2="10" y2="-2" stroke-width="0.005" stroke="#DDD"/><line x1="-10" y1="-1.8" x2="10" y2="-1.8" stroke-width="0.005" stroke="#DDD"/><line x1="-10" y1="-1.6" x2="10" y2="-1.6" stroke-width="0.005" stroke="#DDD"/><line x1="-10" y1="-1.4000000000000001" x2="10" y2="-1.4000000000000001" stroke-width="0.005" stroke="#DDD"/><line x1="-10" y1="-1.2000000000000002" x2="10" y2="-1.2000000000000002" stroke-width="0.005" stroke="#DDD"/><line x1="-10" y1="-1" x2="10" y2="-1" stroke-width="0.005" stroke="#DDD"/><line x1="-10" y1="-0.8" x2="10" y2="-0.8" stroke-width="0.005" stroke="#DDD"/><line x1="-10" y1="-0.6000000000000001" x2="10" y2="-0.6000000000000001" stroke-width="0.005" stroke="#DDD"/><line x1="-10" y1="-0.4" x2="10" y2="-0.4" stroke-width="0.005" stroke="#DDD"/><line x1="-10" y1="-0.2" x2="10" y2="-0.2" stroke-width="0.005" stroke="#DDD"/><line x1="-10" y1="0" x2="10" y2="0" stroke-width="0.005" stroke="#DDD"/><line x1="-10" y1="0.2" x2="10" y2="0.2" stroke-width="0.005" stroke="#DDD"/><line x1="-10" y1="0.4" x2="10" y2="0.4" stroke-width="0.005" stroke="#DDD"/><line x1="-10" y1="0.6000000000000001" x2="10" y2="0.6000000000000001" stroke-width="0.005" stroke="#DDD"/><line x1="-10" y1="0.8" x2="10" y2="0.8" stroke-width="0.005" stroke="#DDD"/><line x1="-10" y1="1" x2="10" y2="1" stroke-width="0.005" stroke="#DDD"/><line x1="-10" y1="1.2000000000000002" x2="10" y2="1.2000000000000002" stroke-width="0.005" stroke="#DDD"/><line x1="-10" y1="1.4000000000000001" x2="10" y2="1.4000000000000001" stroke-width="0.005" stroke="#DDD"/><line x1="-10" y1="1.6" x2="10" y2="1.6" stroke-width="0.005" stroke="#DDD"/><line x1="-10" y1="1.8" x2="10" y2="1.8" stroke-width="0.005" stroke="#DDD"/><line x1="-10" y1="2" x2="10" y2="2" stroke-width="0.005" stroke="#DDD"/><line x1="-10" y1="2.2" x2="10" y2="2.2" stroke-width="0.005" stroke="#DDD"/><line x1="-10" y1="2.4000000000000004" x2="10" y2="2.4000000000000004" stroke-width="0.005" stroke="#DDD"/><line x1="-10" y1="2.6" x2="10" y2="2.6" stroke-width="0.005" stroke="#DDD"/><line x1="-10" y1="2.8000000000000003" x2="10" y2="2.8000000000000003" stroke-width="0.005" stroke="#DDD"/><line x1="-10" y1="3" x2="10" y2="3" stroke-width="0.005" stroke="#DDD"/><line x1="-10" y1="3.2" x2="10" y2="3.2" stroke-width="0.005" stroke="#DDD"/><line x1="-10" y1="3.4000000000000004" x2="10" y2="3.4000000000000004" stroke-width="0.005" stroke="#DDD"/><line x1="-10" y1="3.6" x2="10" y2="3.6" stroke-width="0.005" stroke="#DDD"/><line x1="-10" y1="3.8000000000000003" x2="10" y2="3.8000000000000003" stroke-width="0.005" stroke="#DDD"/><line x1="-10" y1="4" x2="10" y2="4" stroke-width="0.005" stroke="#DDD"/><line x1="-10" y1="-10" x2="-10" y2="10" stroke-width="0.005" stroke="#AAA"/><line x1="-9" y1="-10" x2="-9" y2="10" stroke-width="0.005" stroke="#AAA"/><line x1="-8" y1="-10" x2="-8" y2="10" stroke-width="0.005" stroke="#AAA"/><line x1="-7" y1="-10" x2="-7" y2="10" stroke-width="0.005" stroke="#AAA"/><line x1="-6" y1="-10" x2="-6" y2="10" stroke-width="0.005" stroke="#AAA"/><line x1="-5" y1="-10" x2="-5" y2="10" stroke-width="0.005" stroke="#AAA"/><line x1="-4" y1="-10" x2="-4" y2="10" stroke-width="0.005" stroke="#AAA"/><line x1="-3" y1="-10" x2="-3" y2="10" stroke-width="0.005" stroke="#AAA"/><line x1="-2" y1="-10" x2="-2" y2="10" stroke-width="0.005" stroke="#AAA"/><line x1="-1" y1="-10" x2="-1" y2="10" stroke-width="0.005" stroke="#AAA"/><line x1="0" y1="-10" x2="0" y2="10" stroke-width="0.005" stroke="#AAA"/><line x1="1" y1="-10" x2="1" y2="10" stroke-width="0.005" stroke="#AAA"/><line x1="2" y1="-10" x2="2" y2="10" stroke-width="0.005" stroke="#AAA"/><line x1="3" y1="-10" x2="3" y2="10" stroke-width="0.005" stroke="#AAA"/><line x1="4" y1="-10" x2="4" y2="10" stroke-width="0.005" stroke="#AAA"/><line x1="5" y1="-10" x2="5" y2="10" stroke-width="0.005" stroke="#AAA"/><line x1="6" y1="-10" x2="6" y2="10" stroke-width="0.005" stroke="#AAA"/><line x1="7" y1="-10" x2="7" y2="10" stroke-width="0.005" stroke="#AAA"/><line x1="8" y1="-10" x2="8" y2="10" stroke-width="0.005" stroke="#AAA"/><line x1="9" y1="-10" x2="9" y2="10" stroke-width="0.005" stroke="#AAA"/><line x1="10" y1="-10" x2="10" y2="10" stroke-width="0.005" stroke="#AAA"/><line x1="-10" y1="-10" x2="10" y2="-10" stroke-width="0.005" stroke="#AAA"/><line x1="-10" y1="-9" x2="10" y2="-9" stroke-width="0.005" stroke="#AAA"/><line x1="-10" y1="-8" x2="10" y2="-8" stroke-width="0.005" stroke="#AAA"/><line x1="-10" y1="-7" x2="10" y2="-7" stroke-width="0.005" stroke="#AAA"/><line x1="-10" y1="-6" x2="10" y2="-6" stroke-width="0.005" stroke="#AAA"/><line x1="-10" y1="-5" x2="10" y2="-5" stroke-width="0.005" stroke="#AAA"/><line x1="-10" y1="-4" x2="10" y2="-4" stroke-width="0.005" stroke="#AAA"/><line x1="-10" y1="-3" x2="10" y2="-3" stroke-width="0.005" stroke="#AAA"/><line x1="-10" y1="-2" x2="10" y2="-2" stroke-width="0.005" stroke="#AAA"/><line x1="-10" y1="-1" x2="10" y2="-1" stroke-width="0.005" stroke="#AAA"/><line x1="-10" y1="0" x2="10" y2="0" stroke-width="0.005" stroke="#AAA"/><line x1="-10" y1="1" x2="10" y2="1" stroke-width="0.005" stroke="#AAA"/><line x1="-10" y1="2" x2="10" y2="2" stroke-width="0.005" stroke="#AAA"/><line x1="-10" y1="3" x2="10" y2="3" stroke-width="0.005" stroke="#AAA"/><line x1="-10" y1="4" x2="10" y2="4" stroke-width="0.005" stroke="#AAA"/><line x1="-10" y1="5" x2="10" y2="5" stroke-width="0.005" stroke="#AAA"/><line x1="-10" y1="6" x2="10" y2="6" stroke-width="0.005" stroke="#AAA"/><line x1="-10" y1="7" x2="10" y2="7" stroke-width="0.005" stroke="#AAA"/><line x1="-10" y1="8" x2="10" y2="8" stroke-width="0.005" stroke="#AAA"/><line x1="-10" y1="9" x2="10" y2="9" stroke-width="0.005" stroke="#AAA"/><line x1="-10" y1="10" x2="10" y2="10" stroke-width="0.005" stroke="#AAA"/><line x1="-50" y1="-10" x2="-50" y2="10" stroke-width="0.005" stroke="#444"/><line x1="-45" y1="-10" x2="-45" y2="10" stroke-width="0.005" stroke="#444"/><line x1="-40" y1="-10" x2="-40" y2="10" stroke-width="0.005" stroke="#444"/><line x1="-35" y1="-10" x2="-35" y2="10" stroke-width="0.005" stroke="#444"/><line x1="-30" y1="-10" x2="-30" y2="10" stroke-width="0.005" stroke="#444"/><line x1="-25" y1="-10" x2="-25" y2="10" stroke-width="0.005" stroke="#444"/><line x1="-20" y1="-10" x2="-20" y2="10" stroke-width="0.005" stroke="#444"/><line x1="-15" y1="-10" x2="-15" y2="10" stroke-width="0.005" stroke="#444"/><line x1="-10" y1="-10" x2="-10" y2="10" stroke-width="0.005" stroke="#444"/><line x1="-5" y1="-10" x2="-5" y2="10" stroke-width="0.005" stroke="#444"/><line x1="0" y1="-10" x2="0" y2="10" stroke-width="0.005" stroke="#444"/><line x1="5" y1="-10" x2="5" y2="10" stroke-width="0.005" stroke="#444"/><line x1="10" y1="-10" x2="10" y2="10" stroke-width="0.005" stroke="#444"/><line x1="15" y1="-10" x2="15" y2="10" stroke-width="0.005" stroke="#444"/><line x1="20" y1="-10" x2="20" y2="10" stroke-width="0.005" stroke="#444"/><line x1="25" y1="-10" x2="25" y2="10" stroke-width="0.005" stroke="#444"/><line x1="30" y1="-10" x2="30" y2="10" stroke-width="0.005" stroke="#444"/><line x1="35" y1="-10" x2="35" y2="10" stroke-width="0.005" stroke="#444"/><line x1="40" y1="-10" x2="40" y2="10" stroke-width="0.005" stroke="#444"/><line x1="45" y1="-10" x2="45" y2="10" stroke-width="0.005" stroke="#444"/><line x1="50" y1="-10" x2="50" y2="10" stroke-width="0.005" stroke="#444"/><line x1="-10" y1="-50" x2="10" y2="-50" stroke-width="0.005" stroke="#444"/><line x1="-10" y1="-45" x2="10" y2="-45" stroke-width="0.005" stroke="#444"/><line x1="-10" y1="-40" x2="10" y2="-40" stroke-width="0.005" stroke="#444"/><line x1="-10" y1="-35" x2="10" y2="-35" stroke-width="0.005" stroke="#444"/><line x1="-10" y1="-30" x2="10" y2="-30" stroke-width="0.005" stroke="#444"/><line x1="-10" y1="-25" x2="10" y2="-25" stroke-width="0.005" stroke="#444"/><line x1="-10" y1="-20" x2="10" y2="-20" stroke-width="0.005" stroke="#444"/><line x1="-10" y1="-15" x2="10" y2="-15" stroke-width="0.005" stroke="#444"/><line x1="-10" y1="-10" x2="10" y2="-10" stroke-width="0.005" stroke="#444"/><line x1="-10" y1="-5" x2="10" y2="-5" stroke-width="0.005" stroke="#444"/><line x1="-10" y1="0" x2="10" y2="0" stroke-width="0.005" stroke="#444"/><line x1="-10" y1="5" x2="10" y2="5" stroke-width="0.005" stroke="#444"/><line x1="-10" y1="10" x2="10" y2="10" stroke-width="0.005" stroke="#444"/><line x1="-10" y1="15" x2="10" y2="15" stroke-width="0.005" stroke="#444"/><line x1="-10" y1="20" x2="10" y2="20" stroke-width="0.005" stroke="#444"/><line x1="-10" y1="25" x2="10" y2="25" stroke-width="0.005" stroke="#444"/><line x1="-10" y1="30" x2="10" y2="30" stroke-width="0.005" stroke="#444"/><line x1="-10" y1="35" x2="10" y2="35" stroke-width="0.005" stroke="#444"/><line x1="-10" y1="40" x2="10" y2="40" stroke-width="0.005" stroke="#444"/><line x1="-10" y1="45" x2="10" y2="45" stroke-width="0.005" stroke="#444"/><line x1="-10" y1="50" x2="10" y2="50" stroke-width="0.005" stroke="#444"/></g>
            ,<text x="-2" y="-1.85" font-family="Verdana" font-size="0.1" style="pointer-events:none" fill="#224488" transform="rotate(0,0,0)"> Inverse Kinematics </text>,,<line style="pointer-events:none" x1="-1.5" y1="0" x2="-1.0410518646240234" y2="-0.19841022789478302" stroke="#008844"/>,<line style="pointer-events:none" x1="-1.0410518646240234" y1="-0.19841022789478302" x2="-0.613906741142273" y2="0.06148792803287506" stroke="#008844"/>,<line style="pointer-events:none" x1="-0.613906741142273" y1="0.06148792803287506" x2="-0.6300780773162842" y2="0.5612263679504395" stroke="#008844"/>,<line style="pointer-events:none" x1="-0.6300780773162842" y1="0.5612263679504395" x2="-0.14540374279022217" y2="0.6840709447860718" stroke="#008844"/>,<line style="pointer-events:none" x1="-0.14540374279022217" y1="0.6840709447860718" x2="0.2601398825645447" y2="0.3916083574295044" stroke="#008844"/>,,<circle  cx="-1.5" cy="0" r="0.03" fill="#880088"/>,<text x="-1.6" y="-0.05" font-family="Verdana" font-size="0.1" style="pointer-events:none" fill="#880088" transform="rotate(0,0,0)"> Base </text>,,<circle  cx="-1.0410518646240234" cy="-0.19841022789478302" r="0.03" fill="#00dd88"/>,<circle  cx="-0.613906741142273" cy="0.06148792803287506" r="0.03" fill="#00dd88"/>,<circle  cx="-0.6300780773162842" cy="0.5612263679504395" r="0.03" fill="#00dd88"/>,<circle  cx="-0.14540374279022217" cy="0.6840709447860718" r="0.03" fill="#00dd88"/>,<circle  cx="0.2601398825645447" cy="0.3916083574295044" r="0.03" fill="#00dd88"/>,,<circle  cx="0.2601398527622223" cy="0.3916083872318268" r="0.03" fill="#880088"/>,<text x="0.16013985276222228" y="0.3416083872318268" font-family="Verdana" font-size="0.1" style="pointer-events:none" fill="#880088" transform="rotate(0,0,0)"> Target </text></svg>