<?xml version="1.0" standalone="no"?>
<!DOCTYPE svg PUBLIC "-//W3C//DTD SVG 20010904//EN"
 "http://www.w3.org/TR/2001/REC-SVG-20010904/DTD/svg10.dtd">
<svg version="1.0" xmlns="http://www.w3.org/2000/svg"
 width="256.000000pt" height="256.000000pt" viewBox="0 0 256.000000 256.000000"
 preserveAspectRatio="xMidYMid meet">

<g transform="translate(0.000000,256.000000) scale(0.100000,-0.100000)"
fill="#000000" stroke="none">
<path d="M315 2300 c-8 -14 3 -30 21 -30 10 0 12 -5 8 -12 -6 -10 -4 -10 8 0
13 10 17 10 21 0 3 -7 6 -1 6 15 1 18 6 27 19 28 11 0 12 2 4 6 -7 3 -19 0
-26 -7 -10 -7 -16 -8 -21 0 -8 13 -32 13 -40 0z m35 -10 c0 -5 -7 -10 -15 -10
-8 0 -15 5 -15 10 0 6 7 10 15 10 8 0 15 -4 15 -10z"/>
<path d="M432 2298 c2 -6 11 -13 19 -16 12 -3 12 -2 0 6 -11 8 -11 10 0 15 10
4 8 6 -4 6 -10 1 -17 -4 -15 -11z"/>
<path d="M2153 2303 c9 -2 14 -9 11 -15 -4 -7 -2 -8 4 -4 20 12 13 26 -10 25
-18 -1 -19 -2 -5 -6z"/>
<path d="M2200 2290 c-7 -14 -7 -20 0 -20 5 0 10 6 10 14 0 8 6 17 13 19 9 4
9 6 0 6 -7 1 -17 -8 -23 -19z"/>
<path d="M2269 2302 c9 -7 10 -11 2 -15 -7 -4 -8 -5 0 -3 15 2 13 20 -3 24
-10 3 -10 2 1 -6z"/>
<path d="M2227 2269 c4 -13 8 -18 11 -10 2 7 -1 18 -6 23 -8 8 -9 4 -5 -13z"/>
<path d="M346 2215 c-13 -13 -14 -20 -5 -31 6 -8 17 -14 24 -14 7 0 154 -189
325 -420 172 -231 317 -423 323 -427 16 -10 9 1 -312 432 -167 226 -305 418
-306 428 -1 10 -8 25 -17 33 -14 14 -17 14 -32 -1z"/>
<path d="M2167 2213 c-23 -22 14 -53 39 -32 22 18 17 39 -9 39 -13 0 -27 -3
-30 -7z"/>
<path d="M885 1821 c-3 -7 0 -8 9 -5 10 4 16 -3 19 -23 l5 -28 -2 29 c-1 30
-19 45 -31 27z"/>
<path d="M835 1790 c0 -16 5 -30 11 -30 6 0 9 13 6 30 -2 17 -7 30 -11 30 -3
0 -6 -13 -6 -30z"/>
<path d="M948 1783 c6 -2 18 -2 25 0 6 3 1 5 -13 5 -14 0 -19 -2 -12 -5z"/>
<path d="M745 1770 c-3 -5 1 -10 10 -10 9 0 13 5 10 10 -3 6 -8 10 -10 10 -2
0 -7 -4 -10 -10z"/>
<path d="M395 940 c3 -5 8 -10 11 -10 2 0 4 5 4 10 0 6 -5 10 -11 10 -5 0 -7
-4 -4 -10z"/>
<path d="M430 941 c0 -10 19 -25 25 -20 1 2 -3 10 -11 17 -8 7 -14 8 -14 3z"/>
<path d="M333 919 c9 -6 14 -16 11 -22 -5 -8 -2 -7 7 1 12 11 12 14 -1 22 -8
5 -19 10 -25 10 -5 -1 -2 -5 8 -11z"/>
<path d="M352 857 c-14 -18 -23 -49 -13 -42 5 3 13 1 16 -5 9 -15 35 7 35 30
0 22 -25 33 -38 17z"/>
</g>
</svg>
