<svg xmlns="http://www.w3.org/2000/svg" viewBox="-2 -2 4 4" style="width: 1024px; height: 1024px; background-color: rgb(238, 238, 238); user-select: none;" stroke-width="0.005">
            
            <circle  cx="0.15000000000000002" cy="-0.30000000000000004" r="0.03" fill="#444"/>,<circle  cx="0.5" cy="-0.5" r="0.03" fill="#444"/>,<circle  cx="0.8500000000000001" cy="-0.2" r="0.03" fill="#444"/>,,<circle  cx="0.7522375583648682" cy="0.12297104597091675" r="0.03" fill="#ff0000"/>,<text x="0.6522375583648682" y="0.07297104597091675" font-family="Verdana" font-size="0.1" style="pointer-events:none" fill="#ff0000" transform="rotate(0,0,0)"> A </text>,<circle  cx="0.14883455038070678" cy="-0.9659788131713868" r="0.03" fill="#ff0000"/>,<text x="0.048834550380706776" y="-1.0159788131713867" font-family="Verdana" font-size="0.1" style="pointer-events:none" fill="#ff0000" transform="rotate(0,0,0)"> B </text>,,<line style="pointer-events:none" x1="0.7522375583648682" y1="0.12297104597091675" x2="0.9300080299377442" y2="-0.2718292951583862" stroke="#000000"/>,<line style="pointer-events:none" x1="0.14883455038070678" y1="-0.9659788131713868" x2="0.513046533646973" y2="-1.4944737371488654" stroke="#000000"/>,<line style="pointer-events:none" x1="0.9300080299377442" y1="-0.2718292951583862" x2="0.513046533646973" y2="-1.4944737371488654" stroke="#000000"/>,<line style="pointer-events:none" x1="0.513046533646973" y1="-1.4944737371488654" x2="0.591519391031229" y2="-0.47510445565607884" stroke="#000000"/>,,<circle  cx="0.9300080299377442" cy="-0.2718292951583862" r="0.03" fill="#00ff00"/>,<text x="0.8300080299377443" y="-0.3218292951583862" font-family="Verdana" font-size="0.1" style="pointer-events:none" fill="#00ff00" transform="rotate(0,0,0)"> C </text>,<circle  cx="0.513046533646973" cy="-1.4944737371488654" r="0.03" fill="#00ff00"/>,<text x="0.41304653364697297" y="-1.5444737371488655" font-family="Verdana" font-size="0.1" style="pointer-events:none" fill="#00ff00" transform="rotate(0,0,0)"> D </text>,,<circle  cx="0.591519391031229" cy="-0.47510445565607884" r="0.03" fill="#ff00ff"/>,,<circle  cx="0.591519391031229" cy="-0.47510445565607884" r="0.03" fill="#0000ff"/>,<text x="0.491519391031229" y="-0.5251044556560789" font-family="Verdana" font-size="0.1" style="pointer-events:none" fill="#0000ff" transform="rotate(0,0,0)"> E </text></svg>