<svg xmlns="http://www.w3.org/2000/svg" viewBox="-2 -2 4 4" style="width: 1024px; height: 1024px; background-color: rgb(238, 238, 238); user-select: none;" stroke-width="0.015">
            <g stroke-opacity="1" fill-opacity="1"><line x1="-1.4683352845030908" y1="1.1148577492520575" x2="0.6993363982353756" y2="1.3576113003594723" stroke="black" stroke-width="0.005"/><line x1="-1.3951355278013602" y1="1.092541167635035" x2="0.7354782244427034" y2="1.3246617335805013" stroke="black" stroke-width="0.0005"/><text text-anchor="middle" font-size="0.04" fill="black" x="0.7354782244427034" y="1.3746617335805014">0.9</text><line x1="-1.3248089370610312" y1="1.0711006030211734" x2="0.7699071401789855" y2="1.2932737372840384" stroke="black" stroke-width="0.0005"/><text text-anchor="middle" font-size="0.04" fill="black" x="0.7699071401789855" y="1.3432737372840384">0.8</text><line x1="-1.2571892672120848" y1="1.0504853621943244" x2="0.8027423124156404" y2="1.2633386421437296" stroke="black" stroke-width="0.0005"/><text text-anchor="middle" font-size="0.04" fill="black" x="0.8027423124156404" y="1.3133386421437296">0.7</text><line x1="-1.1921236437043141" y1="1.030648589244111" x2="0.8340919156346261" y2="1.2347581421304388" stroke="black" stroke-width="0.0005"/><text text-anchor="middle" font-size="0.04" fill="black" x="0.8340919156346261" y="1.2847581421304388">0.6</text><line x1="-1.1294695255989715" y1="1.0115472019699672" x2="0.8640543395965696" y2="1.2074421871716408" stroke="black" stroke-width="0.002"/><text text-anchor="middle" font-size="0.04" fill="black" x="0.8640543395965696" y="1.2574421871716408">0.5</text><line x1="-1.0690957219043171" y1="0.9931409573563774" x2="0.8927197237977494" y2="1.1813085358761677" stroke="black" stroke-width="0.0005"/><text text-anchor="middle" font-size="0.04" fill="black" x="0.8927197237977494" y="1.2313085358761677">0.4</text><line x1="-1.0108796984046395" y1="0.9753924960963872" x2="0.9201705858689937" y2="1.1562823096005166" stroke="black" stroke-width="0.0005"/><text text-anchor="middle" font-size="0.04" fill="black" x="0.9201705858689937" y="1.2062823096005166">0.3</text><line x1="-0.9547078999738267" y1="0.9582673515611178" x2="0.9464825827184543" y2="1.1322944551288627" stroke="black" stroke-width="0.0005"/><text text-anchor="middle" font-size="0.04" fill="black" x="0.9464825827184543" y="1.1822944551288628">0.2</text><line x1="-0.9004745057134856" y1="0.9417331699737053" x2="0.9717248389859924" y2="1.1092815433901821" stroke="black" stroke-width="0.0005"/><text text-anchor="middle" font-size="0.04" fill="black" x="0.9717248389859924" y="1.1592815433901822">0.1</text><line x1="-0.8480808937997836" y1="0.92575979859187" x2="0.9959616861487048" y2="1.0871855464673592" stroke="black" stroke-width="0.005"/><text text-anchor="middle" font-size="0.04" fill="black" x="0.9959616861487048" y="1.1371855464673593">0.0</text><line x1="-0.7974349867707241" y1="0.9103193387558447" x2="1.0192516284967774" y2="1.0659525183831715" stroke="black" stroke-width="0.0005"/><text text-anchor="middle" font-size="0.04" fill="black" x="1.0192516284967774" y="1.1159525183831716">-0.1</text><line x1="-0.7484508009211939" y1="0.8953854062330019" x2="1.0416494833436765" y2="1.0455330805224474" stroke="black" stroke-width="0.0005"/><text text-anchor="middle" font-size="0.04" fill="black" x="1.0416494833436765" y="1.0955330805224475">-0.2</text><line x1="-0.7010478359755786" y1="0.8809336261892792" x2="1.0632053584199619" y2="1.0258812498153351" stroke="black" stroke-width="0.0005"/><text text-anchor="middle" font-size="0.04" fill="black" x="1.0632053584199619" y="1.0758812498153352">-0.3</text><line x1="-0.655150843405848" y1="0.8669409479487853" x2="1.0839656552109453" y2="1.0069544443037062" stroke="black" stroke-width="0.0005"/><text text-anchor="middle" font-size="0.04" fill="black" x="1.0839656552109453" y="1.0569544443037062">-0.4</text><line x1="-0.6106890112470289" y1="0.853385767110528" x2="1.1039739062684604" y2="0.9887134540805824" stroke="black" stroke-width="0.002"/><text text-anchor="middle" font-size="0.04" fill="black" x="1.1039739062684604" y="1.0387134540805825">-0.5</text><line x1="-0.5675962386862214" y1="0.8402480158642712" x2="1.1232703411144926" y2="0.9711215766277934" stroke="black" stroke-width="0.0005"/><text text-anchor="middle" font-size="0.04" fill="black" x="1.1232703411144926" y="1.0211215766277935">-0.6</text><line x1="-0.5258100848669544" y1="0.8275086392821802" x2="1.141891641042664" y2="0.9541446824370756" stroke="black" stroke-width="0.0005"/><text text-anchor="middle" font-size="0.04" fill="black" x="1.141891641042664" y="1.0041446824370757">-0.7</text><line x1="-0.4852720467054324" y1="0.8151497248048758" x2="1.1598735232047324" y2="0.9377512450126607" stroke="black" stroke-width="0.0005"/><text text-anchor="middle" font-size="0.04" fill="black" x="1.1598735232047324" y="0.9877512450126608">-0.8</text><line x1="-0.44592721748432373" y1="0.8031546024508188" x2="1.1772477626910378" y2="0.9219116133277393" stroke="black" stroke-width="0.0005"/><text text-anchor="middle" font-size="0.04" fill="black" x="1.1772477626910378" y="0.9719116133277393">-0.9</text><line x1="-0.40772341988533073" y1="0.7915073827906686" x2="1.1940447089503583" y2="0.9065981120090167" stroke="black" stroke-width="0.005"/></g><g stroke-opacity="1" fill-opacity="1"><line x1="-1.4683352845030908" y1="1.1148577492520575" x2="-0.40772341988533073" y2="0.7915073827906686" stroke="black" stroke-width="0.005"/><line x1="-1.3785287157051853" y1="1.124914980399898" x2="-0.33735542775168803" y2="0.7965634708719334" stroke="black" stroke-width="0.0005"/><text text-anchor="middle" font-size="0.04" fill="black" x="-1.3785287157051853" y="1.174914980399898">0.9</text><line x1="-1.2870871990500246" y1="1.1351553177224794" x2="-0.2660826452801748" y2="0.8016845700399812" stroke="black" stroke-width="0.0005"/><text text-anchor="middle" font-size="0.04" fill="black" x="-1.2870871990500246" y="1.1851553177224794">0.8</text><line x1="-1.193965346771545" y1="1.1455838077210576" x2="-0.1938874660961337" y2="0.8068720043633337" stroke="black" stroke-width="0.0005"/><text text-anchor="middle" font-size="0.04" fill="black" x="-1.193965346771545" y="1.1955838077210577">0.7</text><line x1="-1.0991170910669092" y1="1.1562058115502378" x2="-0.12075195872200553" y2="0.8121268824333074" stroke="black" stroke-width="0.0005"/><text text-anchor="middle" font-size="0.04" fill="black" x="-1.0991170910669092" y="1.2062058115502379">0.6</text><line x1="-1.0024931488767475" y1="1.167026506220407" x2="-0.04665754783319132" y2="0.8174507830509558" stroke="black" stroke-width="0.002"/><text text-anchor="middle" font-size="0.04" fill="black" x="-1.0024931488767475" y="1.217026506220407">0.5</text><line x1="-0.9040434408344113" y1="1.1780516516581294" x2="0.028414713738614508" y2="0.8228448814008239" stroke="black" stroke-width="0.0005"/><text text-anchor="middle" font-size="0.04" fill="black" x="-0.9040434408344113" y="1.2280516516581295">0.4</text><line x1="-0.8037161029502167" y1="1.1892872324836414" x2="0.10448430755405629" y2="0.828310640504322" stroke="black" stroke-width="0.0005"/><text text-anchor="middle" font-size="0.04" fill="black" x="-0.8037161029502167" y="1.2392872324836415">0.3</text><line x1="-0.7014564704952789" y1="1.2007390565749296" x2="0.18157128018320617" y2="0.8338495642427962" stroke="black" stroke-width="0.0005"/><text text-anchor="middle" font-size="0.04" fill="black" x="-0.7014564704952789" y="1.2507390565749297">0.2</text><line x1="-0.5972084018506438" y1="1.21241356759528" x2="0.25969609559113327" y2="0.839462997175654" stroke="black" stroke-width="0.0005"/><text text-anchor="middle" font-size="0.04" fill="black" x="-0.5972084018506438" y="1.2624135675952801">0.1</text><line x1="-0.4909133271746319" y1="1.2243174676714879" x2="0.33887994497275076" y2="0.8451525210398306" stroke="black" stroke-width="0.005"/><text text-anchor="middle" font-size="0.04" fill="black" x="-0.4909133271746319" y="1.274317467671488">0.0</text><line x1="-0.38251016716374897" y1="1.2364572930776263" x2="0.4191444611775811" y2="0.8509197625809736" stroke="black" stroke-width="0.0005"/><text text-anchor="middle" font-size="0.04" fill="black" x="-0.38251016716374897" y="1.2864572930776264">-0.1</text><line x1="-0.2719357753169871" y1="1.2488402765090458" x2="0.5005118980550733" y2="0.8567661851502174" stroke="black" stroke-width="0.0005"/><text text-anchor="middle" font-size="0.04" fill="black" x="-0.2719357753169871" y="1.2988402765090459">-0.2</text><line x1="-0.15912414704050024" y1="1.2614738733529922" x2="0.583005215441366" y2="0.8626935016614182" stroke="black" stroke-width="0.0005"/><text text-anchor="middle" font-size="0.04" fill="black" x="-0.15912414704050024" y="1.3114738733529923">-0.3</text><line x1="-0.044006758935317594" y1="1.274365692016705" x2="0.6666479158509786" y2="0.8687034747111698" stroke="black" stroke-width="0.0005"/><text text-anchor="middle" font-size="0.04" fill="black" x="-0.044006758935317594" y="1.324365692016705">-0.4</text><line x1="0.07348784492634572" y1="1.2875236520045725" x2="0.7514642518160226" y2="0.8747976994446334" stroke="black" stroke-width="0.002"/><text text-anchor="middle" font-size="0.04" fill="black" x="0.07348784492634572" y="1.3375236520045726">-0.5</text><line x1="0.19343407765755022" y1="1.3009562420933245" x2="0.8374789370352621" y2="0.8809780340247116" stroke="black" stroke-width="0.0005"/><text text-anchor="middle" font-size="0.04" fill="black" x="0.19343407765755022" y="1.3509562420933245">-0.6</text><line x1="0.3159093620366172" y1="1.3146719861573883" x2="0.9247175444086037" y2="0.8872463915761956" stroke="black" stroke-width="0.0005"/><text text-anchor="middle" font-size="0.04" fill="black" x="0.3159093620366172" y="1.3646719861573884">-0.7</text><line x1="0.4409947867816239" y1="1.3286801010965472" x2="1.0132066623209757" y2="0.8936045137690768" stroke="black" stroke-width="0.0005"/><text text-anchor="middle" font-size="0.04" fill="black" x="0.4409947867816239" y="1.3786801010965473">-0.8</text><line x1="0.5687744123708515" y1="1.3429898640751978" x2="1.1029730114831238" y2="0.9000544199468847" stroke="black" stroke-width="0.0005"/><text text-anchor="middle" font-size="0.04" fill="black" x="0.5687744123708515" y="1.3929898640751979">-0.9</text><line x1="0.6993363982353756" y1="1.3576113003594723" x2="1.1940447089503583" y2="0.9065981120090167" stroke="black" stroke-width="0.005"/></g><g stroke-opacity="1" fill-opacity="1"><line x1="-0.40772341988533073" y1="0.7915073827906686" x2="-0.40772341988533073" y2="-0.7915073827906686" stroke="black" stroke-width="0.005"/><line x1="-0.33735542775168803" y1="0.7965634708719334" x2="-0.33735542775168803" y2="-0.7965634708719334" stroke="black" stroke-width="0.0005"/><line x1="-0.2660826452801748" y1="0.8016845700399812" x2="-0.2660826452801748" y2="-0.8016845700399812" stroke="black" stroke-width="0.0005"/><line x1="-0.1938874660961337" y1="0.8068720043633337" x2="-0.1938874660961337" y2="-0.8068720043633337" stroke="black" stroke-width="0.0005"/><line x1="-0.12075195872200553" y1="0.8121268824333074" x2="-0.12075195872200553" y2="-0.8121268824333074" stroke="black" stroke-width="0.0005"/><line x1="-0.04665754783319132" y1="0.8174507830509558" x2="-0.04665754783319132" y2="-0.8174507830509558" stroke="black" stroke-width="0.002"/><line x1="0.028414713738614508" y1="0.8228448814008239" x2="0.028414713738614508" y2="-0.8228448814008239" stroke="black" stroke-width="0.0005"/><line x1="0.10448430755405629" y1="0.828310640504322" x2="0.10448430755405629" y2="-0.828310640504322" stroke="black" stroke-width="0.0005"/><line x1="0.18157128018320617" y1="0.8338495642427962" x2="0.18157128018320617" y2="-0.8338495642427962" stroke="black" stroke-width="0.0005"/><line x1="0.25969609559113327" y1="0.839462997175654" x2="0.25969609559113327" y2="-0.839462997175654" stroke="black" stroke-width="0.0005"/><line x1="0.33887994497275076" y1="0.8451525210398306" x2="0.33887994497275076" y2="-0.8451525210398306" stroke="black" stroke-width="0.005"/><line x1="0.4191444611775811" y1="0.8509197625809736" x2="0.4191444611775811" y2="-0.8509197625809736" stroke="black" stroke-width="0.0005"/><line x1="0.5005118980550733" y1="0.8567661851502174" x2="0.5005118980550733" y2="-0.8567661851502174" stroke="black" stroke-width="0.0005"/><line x1="0.583005215441366" y1="0.8626935016614182" x2="0.583005215441366" y2="-0.8626935016614182" stroke="black" stroke-width="0.0005"/><line x1="0.6666479158509786" y1="0.8687034747111698" x2="0.6666479158509786" y2="-0.8687034747111698" stroke="black" stroke-width="0.0005"/><line x1="0.7514642518160226" y1="0.8747976994446334" x2="0.7514642518160226" y2="-0.8747976994446334" stroke="black" stroke-width="0.002"/><line x1="0.8374789370352621" y1="0.8809780340247116" x2="0.8374789370352621" y2="-0.8809780340247116" stroke="black" stroke-width="0.0005"/><line x1="0.9247175444086037" y1="0.8872463915761956" x2="0.9247175444086037" y2="-0.8872463915761956" stroke="black" stroke-width="0.0005"/><line x1="1.0132066623209757" y1="0.8936045137690768" x2="1.0132066623209757" y2="-0.8936045137690768" stroke="black" stroke-width="0.0005"/><line x1="1.1029730114831238" y1="0.9000544199468847" x2="1.1029730114831238" y2="-0.9000544199468847" stroke="black" stroke-width="0.0005"/><line x1="1.1940447089503583" y1="0.9065981120090167" x2="1.1940447089503583" y2="-0.9065981120090167" stroke="black" stroke-width="0.005"/></g><g stroke-opacity="1" fill-opacity="1"><line x1="-0.40772341988533073" y1="0.7915073827906686" x2="1.1940447089503583" y2="0.9065981120090167" stroke="black" stroke-width="0.005"/><line x1="-0.40772341988533073" y1="0.7123566445116017" x2="1.1940447089503583" y2="0.815938300808115" stroke="black" stroke-width="0.0005"/><text text-anchor="middle" font-size="0.04" fill="black" x="1.2440447089503583" y="0.815938300808115">-0.9</text><line x1="-0.40772341988533073" y1="0.6332059817165611" x2="1.1940447089503583" y2="0.7252785760671469" stroke="black" stroke-width="0.0005"/><text text-anchor="middle" font-size="0.04" fill="black" x="1.2440447089503583" y="0.7252785760671469">-0.8</text><line x1="-0.40772341988533073" y1="0.5540552056954812" x2="1.1940447089503583" y2="0.6346187216362784" stroke="black" stroke-width="0.0005"/><text text-anchor="middle" font-size="0.04" fill="black" x="1.2440447089503583" y="0.6346187216362784">-0.7</text><line x1="-0.40772341988533073" y1="0.47490442967440116" x2="1.1940447089503583" y2="0.5439588672054101" stroke="black" stroke-width="0.0005"/><text text-anchor="middle" font-size="0.04" fill="black" x="1.2440447089503583" y="0.5439588672054101">-0.6</text><line x1="-0.40772341988533073" y1="0.3957536913953343" x2="1.1940447089503583" y2="0.45329905600450837" stroke="black" stroke-width="0.002"/><text text-anchor="middle" font-size="0.04" fill="black" x="1.2440447089503583" y="0.45329905600450837">-0.5</text><line x1="-0.40772341988533073" y1="0.31660299085828053" x2="1.1940447089503583" y2="0.3626392880335734" stroke="black" stroke-width="0.0005"/><text text-anchor="middle" font-size="0.04" fill="black" x="1.2440447089503583" y="0.3626392880335734">-0.4</text><line x1="-0.40772341988533073" y1="0.23745221483720058" x2="1.1940447089503583" y2="0.27197943360270505" stroke="black" stroke-width="0.0005"/><text text-anchor="middle" font-size="0.04" fill="black" x="1.2440447089503583" y="0.27197943360270505">-0.3</text><line x1="-0.40772341988533073" y1="0.15830149542914027" x2="1.1940447089503583" y2="0.1813196440167867" stroke="black" stroke-width="0.0005"/><text text-anchor="middle" font-size="0.04" fill="black" x="1.2440447089503583" y="0.1813196440167867">-0.2</text><line x1="-0.40772341988533073" y1="0.07915074771457013" x2="1.1940447089503583" y2="0.09065982200839336" stroke="black" stroke-width="0.0005"/><text text-anchor="middle" font-size="0.04" fill="black" x="1.2440447089503583" y="0.09065982200839336">-0.1</text><line x1="-0.40772341988533073" y1="0" x2="1.1940447089503583" y2="0" stroke="black" stroke-width="0.005"/><text text-anchor="middle" font-size="0.04" fill="black" x="1.2440447089503583" y="0">0.0</text><line x1="-0.40772341988533073" y1="-0.07915074771457013" x2="1.1940447089503583" y2="-0.09065982200839336" stroke="black" stroke-width="0.0005"/><text text-anchor="middle" font-size="0.04" fill="black" x="1.2440447089503583" y="-0.09065982200839336">0.1</text><line x1="-0.40772341988533073" y1="-0.15830149542914027" x2="1.1940447089503583" y2="-0.1813196440167867" stroke="black" stroke-width="0.0005"/><text text-anchor="middle" font-size="0.04" fill="black" x="1.2440447089503583" y="-0.1813196440167867">0.2</text><line x1="-0.40772341988533073" y1="-0.23745221483720058" x2="1.1940447089503583" y2="-0.27197943360270505" stroke="black" stroke-width="0.0005"/><text text-anchor="middle" font-size="0.04" fill="black" x="1.2440447089503583" y="-0.27197943360270505">0.3</text><line x1="-0.40772341988533073" y1="-0.31660299085828053" x2="1.1940447089503583" y2="-0.3626392880335734" stroke="black" stroke-width="0.0005"/><text text-anchor="middle" font-size="0.04" fill="black" x="1.2440447089503583" y="-0.3626392880335734">0.4</text><line x1="-0.40772341988533073" y1="-0.3957536913953343" x2="1.1940447089503583" y2="-0.45329905600450837" stroke="black" stroke-width="0.002"/><text text-anchor="middle" font-size="0.04" fill="black" x="1.2440447089503583" y="-0.45329905600450837">0.5</text><line x1="-0.40772341988533073" y1="-0.47490442967440116" x2="1.1940447089503583" y2="-0.5439588672054101" stroke="black" stroke-width="0.0005"/><text text-anchor="middle" font-size="0.04" fill="black" x="1.2440447089503583" y="-0.5439588672054101">0.6</text><line x1="-0.40772341988533073" y1="-0.5540552056954812" x2="1.1940447089503583" y2="-0.6346187216362784" stroke="black" stroke-width="0.0005"/><text text-anchor="middle" font-size="0.04" fill="black" x="1.2440447089503583" y="-0.6346187216362784">0.7</text><line x1="-0.40772341988533073" y1="-0.6332059817165611" x2="1.1940447089503583" y2="-0.7252785760671469" stroke="black" stroke-width="0.0005"/><text text-anchor="middle" font-size="0.04" fill="black" x="1.2440447089503583" y="-0.7252785760671469">0.8</text><line x1="-0.40772341988533073" y1="-0.7123566445116017" x2="1.1940447089503583" y2="-0.815938300808115" stroke="black" stroke-width="0.0005"/><text text-anchor="middle" font-size="0.04" fill="black" x="1.2440447089503583" y="-0.815938300808115">0.9</text><line x1="-0.40772341988533073" y1="-0.7915073827906686" x2="1.1940447089503583" y2="-0.9065981120090167" stroke="black" stroke-width="0.005"/></g><g stroke-opacity="1" fill-opacity="1"><line x1="-1.4683352845030908" y1="1.1148577492520575" x2="-0.40772341988533073" y2="0.7915073827906686" stroke="black" stroke-width="0.005"/><line x1="-1.4683352845030908" y1="1.0033719743268517" x2="-0.40772341988533073" y2="0.7123566445116017" stroke="black" stroke-width="0.0005"/><text text-anchor="middle" font-size="0.04" fill="black" x="-1.5183352845030909" y="1.0033719743268517">-0.9</text><line x1="-1.4683352845030908" y1="0.8918863057227662" x2="-0.40772341988533073" y2="0.6332059817165611" stroke="black" stroke-width="0.0005"/><text text-anchor="middle" font-size="0.04" fill="black" x="-1.5183352845030909" y="0.8918863057227662">-0.8</text><line x1="-1.4683352845030908" y1="0.7804004776370004" x2="-0.40772341988533073" y2="0.5540552056954812" stroke="black" stroke-width="0.0005"/><text text-anchor="middle" font-size="0.04" fill="black" x="-1.5183352845030909" y="0.7804004776370004">-0.7</text><line x1="-1.4683352845030908" y1="0.6689146495512345" x2="-0.40772341988533073" y2="0.47490442967440116" stroke="black" stroke-width="0.0005"/><text text-anchor="middle" font-size="0.04" fill="black" x="-1.5183352845030909" y="0.6689146495512345">-0.6</text><line x1="-1.4683352845030908" y1="0.5574288746260287" x2="-0.40772341988533073" y2="0.3957536913953343" stroke="black" stroke-width="0.002"/><text text-anchor="middle" font-size="0.04" fill="black" x="-1.5183352845030909" y="0.5574288746260287">-0.5</text><line x1="-1.4683352845030908" y1="0.4459431528613831" x2="-0.40772341988533073" y2="0.31660299085828053" stroke="black" stroke-width="0.0005"/><text text-anchor="middle" font-size="0.04" fill="black" x="-1.5183352845030909" y="0.4459431528613831">-0.4</text><line x1="-1.4683352845030908" y1="0.33445732477561724" x2="-0.40772341988533073" y2="0.23745221483720058" stroke="black" stroke-width="0.0005"/><text text-anchor="middle" font-size="0.04" fill="black" x="-1.5183352845030909" y="0.33445732477561724">-0.3</text><line x1="-1.4683352845030908" y1="0.22297157643069154" x2="-0.40772341988533073" y2="0.15830149542914027" stroke="black" stroke-width="0.0005"/><text text-anchor="middle" font-size="0.04" fill="black" x="-1.5183352845030909" y="0.22297157643069154">-0.2</text><line x1="-1.4683352845030908" y1="0.11148578821534577" x2="-0.40772341988533073" y2="0.07915074771457013" stroke="black" stroke-width="0.0005"/><text text-anchor="middle" font-size="0.04" fill="black" x="-1.5183352845030909" y="0.11148578821534577">-0.1</text><line x1="-1.4683352845030908" y1="0" x2="-0.40772341988533073" y2="0" stroke="black" stroke-width="0.005"/><text text-anchor="middle" font-size="0.04" fill="black" x="-1.5183352845030909" y="0">0.0</text><line x1="-1.4683352845030908" y1="-0.11148578821534577" x2="-0.40772341988533073" y2="-0.07915074771457013" stroke="black" stroke-width="0.0005"/><text text-anchor="middle" font-size="0.04" fill="black" x="-1.5183352845030909" y="-0.11148578821534577">0.1</text><line x1="-1.4683352845030908" y1="-0.22297157643069154" x2="-0.40772341988533073" y2="-0.15830149542914027" stroke="black" stroke-width="0.0005"/><text text-anchor="middle" font-size="0.04" fill="black" x="-1.5183352845030909" y="-0.22297157643069154">0.2</text><line x1="-1.4683352845030908" y1="-0.33445732477561724" x2="-0.40772341988533073" y2="-0.23745221483720058" stroke="black" stroke-width="0.0005"/><text text-anchor="middle" font-size="0.04" fill="black" x="-1.5183352845030909" y="-0.33445732477561724">0.3</text><line x1="-1.4683352845030908" y1="-0.4459431528613831" x2="-0.40772341988533073" y2="-0.31660299085828053" stroke="black" stroke-width="0.0005"/><text text-anchor="middle" font-size="0.04" fill="black" x="-1.5183352845030909" y="-0.4459431528613831">0.4</text><line x1="-1.4683352845030908" y1="-0.5574288746260287" x2="-0.40772341988533073" y2="-0.3957536913953343" stroke="black" stroke-width="0.002"/><text text-anchor="middle" font-size="0.04" fill="black" x="-1.5183352845030909" y="-0.5574288746260287">0.5</text><line x1="-1.4683352845030908" y1="-0.6689146495512345" x2="-0.40772341988533073" y2="-0.47490442967440116" stroke="black" stroke-width="0.0005"/><text text-anchor="middle" font-size="0.04" fill="black" x="-1.5183352845030909" y="-0.6689146495512345">0.6</text><line x1="-1.4683352845030908" y1="-0.7804004776370004" x2="-0.40772341988533073" y2="-0.5540552056954812" stroke="black" stroke-width="0.0005"/><text text-anchor="middle" font-size="0.04" fill="black" x="-1.5183352845030909" y="-0.7804004776370004">0.7</text><line x1="-1.4683352845030908" y1="-0.8918863057227662" x2="-0.40772341988533073" y2="-0.6332059817165611" stroke="black" stroke-width="0.0005"/><text text-anchor="middle" font-size="0.04" fill="black" x="-1.5183352845030909" y="-0.8918863057227662">0.8</text><line x1="-1.4683352845030908" y1="-1.0033719743268517" x2="-0.40772341988533073" y2="-0.7123566445116017" stroke="black" stroke-width="0.0005"/><text text-anchor="middle" font-size="0.04" fill="black" x="-1.5183352845030909" y="-1.0033719743268517">0.9</text><line x1="-1.4683352845030908" y1="-1.1148577492520575" x2="-0.40772341988533073" y2="-0.7915073827906686" stroke="black" stroke-width="0.005"/></g><g stroke-opacity="1" fill-opacity="1"><line x1="-1.4683352845030908" y1="1.1148577492520575" x2="-1.4683352845030908" y2="-1.1148577492520575" stroke="black" stroke-width="0.005"/><line x1="-1.3951355278013602" y1="1.092541167635035" x2="-1.3951355278013602" y2="-1.092541167635035" stroke="black" stroke-width="0.0005"/><line x1="-1.3248089370610312" y1="1.0711006030211734" x2="-1.3248089370610312" y2="-1.0711006030211734" stroke="black" stroke-width="0.0005"/><line x1="-1.2571892672120848" y1="1.0504853621943244" x2="-1.2571892672120848" y2="-1.0504853621943244" stroke="black" stroke-width="0.0005"/><line x1="-1.1921236437043141" y1="1.030648589244111" x2="-1.1921236437043141" y2="-1.030648589244111" stroke="black" stroke-width="0.0005"/><line x1="-1.1294695255989715" y1="1.0115472019699672" x2="-1.1294695255989715" y2="-1.0115472019699672" stroke="black" stroke-width="0.002"/><line x1="-1.0690957219043171" y1="0.9931409573563774" x2="-1.0690957219043171" y2="-0.9931409573563774" stroke="black" stroke-width="0.0005"/><line x1="-1.0108796984046395" y1="0.9753924960963872" x2="-1.0108796984046395" y2="-0.9753924960963872" stroke="black" stroke-width="0.0005"/><line x1="-0.9547078999738267" y1="0.9582673515611178" x2="-0.9547078999738267" y2="-0.9582673515611178" stroke="black" stroke-width="0.0005"/><line x1="-0.9004745057134856" y1="0.9417331699737053" x2="-0.9004745057134856" y2="-0.9417331699737053" stroke="black" stroke-width="0.0005"/><line x1="-0.8480808937997836" y1="0.92575979859187" x2="-0.8480808937997836" y2="-0.92575979859187" stroke="black" stroke-width="0.005"/><line x1="-0.7974349867707241" y1="0.9103193387558447" x2="-0.7974349867707241" y2="-0.9103193387558447" stroke="black" stroke-width="0.0005"/><line x1="-0.7484508009211939" y1="0.8953854062330019" x2="-0.7484508009211939" y2="-0.8953854062330019" stroke="black" stroke-width="0.0005"/><line x1="-0.7010478359755786" y1="0.8809336261892792" x2="-0.7010478359755786" y2="-0.8809336261892792" stroke="black" stroke-width="0.0005"/><line x1="-0.655150843405848" y1="0.8669409479487853" x2="-0.655150843405848" y2="-0.8669409479487853" stroke="black" stroke-width="0.0005"/><line x1="-0.6106890112470289" y1="0.853385767110528" x2="-0.6106890112470289" y2="-0.853385767110528" stroke="black" stroke-width="0.002"/><line x1="-0.5675962386862214" y1="0.8402480158642712" x2="-0.5675962386862214" y2="-0.8402480158642712" stroke="black" stroke-width="0.0005"/><line x1="-0.5258100848669544" y1="0.8275086392821802" x2="-0.5258100848669544" y2="-0.8275086392821802" stroke="black" stroke-width="0.0005"/><line x1="-0.4852720467054324" y1="0.8151497248048758" x2="-0.4852720467054324" y2="-0.8151497248048758" stroke="black" stroke-width="0.0005"/><line x1="-0.44592721748432373" y1="0.8031546024508188" x2="-0.44592721748432373" y2="-0.8031546024508188" stroke="black" stroke-width="0.0005"/><line x1="-0.40772341988533073" y1="0.7915073827906686" x2="-0.40772341988533073" y2="-0.7915073827906686" stroke="black" stroke-width="0.005"/></g>
            ,<polygon style="pointer-events:none; fill:#d0ffe1;opacity:0.7" points="0,-0.7346486568450927 ,-1.1482901830447496,1.0898228524432765 ,0.5221255811463831,1.2669930603778423 "/>,,<line style="pointer-events:none" x1="0" y1="-0.7346486568450927" x2="-1.1482901830447496" y2="1.0898228524432765" stroke="#00aa88"/>,<line style="pointer-events:none" x1="0" y1="-0.7346486568450927" x2="0.5221255811463831" y2="1.2669930603778423" stroke="#00aa88"/>,<line style="pointer-events:none" x1="0" y1="-0.7346486568450927" x2="-0.34037177656416434" y2="0.8259481902963282" stroke="#00aa88"/>,<line style="pointer-events:none" x1="-1.1482901830447496" y1="1.0898228524432765" x2="0.5221255811463831" y2="1.2669930603778423" stroke="#00aa88"/>,<line style="pointer-events:none" x1="-1.1482901830447496" y1="1.0898228524432765" x2="-0.34037177656416434" y2="0.8259481902963282" stroke="#00aa88"/>,<line style="pointer-events:none" x1="0.5221255811463831" y1="1.2669930603778423" x2="0.9734195430781323" y2="0.9238560763870075" stroke="#00aa88"/>,<line style="pointer-events:none" x1="0" y1="-0.7346486568450927" x2="0.9734195430781323" y2="0.9238560763870075" stroke="#00aa88"/>,<line style="pointer-events:none" x1="0.9734195430781323" y1="0.9238560763870075" x2="-0.34037177656416434" y2="0.8259481902963282" stroke="#00aa88"/>,,<circle  cx="0" cy="-0.7346486568450927" r="0.03" fill="#444444"/>,<text x="-0.1" y="-0.7846486568450928" font-family="Verdana" font-size="0.1" style="pointer-events:none" fill="#444444" transform="rotate(0,0,0)"> A </text>,<circle  cx="-1.1482901830447496" cy="1.0898228524432765" r="0.03" fill="#444444"/>,<text x="-1.2482901830447497" y="1.0398228524432764" font-family="Verdana" font-size="0.1" style="pointer-events:none" fill="#444444" transform="rotate(0,0,0)"> B </text>,<circle  cx="0.5221255811463831" cy="1.2669930603778423" r="0.03" fill="#444444"/>,<text x="0.4221255811463831" y="1.2169930603778423" font-family="Verdana" font-size="0.1" style="pointer-events:none" fill="#444444" transform="rotate(0,0,0)"> C </text>,<circle  cx="-0.34037177656416434" cy="0.8259481902963282" r="0.03" fill="#444444"/>,<text x="-0.4403717765641644" y="0.7759481902963281" font-family="Verdana" font-size="0.1" style="pointer-events:none" fill="#444444" transform="rotate(0,0,0)"> D </text>,<circle  cx="0.9734195430781323" cy="0.9238560763870075" r="0.03" fill="#444444"/>,<text x="0.8734195430781323" y="0.8738560763870075" font-family="Verdana" font-size="0.1" style="pointer-events:none" fill="#444444" transform="rotate(0,0,0)"> E </text>,,<line style="pointer-events:none" x1="0" y1="-0.7346486568450927" x2="0.9734195430781323" y2="0.9238560763870075" stroke="#ff8844"/>,<text x="0.48670977153906614" y="0.09460370977095739" font-family="Verdana" font-size="0.1" style="pointer-events:none" fill="#ff8844" transform="rotate(0,0,0)"> 2.07 </text>,,<line style="pointer-events:none" x1="0" y1="-0.7346486568450927" x2="0" y2="1" stroke="#224488"/>,<text x="0" y="0.13267567157745364" font-family="Verdana" font-size="0.1" style="pointer-events:none" fill="#224488" transform="rotate(0,0,0)"> 1.73 </text>,,<circle  cx="0.7831140809897355" cy="1.0685530262468963" r="0.03" fill="#44aa44"/>,<text x="0.6831140809897355" y="1.0185530262468963" font-family="Verdana" font-size="0.1" style="pointer-events:none" fill="#44aa44" transform="rotate(0,0,0)"> 1.60 </text>,,<polygon style="pointer-events:none; fill:#44aaff;opacity:0.7" points="0.19481363739248267,0.38423747861932067 ,0.19481363739248267,0.9109820644393923 ,0.27976827514801783,0.8721629829288862 "/>,<text x="0.22313184997766103" y="0.7224608419958664" font-family="Verdana" font-size="0.1" style="pointer-events:none" fill="#44aaff" transform="rotate(0,0,0)"> 65.24° </text>,,<polygon style="pointer-events:none; fill:#884488;opacity:0.7" points="0,-0.7346486568450927 ,-0.12835031893598658,-0.14616527119301354 ,-0.36113774206886856,-0.16085150058591738 "/>,<text x="-0.16316268700161837" y="-0.34722180954134124" font-family="Verdana" font-size="0.1" style="pointer-events:none" fill="#884488" transform="rotate(0,0,0)"> 45.45° </text></svg>