<svg xmlns="http://www.w3.org/2000/svg" viewBox="-2 -2 4 4" style="width: 1024px; height: 1024px; background-color: rgb(238, 238, 238); user-select: none;" stroke-width="0.015">
            <g stroke-opacity="1" fill-opacity="1"><line x1="1.1082624355743076" y1="0.6738156822389019" x2="-0.43606276833519503" y2="0.43846206293126894" stroke="black" stroke-width="0.005"/><line x1="1.093916747815612" y1="0.7081967123400349" x2="-0.4702090017935796" y2="0.4658960848751322" stroke="black" stroke-width="0.0005"/><text text-anchor="middle" font-size="0.04" fill="black" x="1.093916747815612" y="0.7581967123400349">0.9</text><line x1="1.0791197396263041" y1="0.7436591014062026" x2="-0.5053122048858447" y2="0.4940991052243873" stroke="black" stroke-width="0.0005"/><text text-anchor="middle" font-size="0.04" fill="black" x="1.0791197396263041" y="0.7936591014062027">0.8</text><line x1="1.0638499629877236" y1="0.7802548084085251" x2="-0.5414132153909619" y2="0.5231036440661195" stroke="black" stroke-width="0.0005"/><text text-anchor="middle" font-size="0.04" fill="black" x="1.0638499629877236" y="0.8302548084085252">0.7</text><line x1="1.048084466601101" y1="0.8180389793677005" x2="-0.5785552329170259" y2="0.5529446018174803" stroke="black" stroke-width="0.0005"/><text text-anchor="middle" font-size="0.04" fill="black" x="1.048084466601101" y="0.8680389793677006">0.6</text><line x1="1.0317983501922579" y1="0.8570705522055349" x2="-0.6167838633204111" y2="0.5836586068605204" stroke="black" stroke-width="0.002"/><text text-anchor="middle" font-size="0.04" fill="black" x="1.0317983501922579" y="0.9070705522055349">0.5</text><line x1="1.0149655798135346" y1="0.8974119812537046" x2="-0.6561476471372959" y2="0.6152844927606976" stroke="black" stroke-width="0.0005"/><text text-anchor="middle" font-size="0.04" fill="black" x="1.0149655798135346" y="0.9474119812537046">0.4</text><line x1="0.9975581668728265" y1="0.9391307757813445" x2="-0.6966976818091545" y2="0.6478635801786181" stroke="black" stroke-width="0.0005"/><text text-anchor="middle" font-size="0.04" fill="black" x="0.9975581668728265" y="0.9891307757813446">0.3</text><line x1="0.9795461712588274" y1="0.9822985196966911" x2="-0.7384886106922467" y2="0.681439572580188" stroke="black" stroke-width="0.0005"/><text text-anchor="middle" font-size="0.04" fill="black" x="0.9795461712588274" y="1.0322985196966912">0.2</text><line x1="0.9608975393956578" y1="1.0269920329471167" x2="-0.7815781085107174" y2="0.7160590213711295" stroke="black" stroke-width="0.0005"/><text text-anchor="middle" font-size="0.04" fill="black" x="0.9608975393956578" y="1.0769920329471168">0.1</text><line x1="0.9415779166964529" y1="1.0732936565360256" x2="-0.8260276747875648" y2="0.7517710151662204" stroke="black" stroke-width="0.005"/><text text-anchor="middle" font-size="0.04" fill="black" x="0.9415779166964529" y="1.1232936565360256">0.0</text><line x1="0.9215504158277985" y1="1.121291782307925" x2="-0.8719029626893062" y2="0.7886285829211737" stroke="black" stroke-width="0.0005"/><text text-anchor="middle" font-size="0.04" fill="black" x="0.9215504158277985" y="1.171291782307925">-0.1</text><line x1="0.9007755094208834" y1="1.1710813878138746" x2="-0.9192735222693266" y2="0.8266873217679312" stroke="black" stroke-width="0.0005"/><text text-anchor="middle" font-size="0.04" fill="black" x="0.9007755094208834" y="1.2210813878138747">-0.2</text><line x1="0.8792102643192982" y1="1.2227645535298926" x2="-0.9682136706244502" y2="0.86600728647612" stroke="black" stroke-width="0.0005"/><text text-anchor="middle" font-size="0.04" fill="black" x="0.8792102643192982" y="1.2727645535298926">-0.3</text><line x1="0.8568090058315494" y1="1.276451546897552" x2="-1.018802640790433" y2="0.9066517750817353" stroke="black" stroke-width="0.0005"/><text text-anchor="middle" font-size="0.04" fill="black" x="0.8568090058315494" y="1.326451546897552">-0.4</text><line x1="0.8335221636545919" y1="1.3322614010144116" x2="-1.071125280296705" y2="0.948689403860054" stroke="black" stroke-width="0.002"/><text text-anchor="middle" font-size="0.04" fill="black" x="0.8335221636545919" y="1.3822614010144116">-0.5</text><line x1="0.8092959959443304" y1="1.3903222298147224" x2="-1.1252723578002397" y2="0.9921926742497078" stroke="black" stroke-width="0.0005"/><text text-anchor="middle" font-size="0.04" fill="black" x="0.8092959959443304" y="1.4403222298147225">-0.6</text><line x1="0.7840725567335847" y1="1.4507731357642362" x2="-1.181340588626655" y2="1.0372395970416068" stroke="black" stroke-width="0.0005"/><text text-anchor="middle" font-size="0.04" fill="black" x="0.7840725567335847" y="1.5007731357642362">-0.7</text><line x1="0.7577888312780395" y1="1.513764631420111" x2="-1.2394346904885056" y2="1.0839140193558892" stroke="black" stroke-width="0.0005"/><text text-anchor="middle" font-size="0.04" fill="black" x="0.7577888312780395" y="1.563764631420111">-0.8</text><line x1="0.7303767735352553" y1="1.5794605526030243" x2="-1.2996661575490478" y2="1.1323057590187113" stroke="black" stroke-width="0.0005"/><text text-anchor="middle" font-size="0.04" fill="black" x="0.7303767735352553" y="1.6294605526030244">-0.9</text><line x1="0.7017621519028088" y1="1.6480391804427665" x2="-1.3621550550708574" y2="1.1825111652629527" stroke="black" stroke-width="0.005"/></g><g stroke-opacity="1" fill-opacity="1"><line x1="1.1082624355743076" y1="0.6738156822389019" x2="0.7017621519028088" y2="1.6480391804427665" stroke="black" stroke-width="0.005"/><line x1="1.0224004966451854" y1="0.6607303940862987" x2="0.5819853312900329" y2="1.6210226814729842" stroke="black" stroke-width="0.0005"/><text text-anchor="middle" font-size="0.04" fill="black" x="0.5819853312900329" y="1.6710226814729843">0.9</text><line x1="0.937544751448448" y1="0.6477984244262273" x2="0.4642173252437625" y2="1.5944594001757109" stroke="black" stroke-width="0.0005"/><text text-anchor="middle" font-size="0.04" fill="black" x="0.4642173252437625" y="1.644459400175711">0.8</text><line x1="0.8536773781544695" y1="0.635017134449369" x2="0.34840804696449024" y2="1.5683380297823597" stroke="black" stroke-width="0.0005"/><text text-anchor="middle" font-size="0.04" fill="black" x="0.34840804696449024" y="1.6183380297823597">0.7</text><line x1="0.7707812684948823" y1="0.6223839163478567" x2="0.2345089625812743" y2="1.5426474093216571" stroke="black" stroke-width="0.0005"/><text text-anchor="middle" font-size="0.04" fill="black" x="0.2345089625812743" y="1.5926474093216572">0.6</text><line x1="0.6888396769192338" y1="0.6098960733077713" x2="0.12247323890086484" y2="1.517377193698032" stroke="black" stroke-width="0.002"/><text text-anchor="middle" font-size="0.04" fill="black" x="0.12247323890086484" y="1.567377193698032">0.5</text><line x1="0.6078362000774614" y1="0.5975512377421142" x2="0.012255545193597438" y2="1.4925169265184246" stroke="black" stroke-width="0.0005"/><text text-anchor="middle" font-size="0.04" fill="black" x="0.012255545193597438" y="1.5425169265184246">0.4</text><line x1="0.5277548979439196" y1="0.5853469285802654" x2="-0.09618806989630493" y2="1.4680569833391923" stroke="black" stroke-width="0.0005"/><text text-anchor="middle" font-size="0.04" fill="black" x="-0.09618806989630493" y="1.5180569833391924">0.3</text><line x1="0.4485799574730948" y1="0.5732806819397233" x2="-0.20290001725505222" y2="1.443987450111289" stroke="black" stroke-width="0.0005"/><text text-anchor="middle" font-size="0.04" fill="black" x="-0.20290001725505222" y="1.493987450111289">0.2</text><line x1="0.3702961541341628" y1="0.5613503219552005" x2="-0.30792152210218504" y2="1.42029943090388" stroke="black" stroke-width="0.0005"/><text text-anchor="middle" font-size="0.04" fill="black" x="-0.30792152210218504" y="1.47029943090388">0.1</text><line x1="0.2928885271074029" y1="0.5495534902149414" x2="-0.4112924237823772" y2="1.3969833901356166" stroke="black" stroke-width="0.005"/><text text-anchor="middle" font-size="0.04" fill="black" x="-0.4112924237823772" y="1.4469833901356166">0.0</text><line x1="0.21634242685775876" y1="0.5378879986925696" x2="-0.5130513728007623" y2="1.374031056249512" stroke="black" stroke-width="0.0005"/><text text-anchor="middle" font-size="0.04" fill="black" x="-0.5130513728007623" y="1.424031056249512">-0.1</text><line x1="0.1406436253600482" y1="0.5263515457917287" x2="-0.613235635773037" y2="1.3514340248396632" stroke="black" stroke-width="0.0005"/><text text-anchor="middle" font-size="0.04" fill="black" x="-0.613235635773037" y="1.4014340248396633">-0.2</text><line x1="0.06577802691500856" y1="0.5149420804899962" x2="-0.7118816795047535" y2="1.329183929996453" stroke="black" stroke-width="0.0005"/><text text-anchor="middle" font-size="0.04" fill="black" x="-0.7118816795047535" y="1.379183929996453">-0.3</text><line x1="-0.00826799445116352" y1="0.5036575175385244" x2="-0.8090245593885173" y2="1.307272776121007" stroke="black" stroke-width="0.0005"/><text text-anchor="middle" font-size="0.04" fill="black" x="-0.8090245593885173" y="1.357272776121007">-0.4</text><line x1="-0.08150776565896278" y1="0.49249585458841744" x2="-0.9046983212677949" y2="1.2856928746422052" stroke="black" stroke-width="0.002"/><text text-anchor="middle" font-size="0.04" fill="black" x="-0.9046983212677949" y="1.3356928746422052">-0.5</text><line x1="-0.15395453359294123" y1="0.4814550580765365" x2="-0.9989359889813405" y2="1.264437077905082" stroke="black" stroke-width="0.0005"/><text text-anchor="middle" font-size="0.04" fill="black" x="-0.9989359889813405" y="1.314437077905082">-0.6</text><line x1="-0.22562099140243352" y1="0.4705331731476778" x2="-1.091769961534397" y2="1.2434978356044353" stroke="black" stroke-width="0.0005"/><text text-anchor="middle" font-size="0.04" fill="black" x="-1.091769961534397" y="1.2934978356044353">-0.7</text><line x1="-0.2965197236576319" y1="0.45972825566479575" x2="-1.1832310686825744" y2="1.2228683299507648" stroke="black" stroke-width="0.0005"/><text text-anchor="middle" font-size="0.04" fill="black" x="-1.1832310686825744" y="1.2728683299507648">-0.8</text><line x1="-0.3666629116512136" y1="0.44903850811156726" x2="-1.2733495383845186" y2="1.2025415389231593" stroke="black" stroke-width="0.0005"/><text text-anchor="middle" font-size="0.04" fill="black" x="-1.2733495383845186" y="1.2525415389231593">-0.9</text><line x1="-0.43606276833519503" y1="0.43846206293126894" x2="-1.3621550550708574" y2="1.1825111652629527" stroke="black" stroke-width="0.005"/></g><g stroke-opacity="1" fill-opacity="1"><line x1="1.1082624355743076" y1="0.6738156822389019" x2="1.2330600828046037" y2="-1.0704415109927823" stroke="black" stroke-width="0.005"/><line x1="1.0224004966451854" y1="0.6607303940862987" x2="1.1367752600483918" y2="-1.0735618378302372" stroke="black" stroke-width="0.0005"/><line x1="0.937544751448448" y1="0.6477984244262273" x2="1.041744066718344" y2="-1.0766416305501296" stroke="black" stroke-width="0.0005"/><line x1="0.8536773781544695" y1="0.635017134449369" x2="0.9479420013250599" y2="-1.0796814974370506" stroke="black" stroke-width="0.0005"/><line x1="0.7707812684948823" y1="0.6223839163478567" x2="0.8553454448894692" y2="-1.0826824810249829" stroke="black" stroke-width="0.0005"/><line x1="0.6888396769192338" y1="0.6098960733077713" x2="0.7639314117738525" y2="-1.0856449600311266" stroke="black" stroke-width="0.002"/><line x1="0.6078362000774614" y1="0.5975512377421142" x2="0.6736772156400983" y2="-1.0885700238382667" stroke="black" stroke-width="0.0005"/><line x1="0.5277548979439196" y1="0.5853469285802654" x2="0.5845609638589371" y2="-1.0914581195643036" stroke="black" stroke-width="0.0005"/><line x1="0.4485799574730948" y1="0.5732806819397233" x2="0.49656131241746954" y2="-1.0943099420079596" stroke="black" stroke-width="0.0005"/><line x1="0.3702961541341628" y1="0.5613503219552005" x2="0.4096575345990049" y2="-1.0971263401808118" stroke="black" stroke-width="0.0005"/><line x1="0.2928885271074029" y1="0.5495534902149414" x2="0.32382903313618" y2="-1.0999078864002725" stroke="black" stroke-width="0.005"/><line x1="0.21634242685775876" y1="0.5378879986925696" x2="0.23905614091080962" y2="-1.1026553083126998" stroke="black" stroke-width="0.0005"/><line x1="0.1406436253600482" y1="0.5263515457917287" x2="0.15531948473771973" y2="-1.1053689879044828" stroke="black" stroke-width="0.0005"/><line x1="0.06577802691500856" y1="0.5149420804899962" x2="0.07260015809382392" y2="-1.1080497736992423" stroke="black" stroke-width="0.0005"/><line x1="-0.00826799445116352" y1="0.5036575175385244" x2="-0.009120306499755608" y2="-1.1106981868936001" stroke="black" stroke-width="0.0005"/><line x1="-0.08150776565896278" y1="0.49249585458841744" x2="-0.08985983927187154" y2="-1.1133148103552426" stroke="black" stroke-width="0.002"/><line x1="-0.15395453359294123" y1="0.4814550580765365" x2="-0.16963602988760307" y2="-1.11590013086612" stroke="black" stroke-width="0.0005"/><line x1="-0.22562099140243352" y1="0.4705331731476778" x2="-0.2484659996962796" y2="-1.1184548687283438" stroke="black" stroke-width="0.0005"/><line x1="-0.2965197236576319" y1="0.45972825566479575" x2="-0.32636648010576474" y2="-1.1209794934595407" stroke="black" stroke-width="0.0005"/><line x1="-0.3666629116512136" y1="0.44903850811156726" x2="-0.4033538181784715" y2="-1.1234745152024934" stroke="black" stroke-width="0.0005"/><line x1="-0.43606276833519503" y1="0.43846206293126894" x2="-0.47944397589723226" y2="-1.1259405411982488" stroke="black" stroke-width="0.005"/></g><g stroke-opacity="1" fill-opacity="1"><line x1="1.1082624355743076" y1="0.6738156822389019" x2="-0.43606276833519503" y2="0.43846206293126894" stroke="black" stroke-width="0.005"/><line x1="1.1138992190817378" y1="0.5950309260176911" x2="-0.43804449460919953" y2="0.3669961221963177" stroke="black" stroke-width="0.0005"/><text text-anchor="middle" font-size="0.04" fill="black" x="1.1638992190817379" y="0.5950309260176911">-0.9</text><line x1="1.1195937180434634" y1="0.5154406396285512" x2="-0.44004435254913715" y2="0.29487771078142344" stroke="black" stroke-width="0.0005"/><text text-anchor="middle" font-size="0.04" fill="black" x="1.1695937180434635" y="0.5154406396285512">-0.8</text><line x1="1.1253467392580476" y1="0.4350323639889972" x2="-0.44206255462838345" y2="0.22209770328233933" stroke="black" stroke-width="0.0005"/><text text-anchor="middle" font-size="0.04" fill="black" x="1.1753467392580477" y="0.4350323639889972">-0.7</text><line x1="1.1311591895331603" y1="0.35379354929147616" x2="-0.4440993915805598" y2="0.14864709419832906" stroke="black" stroke-width="0.0005"/><text text-anchor="middle" font-size="0.04" fill="black" x="1.1811591895331603" y="0.35379354929147616">-0.6</text><line x1="1.1370319945084966" y1="0.2717111337820116" x2="-0.44615504346796037" y2="0.07451648345328556" stroke="black" stroke-width="0.002"/><text text-anchor="middle" font-size="0.04" fill="black" x="1.1870319945084966" y="0.2717111337820116">-0.5</text><line x1="1.1429661953968882" y1="0.18877196734992224" x2="-0.4482297848993109" y2="-0.00030361037938613454" stroke="black" stroke-width="0.0005"/><text text-anchor="middle" font-size="0.04" fill="black" x="1.1929661953968882" y="0.18877196734992224">-0.4</text><line x1="1.1489625655049698" y1="0.10496250540187174" x2="-0.4503240182881377" y2="-0.07582281711892476" stroke="black" stroke-width="0.0005"/><text text-anchor="middle" font-size="0.04" fill="black" x="1.1989625655049698" y="0.10496250540187174">-0.3</text><line x1="1.1550222703313573" y1="0.02026903716558336" x2="-0.45243784053296304" y2="-0.15205103310856904" stroke="black" stroke-width="0.0005"/><text text-anchor="middle" font-size="0.04" fill="black" x="1.2050222703313573" y="0.02026903716558336">-0.2</text><line x1="1.1611460606198005" y1="-0.06532249957973614" x2="-0.45457156289432754" y2="-0.22899820273004226" stroke="black" stroke-width="0.0005"/><text text-anchor="middle" font-size="0.04" fill="black" x="1.2111460606198006" y="-0.06532249957973614">-0.1</text><line x1="1.167335219155921" y1="-0.151826485687329" x2="-0.4567255447196654" y2="-0.3066746274791619" stroke="black" stroke-width="0.005"/><text text-anchor="middle" font-size="0.04" fill="black" x="1.217335219155921" y="-0.151826485687329">0.0</text><line x1="1.1735907968216541" y1="-0.23925758324481297" x2="-0.45890007537781863" y2="-0.3850906946036795" stroke="black" stroke-width="0.0005"/><text text-anchor="middle" font-size="0.04" fill="black" x="1.2235907968216542" y="-0.23925758324481297">0.1</text><line x1="1.1799136063481688" y1="-0.32763079884136187" x2="-0.46109533399042246" y2="-0.46425705765528785" stroke="black" stroke-width="0.0005"/><text text-anchor="middle" font-size="0.04" fill="black" x="1.2299136063481688" y="-0.32763079884136187">0.2</text><line x1="1.1863050024975559" y1="-0.41696135496454256" x2="-0.4633117358049729" y2="-0.5441844586835389" stroke="black" stroke-width="0.0005"/><text text-anchor="middle" font-size="0.04" fill="black" x="1.236305002497556" y="-0.41696135496454256">0.3</text><line x1="1.1927661059071764" y1="-0.5072650473978422" x2="-0.46554954822114" y2="-0.6248839252111674" stroke="black" stroke-width="0.0005"/><text text-anchor="middle" font-size="0.04" fill="black" x="1.2427661059071764" y="-0.5072650473978422">0.4</text><line x1="1.1992977966791358" y1="-0.5985576865727362" x2="-0.4678091221433588" y2="-0.7063667771617813" stroke="black" stroke-width="0.002"/><text text-anchor="middle" font-size="0.04" fill="black" x="1.2492977966791359" y="-0.5985576865727362">0.5</text><line x1="1.205901507384103" y1="-0.69085583096259" x2="-0.4700906949248364" y2="-0.7886444993144053" stroke="black" stroke-width="0.0005"/><text text-anchor="middle" font-size="0.04" fill="black" x="1.255901507384103" y="-0.69085583096259">0.6</text><line x1="1.2125784343023518" y1="-0.7841758697290384" x2="-0.4723945971140766" y2="-0.8717285916710807" stroke="black" stroke-width="0.0005"/><text text-anchor="middle" font-size="0.04" fill="black" x="1.2625784343023518" y="-0.7841758697290384">0.7</text><line x1="1.2193296403864091" y1="-0.8785353097286223" x2="-0.47472130844249816" y2="-0.9556312327816959" stroke="black" stroke-width="0.0005"/><text text-anchor="middle" font-size="0.04" fill="black" x="1.2693296403864092" y="-0.8785353097286223">0.8</text><line x1="1.2261565149267337" y1="-0.9739510976902495" x2="-0.47707097455046765" y2="-1.040364368178968" stroke="black" stroke-width="0.0005"/><text text-anchor="middle" font-size="0.04" fill="black" x="1.2761565149267338" y="-0.9739510976902495">0.9</text><line x1="1.2330600828046037" y1="-1.0704415109927823" x2="-0.47944397589723226" y2="-1.1259405411982488" stroke="black" stroke-width="0.005"/></g><g stroke-opacity="1" fill-opacity="1"><line x1="-0.43606276833519503" y1="0.43846206293126894" x2="-1.3621550550708574" y2="1.1825111652629527" stroke="black" stroke-width="0.005"/><line x1="-0.43804449460919953" y1="0.3669961221963177" x2="-1.370680500107653" y2="1.0887482645249718" stroke="black" stroke-width="0.0005"/><text text-anchor="middle" font-size="0.04" fill="black" x="-1.420680500107653" y="1.0887482645249718">-0.9</text><line x1="-0.44004435254913715" y1="0.29487771078142344" x2="-1.3793131307218656" y2="0.9938045040285205" stroke="black" stroke-width="0.0005"/><text text-anchor="middle" font-size="0.04" fill="black" x="-1.4293131307218656" y="0.9938045040285205">-0.8</text><line x1="-0.44206255462838345" y1="0.22209770328233933" x2="-1.3880553940290674" y2="0.8976570216433677" stroke="black" stroke-width="0.0005"/><text text-anchor="middle" font-size="0.04" fill="black" x="-1.4380553940290675" y="0.8976570216433677">-0.7</text><line x1="-0.4440993915805598" y1="0.14864709419832906" x2="-1.3969089762185318" y2="0.8002831952984393" stroke="black" stroke-width="0.0005"/><text text-anchor="middle" font-size="0.04" fill="black" x="-1.4469089762185319" y="0.8002831952984393">-0.6</text><line x1="-0.44615504346796037" y1="0.07451648345328556" x2="-1.4058763318434255" y2="0.7016589933923661" stroke="black" stroke-width="0.002"/><text text-anchor="middle" font-size="0.04" fill="black" x="-1.4558763318434256" y="0.7016589933923661">-0.5</text><line x1="-0.4482297848993109" y1="-0.00030361037938613454" x2="-1.4149596661410027" y2="0.6017605451365067" stroke="black" stroke-width="0.0005"/><text text-anchor="middle" font-size="0.04" fill="black" x="-1.4649596661410027" y="0.6017605451365067">-0.4</text><line x1="-0.4503240182881377" y1="-0.07582281711892476" x2="-1.4241609269262014" y2="0.5005627292547232" stroke="black" stroke-width="0.0005"/><text text-anchor="middle" font-size="0.04" fill="black" x="-1.4741609269262015" y="0.5005627292547232">-0.3</text><line x1="-0.45243784053296304" y1="-0.15205103310856904" x2="-1.433482746700776" y2="0.3980402420143799" stroke="black" stroke-width="0.0005"/><text text-anchor="middle" font-size="0.04" fill="black" x="-1.483482746700776" y="0.3980402420143799">-0.2</text><line x1="-0.45457156289432754" y1="-0.22899820273004226" x2="-1.4429276618110651" y2="0.2941667454252095" stroke="black" stroke-width="0.0005"/><text text-anchor="middle" font-size="0.04" fill="black" x="-1.4929276618110652" y="0.2941667454252095">-0.1</text><line x1="-0.4567255447196654" y1="-0.3066746274791619" x2="-1.4524974926191183" y2="0.18891539135902827" stroke="black" stroke-width="0.005"/><text text-anchor="middle" font-size="0.04" fill="black" x="-1.5024974926191184" y="0.18891539135902827">0.0</text><line x1="-0.45890007537781863" y1="-0.3850906946036795" x2="-1.4621952187771379" y2="0.08225859760750329" stroke="black" stroke-width="0.0005"/><text text-anchor="middle" font-size="0.04" fill="black" x="-1.512195218777138" y="0.08225859760750329">0.1</text><line x1="-0.46109533399042246" y1="-0.46425705765528785" x2="-1.4720234192169546" y2="-0.025831967191557212" stroke="black" stroke-width="0.0005"/><text text-anchor="middle" font-size="0.04" fill="black" x="-1.5220234192169546" y="-0.025831967191557212">0.2</text><line x1="-0.4633117358049729" y1="-0.5441844586835389" x2="-1.4819844151113606" y2="-0.13538543538905498" stroke="black" stroke-width="0.0005"/><text text-anchor="middle" font-size="0.04" fill="black" x="-1.5319844151113606" y="-0.13538543538905498">0.3</text><line x1="-0.46554954822114" y1="-0.6248839252111674" x2="-1.492081250483702" y2="-0.24643170920898033" stroke="black" stroke-width="0.0005"/><text text-anchor="middle" font-size="0.04" fill="black" x="-1.542081250483702" y="-0.24643170920898033">0.4</text><line x1="-0.4678091221433588" y1="-0.7063667771617813" x2="-1.5023166101372987" y2="-0.35900146294159846" stroke="black" stroke-width="0.002"/><text text-anchor="middle" font-size="0.04" fill="black" x="-1.5523166101372987" y="-0.35900146294159846">0.5</text><line x1="-0.4700906949248364" y1="-0.7886444993144053" x2="-1.5126933645039176" y2="-0.47312629324823835" stroke="black" stroke-width="0.0005"/><text text-anchor="middle" font-size="0.04" fill="black" x="-1.5626933645039176" y="-0.47312629324823835">0.6</text><line x1="-0.4723945971140766" y1="-0.8717285916710807" x2="-1.5232144638731433" y2="-0.5888385916662954" stroke="black" stroke-width="0.0005"/><text text-anchor="middle" font-size="0.04" fill="black" x="-1.5732144638731433" y="-0.5888385916662954">0.7</text><line x1="-0.47472130844249816" y1="-0.9556312327816959" x2="-1.5338829411889683" y2="-0.7061718832286917" stroke="black" stroke-width="0.0005"/><text text-anchor="middle" font-size="0.04" fill="black" x="-1.5838829411889683" y="-0.7061718832286917">0.8</text><line x1="-0.47707097455046765" y1="-1.040364368178968" x2="-1.5447020907660225" y2="-0.8251603913033384" stroke="black" stroke-width="0.0005"/><text text-anchor="middle" font-size="0.04" fill="black" x="-1.5947020907660225" y="-0.8251603913033384">0.9</text><line x1="-0.47944397589723226" y1="-1.1259405411982488" x2="-1.5556748852476905" y2="-0.9458392710043405" stroke="black" stroke-width="0.005"/></g><g stroke-opacity="1" fill-opacity="1"><line x1="-0.43606276833519503" y1="0.43846206293126894" x2="-0.47944397589723226" y2="-1.1259405411982488" stroke="black" stroke-width="0.005"/><line x1="-0.4702090017935796" y1="0.4658960848751322" x2="-0.5176989228754859" y2="-1.1195386496876818" stroke="black" stroke-width="0.0005"/><line x1="-0.5053122048858447" y1="0.4940991052243873" x2="-0.5571360262508614" y2="-1.112939088856879" stroke="black" stroke-width="0.0005"/><line x1="-0.5414132153909619" y1="0.5231036440661195" x2="-0.5978109469962396" y2="-1.1061324040991947" stroke="black" stroke-width="0.0005"/><line x1="-0.5785552329170259" y1="0.5529446018174803" x2="-0.6397828025632696" y2="-1.0991086785483912" stroke="black" stroke-width="0.0005"/><line x1="-0.6167838633204111" y1="0.5836586068605204" x2="-0.6831146732523244" y2="-1.0918573630368156" stroke="black" stroke-width="0.002"/><line x1="-0.6561476471372959" y1="0.6152844927606976" x2="-0.7278736422869198" y2="-1.0843670296642007" stroke="black" stroke-width="0.0005"/><line x1="-0.6966976818091545" y1="0.6478635801786181" x2="-0.7741316568669446" y2="-1.0766261362009084" stroke="black" stroke-width="0.0005"/><line x1="-0.7384886106922467" y1="0.681439572580188" x2="-0.8219651461763462" y2="-1.0686215089680737" stroke="black" stroke-width="0.0005"/><line x1="-0.7815781085107174" y1="0.7160590213711295" x2="-0.8714558990811618" y2="-1.0603395337906973" stroke="black" stroke-width="0.0005"/><line x1="-0.8260276747875648" y1="0.7517710151662204" x2="-0.9226916682032053" y2="-1.0517654427322385" stroke="black" stroke-width="0.005"/><line x1="-0.8719029626893062" y1="0.7886285829211737" x2="-0.9757663819131408" y2="-1.0428836157418904" stroke="black" stroke-width="0.0005"/><line x1="-0.9192735222693266" y1="0.8266873217679312" x2="-1.0307809651159958" y2="-1.0336772741031164" stroke="black" stroke-width="0.0005"/><line x1="-0.9682136706244502" y1="0.86600728647612" x2="-1.0878436450523785" y2="-1.0241281964634428" stroke="black" stroke-width="0.0005"/><line x1="-1.018802640790433" y1="0.9066517750817353" x2="-1.1470708450879619" y2="-1.014216777595419" stroke="black" stroke-width="0.0005"/><line x1="-1.071125280296705" y1="0.948689403860054" x2="-1.2085882386438642" y2="-1.0039223157224466" stroke="black" stroke-width="0.002"/><line x1="-1.1252723578002397" y1="0.9921926742497078" x2="-1.2725313759291996" y2="-0.9932217308346897" stroke="black" stroke-width="0.0005"/><line x1="-1.181340588626655" y1="1.0372395970416068" x2="-1.3390461460915943" y2="-0.9820907369631853" stroke="black" stroke-width="0.0005"/><line x1="-1.2394346904885056" y1="1.0839140193558892" x2="-1.408291618703498" y2="-0.9705029397809022" stroke="black" stroke-width="0.0005"/><line x1="-1.2996661575490478" y1="1.1323057590187113" x2="-1.480439087307777" y2="-0.9584295117015362" stroke="black" stroke-width="0.0005"/><line x1="-1.3621550550708574" y1="1.1825111652629527" x2="-1.5556748852476905" y2="-0.9458392710043405" stroke="black" stroke-width="0.005"/></g>
            <text x="-2" y="-1.85" font-family="Verdana" font-size="0.1" style="pointer-events:none" fill="#444" transform="rotate(0,0,0)"> Drag A,B,C,D,E </text>,,<polygon style="pointer-events:none; fill:#d0ffe1;opacity:0.7" points="-1.1299428716187063e-9,-0.8021998086078422 ,-0.36257800267477847,0.5165807584841364 ,0.9034494143281854,0.7159897528753578 "/>,,<line style="pointer-events:none" x1="-1.1299428716187063e-9" y1="-0.8021998086078422" x2="-0.36257800267477847" y2="0.5165807584841364" stroke="#00aa88"/>,<line style="pointer-events:none" x1="-1.1299428716187063e-9" y1="-0.8021998086078422" x2="-1.065318653554063" y2="1.1213879944072236" stroke="#00aa88"/>,<line style="pointer-events:none" x1="-1.1299428716187063e-9" y1="-0.8021998086078422" x2="0.9034494143281854" y2="0.7159897528753578" stroke="#00aa88"/>,<line style="pointer-events:none" x1="-1.1299428716187063e-9" y1="-0.8021998086078422" x2="0.5291667976987373" y2="1.4645596635893692" stroke="#00aa88"/>,<line style="pointer-events:none" x1="-0.36257800267477847" y1="0.5165807584841364" x2="-1.065318653554063" y2="1.1213879944072236" stroke="#00aa88"/>,<line style="pointer-events:none" x1="-1.065318653554063" y1="1.1213879944072236" x2="0.5291667976987373" y2="1.4645596635893692" stroke="#00aa88"/>,<line style="pointer-events:none" x1="0.5291667976987373" y1="1.4645596635893692" x2="0.9034494143281854" y2="0.7159897528753578" stroke="#00aa88"/>,<line style="pointer-events:none" x1="0.9034494143281854" y1="0.7159897528753578" x2="-0.36257800267477847" y2="0.5165807584841364" stroke="#00aa88"/>,,<circle  cx="-1.1299428716187063e-9" cy="-0.8021998086078422" r="0.03" fill="#224488"/>,<text x="-0.10000000112994288" y="-0.8521998086078423" font-family="Verdana" font-size="0.1" style="pointer-events:none" fill="#224488" transform="rotate(0,0,0)"> A </text>,<circle  cx="-0.36257800267477847" cy="0.5165807584841364" r="0.03" fill="#224488"/>,<text x="-0.46257800267477844" y="0.46658075848413644" font-family="Verdana" font-size="0.1" style="pointer-events:none" fill="#224488" transform="rotate(0,0,0)"> B </text>,<circle  cx="-1.065318653554063" cy="1.1213879944072236" r="0.03" fill="#224488"/>,<text x="-1.1653186535540632" y="1.0713879944072235" font-family="Verdana" font-size="0.1" style="pointer-events:none" fill="#224488" transform="rotate(0,0,0)"> C </text>,<circle  cx="0.9034494143281854" cy="0.7159897528753578" r="0.03" fill="#224488"/>,<text x="0.8034494143281854" y="0.6659897528753578" font-family="Verdana" font-size="0.1" style="pointer-events:none" fill="#224488" transform="rotate(0,0,0)"> D </text>,<circle  cx="0.5291667976987373" cy="1.4645596635893692" r="0.03" fill="#224488"/>,<text x="0.42916679769873733" y="1.4145596635893691" font-family="Verdana" font-size="0.1" style="pointer-events:none" fill="#224488" transform="rotate(0,0,0)"> E </text>,,<line style="pointer-events:none" x1="-2.0414642349461616" y1="0.9112980965430171" x2="2.0229440004666843" y2="1.7860566567884355" stroke="#884488"/>,<text x="-0.00926011723973863" y="1.3486773766657263" font-family="Verdana" font-size="0.1" style="pointer-events:none" fill="#884488" transform="rotate(0,0,0)"> E&amp;C </text>,<polygon style="pointer-events:none; fill:#884488;opacity:0.7" points="-0.4147476509679419,0.379885343524423 ,-0.6833733874245247,0.5911611642836393 ,-0.4742530488732363,0.08462430121299395 ,-0.4147476509679419,0.379885343524423 ,-0.4742530488732363,0.08462430121299395 ,-0.21445296262883026,-0.08429090513614408 "/>,<text x="-0.44597129162261856" y="0.23931492477038818" font-family="Verdana" font-size="0.1" style="pointer-events:none" fill="#884488" transform="rotate(0,0,0)"> A&amp;B&amp;C </text>,,<circle  cx="-0.6690325719143664" cy="0.7803280680489411" r="0.03" fill="#884488"/>,<text x="-0.7690325719143664" y="0.730328068048941" font-family="Verdana" font-size="0.1" style="pointer-events:none" fill="#884488" transform="rotate(0,0,0)"> B+C </text>,<circle  cx="2.265533312579571e-10" cy="0.3733089415336537" r="0.03" fill="#884488"/>,<text x="-0.09999999977344667" y="0.3233089415336537" font-family="Verdana" font-size="0.1" style="pointer-events:none" fill="#884488" transform="rotate(0,0,0)"> A+B+E </text>,<line style="pointer-events:none" x1="-1.4903480644090141" y1="1.2799914908185093" x2="2.340289207069187" y2="-1.0504519952998523" stroke="#884488"/>,,<circle  cx="0.38111771526874966" cy="0.14144851479232956" r="0.03" fill="#00aa88"/>,<text x="0.2811177152687496" y="0.09144851479232956" font-family="Verdana" font-size="0.1" style="pointer-events:none" fill="#00aa88" transform="rotate(0,0,0)"> line ^ plane </text>,,<line style="pointer-events:none" x1="-1.7732106177924396" y1="1.0907580394083025" x2="2.1658145747379263" y2="0.5090442946306444" stroke="#ff8844"/>,<text x="0.19630197847274333" y="0.7999011670194734" font-family="Verdana" font-size="0.1" style="pointer-events:none" fill="#ff8844" transform="rotate(0,0,0)"> sum of lines </text></svg>